/* XPM */
static char *def0b639688b40f7fb891d82efa93644omuyhT0cVYNPHEDL[] = {
/* columns rows colors chars-per-pixel */
"64 64 30 1 ",
"  c #4A1F0F",
". c #47200F",
"X c #4A220E",
"o c #4C2311",
"O c #522613",
"+ c #572A15",
"@ c #592B15",
"# c #562B18",
"$ c #5B2D18",
"% c #5E3117",
"& c #5F3119",
"* c #603117",
"= c #64351B",
"- c #69371D",
"; c #67381E",
": c #6C3B1E",
"> c #713E1F",
", c #6E3D21",
"< c #713F21",
"1 c #754223",
"2 c #794625",
"3 c #7B4927",
"4 c #7A4728",
"5 c #7E4B29",
"6 c #824E2C",
"7 c #85522D",
"8 c #89552F",
"9 c #875430",
"0 c #8A5631",
"q c #8C5932",
/* pixels */
"9008907800q077776666<2<<<2<22<221<11244667000000088666<66<2<2<62",
"088007qq775422111<<<266<2<<<<1<11211<1>><<<22666622<2><0q6<<<2<>",
"56787752241,121211180806<<866<21111111112224><<1422<2<<662<><<86",
"1111111297113q612<6q8807>60006<<111111<480006><60082<2<<><6666q8",
"1:25211231<28871121600q626776<<22<>211>600006114086<<<><>>28627q",
"1608q211<1117q61111<1462>>2<<22<<1><11>60880511126<><66876><>>26",
"7q8802112111782<1111<111<2<2<2<212<2<<>688882111>2<680q8q62>2<<<",
"888q71111111121111<111112<2<2<2<2<2<22>>28861111<<68888886<2<2<2",
"6989222<1111111111112111<<2<<<<<1111111111411111<<6q88887><<2<<2",
"<2<<<<<21111>11111111111,><2<6<<11111111111<11112<6088q7222>>266",
"2<<2>6803>11>11111111111<<<2<6<61111111111111111<2<888862><>2608",
"<22<<88961111111111111114<2<<><21112<->1111111112<<<4<2><-<22988",
"2226888q31111111121112<1<2<26<<<11112>>211111111<2<2<2>22<>216q6",
"<<6q88792<1111111111<1112<1<<2<211111111111111112<<2<22<<<2<<<21",
"<2088886111111111111<121112<2<<<1111>111111111116<<<2<2<22<2<211",
"<2088q821111112<<111<1<11111<<2:1111111>11111111<<<<<2<<2<2<2<<>",
"2268862<1114<<2<,<2<2<<2<2<2<2<22<2<>6>-<2<<<2<2<<2<1111111<21<-",
"<<<22<2<111121<<<<<2<22<2<2<2<<2<2<2<<<66<422<2<<2<21111111111<<",
"2<2<2<11<211<2<242<<4<<2<2<:<<2<<22<<2<<<<4<<<<2<22<111121112>2<",
"<2<2<2<14<<12<2<<1<4<<2<<2<<<2<22<<2><>6<<<2<2<22<<21111<>21<<>6",
"2<>22<2<1<<11111<2<22<<411111111>121<<6<6<<22<2<<2111111<>>2<<<2",
"<<2<<22<114<1111<2<<<24<111211112<112<<<<<6<<2<22<1111112<226>2<",
"2<<22<<2111111116<<2<<<<111111111111<<<6>><<1<11<2<11111<2<<<2<2",
"<22<2<2<11112111<<2<22<41<11111121116<<<<>6<11112<2<11112<2<2<2<",
"222>,<<111111111<<<22<2<26<<1111<1<2<2<<11111111<6<<<<<<<212<111",
"2>:*=&=-111111116<2<<2<2<<<<111112<<4<<211111111<<<62<642<<22<11",
"-=*-====&,11111112<<<<<2<<6<1111<>><<<6<11111111<2<<<2<<<<2<1111",
"=-=======&,,1111<<<62<2<<6<<21<---==--:<111121112<<6<<<<22<211<2",
"======-=====,,<122<<2<<22<<<<-===-=--=&=-,,1122<<<<<<<<,,,--,-,,",
"===*===-====&&=,>><<<2<<<<,=====-*=========---==----==,===&=-***",
"==============,&*==-,--=-*-============*==========--==========-=",
"==============&=-===-=*---*-===========-========================",
"=======-=======%=======;==========&&==-=-=================%=====",
"========================================-=======================",
"==================;=====*=========================-=============",
"=================:=================================*============",
"=====&=============*============================+%;=============",
"=====+============;=============================%===============",
"==================%===================*======================@%=",
"===;====-====;====@================&,&@======================%==",
"==================%============================================;",
"==================;===========-=============*===================",
"&%;================;============$===========*-========%%========",
";===========%====%=%*===========&,==============================",
"=============;=====*===============================;============",
"===================;============-=================*%;===========",
"=======%*=========================,===-============%==%=========",
"======;=*=======*============;=;=&@+++$===============;;======;=",
"===;-==========================&@+++@@++@========;%%@%%=========",
"====*=========================%O+++@+++@++&=---==%+++++%========",
"==&=========================&@@#++++++++@@O@@=*@#+@@++++@=======",
"=@##@@@%==================-%+++@+++@+++@+@+@+O++++++++@@@@=-====",
"+@##@@+++%=-=-============@+@++++@+++@+++O@@+++++@++++@+++@-====",
"+@OX+@+++O%%=;===========+++@@+#++++++++@@+@@++@++++##XO@++@=-==",
"@+Xo+++@++++@====-=====$++++++++++@++@@++++@+@@O.++++++O++++%===",
"#+XX++@++++++O%%==*==%@++++++++@+@+++++++++++@@OX##++++@+O+++%-=",
"+@++#+OXX#+++@++++@@++++#O@O@@+@+@+++++#+$+++++++@X O+@@XXooO+$=",
"+++@+o.oXO@+++++++#+++++ O@#+O+@+@@O#@+#@O+++@+@@o X++@OXXoXXO@@",
"+++#++OoX+++OoXO++ooO+@+O@OOO oo++oXo@+@Ooo++@+@O  O@++@OXXXoO@#",
"@+++++@@#@++XXXX@@oXO#@+@@OO@o  O@+OO@@O#@@+++@+@OOO@+@+@@+O@+@@",
"@+@+@+++@+@+oXoo++O+++oooO@#++OO#@++OOooO+++@+O#@++@+@++@#+@@+++",
"++++++@++++++oXO@+#@Oooooo@@++@@@@O#oooX O@@#+@@++++@+O@++++++@+",
"+@+@@@++@+++@+O#+@@+oo.ooO+@@+@+O@@OXoXo O+@++#OO#@+OoX++++@+oX@",
"++OOO@++++@+++@##+++OoooO@+@+oO@+++@o.oo #++++@@@@@OXXX++@++OXoO"
};
