/* XPM */
static char *result[] = {
/* columns rows colors chars-per-pixel */
"64 64 83 1 ",
"  c #33322F",
". c #3C362A",
"X c #2D2F31",
"o c #2F3031",
"O c #303030",
"+ c #503F1E",
"@ c #413827",
"# c #493D26",
"$ c #423929",
"% c #5E4616",
"& c #57441E",
"* c #5C461C",
"= c #5E481D",
"- c #7C5506",
"; c #75520C",
": c #7A560E",
"> c #694C12",
", c #654C1A",
"< c #694E19",
"1 c #6C5017",
"2 c #6E531D",
"3 c #755414",
"4 c #795611",
"5 c #7E5A12",
"6 c #4F4123",
"7 c #544322",
"8 c #584520",
"9 c #544C3D",
"0 c #5F5136",
"q c #5A513D",
"w c #6C5425",
"e c #63512E",
"r c #715620",
"t c #615235",
"y c #695632",
"u c #454545",
"i c #4B4841",
"p c #4E4E4E",
"a c #585141",
"s c #53514C",
"d c #58554F",
"f c #4E4F50",
"g c #4F5052",
"h c #525252",
"j c #595753",
"k c #5C5A56",
"l c #5C5C5C",
"z c #685B43",
"x c #6F6041",
"c c #746C5B",
"v c #636363",
"b c #6B6B6B",
"n c #737373",
"m c #7D7A73",
"M c #7B7B7B",
"N c #805604",
"B c #855901",
"V c #8D5E01",
"C c #835C0E",
"Z c #895E09",
"A c #8E6105",
"S c #8C610A",
"D c #936301",
"F c #986501",
"G c #9D6901",
"H c #916408",
"J c #A36D01",
"K c #A97000",
"L c #848484",
"P c #8C8C8C",
"I c #939393",
"U c #9C9C9C",
"Y c #A5A5A5",
"T c #AAAAAA",
"R c #AFAFB0",
"E c #B3B3B3",
"W c #BBBBBB",
"Q c #C4C4C4",
"! c #CBCBCB",
"~ c #D4D4D4",
"^ c #DBDBDB",
"/ c #E2E2E2",
"( c None",
/* pixels */
"(((((((((((((((((((((((hhhhhhhshhhhhhpshh(((((((((((((((((((((((",
"((((((((((((((((((((pppMPlpLIPPPIPPPLhlPMffp((((((((((((((((((((",
"((((((((((((((((ppunMPUYYvhITYTYTQQTIhvTUMMLnppp((((((((((((((((",
"(((((((((((((((vbnLLPQ/WYvhITEWTT^^TIhvYTTULMbbbv(((((((((((((((",
"((((((((((((plvLYW~PlU!YIvhLUWQUUQWUPgvIUILlMYTELlhh((((((((((((",
"((((((((((hhhL!WYTRYUnkjjdsjkkkjkkkjjspjjjnUYYW~WUnhjj((((((((((",
"((((((((pbIIILbPYYTMvhpw:45444444444444:wfhvMYTEPlMIRQMf((((((((",
"((((((pvLU!WYULMnnnx2wrZFBBDFFFFFFFFDBVFZrrrznnnMLUYEWILlp((((((",
"(((((lnnLU!TLLPceee5DVDJJVBGJJJJJJJJGBVJJVDDCeeecLLLUYILLPv(((((",
"((((bMYIvnImqqqrVVBFKJJJJVBGJJJJJJJJGBVJJJJJFBBVrqqqmInvE~Mv((((",
"((jnQQYUULdyNZNDJVBFJJJJJVBGJJJJJJJJJBVJJJJJFBVJHZBZydLUUYUIvh((",
"plIPbvlllz:ZGGGJKVBFJJJJJVBJJJJJJJJJFBVJJJJJFBDJJFGGZ:zllllvIIlh",
"plUYPLPMp0BDJJJJJDBDJJJJJVBFJJJJJJJJJBVJJJJJFBDJJJJJDB0fMLLPYYlp",
"plYTQWTPgtBAJJJJJDBFJJJJJVBJJJJJJJJJGBVJJJJKFBDJJJJJABtpPTTTWElp",
"plLU!!TPgtBAJJJJJDBFJJJJJVBJJJJJJJJJGBVJJJJJDBDJJJJJABthUETT!Qvp",
"phlvUUULhtBDJJJJJDBFJJJJJVBFJJJJJJJJGBVJJJJJFBDJJJJJVZthT!YUUIlp",
"plIIvllkftBDJJJJJDBDJJJJJVBFJJJJJJJJFBVJJJJJDBDJJJJJDB0flvllllhs",
"plUYPPPMgtBAJJJJJDBFJJJJJVBJJJJJJJJJJBVJJJJJFBDJJJJJVBtfMPPPILlf",
"plYT!WTIgtBAJJJJJDBFJJJJJVBGJJJJJJJJFBVJJJJJFBDJJJJJABthITYTTUlp",
"phLPTYPMftBDJJJJJDBDJJJJJVBGJJJJJJJJJBVJJJJJDBDJJJJJDBtgPTYYPLjp",
"phvvllllptBAJJJJJDBFJJJJJVBFJJJJJJJJGBVJJJJJFBDJJJJJZ;0hLUIIblgg",
"pv!!YYUPgtBAJJJJJDBFJJJJJVBJJJJJJJJJGBVJJJJJFBAGGGGG= uphllvIUlf",
"plTW!!TPhtBAJJJJJDBFJJJJJVBGJJJJJJJJGBVJJJJJDB>#####.ouhLIII!!vp",
"flUTWWTIgtBAJJJJJDBFJJJJJVBGJJJJJJJJGBVJJJJKFB*XXXXXXouhITQ!WElp",
"plUYLLLnhtBAJJJJJDBDJJJJJVZFJJJJJJJJGBVJJJJJFB;*====.ougnLWQTYlp",
"plPPnbllftBDJJJJJDBFJJJJJVBGJJJJJJJJGBVJJJJJFBDJJJJJ<@islvLIIPlp",
"pfhn!!TPgtBVJJJJJDBFJJJJJVBGJJJJJJJJGBVJJJJJFBDJJJJJAB0gPUblllpp",
"plIUTW~Rh0BDJJJJJDBFJJJJJVBGJJJJJJJJGBVJJJJJFBDJJJJJVBthPTUUIPlp",
"plUTTTWUgtBAJJJJJDBDJJJJJVBJJJJJJJJJGBVJJJJJFBDJJJJJABtgPYTYTYlp",
"hhMMMLYPgtBAJJJJJABFJJJJJVBFJJJJJJJJGBVJJJJJFBDJJJJJABtgPTYYTUlp",
"phvbnMPMgtBDJJJJJDBFJJJJJVBJJJJJJJJJJBVJJJJJFBDJJJJJDBthIYIPILhf",
"plUT~WvjgtBAJJJGHZ-ZFJJJJVBFJJJJJJJJFBVJJJJJDBDJJJJJDNthLUblllhs",
"slUTTTULgtBDJJK3$....CJJJVBGJJJJJJJJGBVJJJJJFBDJJJJJDB0fllPUUIlp",
"flUYYTTPg0BAJJJHC7o=CGJJJVBGJJJJJJJJGBVJJJJJFBDJJJJJABtfMPYT!Qvp",
"shnnnLYIhtBAJJJJK<o3KJJJJVBJJJJJJJJJJBVJJJJJFBDJJJJJABthITTTWWvp",
"hhbbbnLMgtBDJJJH57o85GJJJVBGJJJJJJJJFBVJJJJKDBDJJJJJDNtgMLPLPLhp",
"flUTYIvlptBAJGH1$$.$#3HGJVBFJJJJJJJJJBVJJJJJFBDJJJJJVBtfllvlllsf",
"plUYYYUPgtBDJ3 <GZ-AG8.CJVBJJJJJJJJJFBVJJJJJFBDJJJJJDBtgLYUUUUlp",
"plYYYYTIftBAJ3X<JDBFJ8XCJVBGJJJJJJJJJBVJJJJJFBDJJJJJVBtgPTYYTUlp",
"phbnnbnvftBAJS3<=&+8=<3FJVBGJJJJJJJJFBVJJJJJDBDJJJJJDBthT!EYMbhp",
"hhbnnnnvgtBDJJJC8*+&=SJJJVBFJJJJJJJJFBVJJJJJFBDJJJJJVBthPYPLnbhp",
"plUYYYTPftBAJJJJJDBFJJJJJVBJJJJJJJJJJBVJJJJKDBVJJJJJVZtflvvvIYlp",
"plYTYYYIhtBDJJJJJDBFJJJJJVBFJJJJJJJJFBBJJJJJFBDJJJJJDBtfPYYYYYlp",
"pv!!TYYPf0BAJJJJJDBDJJJJJVBJJJJJJJJJJBVJJJJJFBDJJJJJVBthPYYY!!vp",
"pv~!nbbvftBAJJJJJDBFJJJJJVBFJJJJJJJJGBVJJJJKFBDJJJJJDB0fvbUTWEvp",
"plIIMnnbgtBDJJJJJDBFJJJJJVBJJJJJJJJJJBVJJJJJDBDJJJJK:%9fbnMMMnhp",
"shvnYYTPgtBDJJJJJDBFJJJJJVBGJJJJJJJJFBVJJJJJFBZCCCCC6XujIYnvvvhh",
"plUYYTRIg0BAJJJJJDBFJJJJJVBGJJJJJJJJJBVJJJJJFB%O    OouhPYYYTYlp",
"plUYUE~RgtBAJJJJJDBFJJJJJVBJJJJJJJJJGBVJJJJJFB%      OuhPYTT!!vp",
"phvvvL/WhtBAJJJJJDBDJJJJJVBFJJJJJJJJGBVJJJJJFBNCCCCC#XuplbIT^~vp",
"hhMMMLIMgtZAJJJJJDBDJJJJJVBJJJJJJJJJFBVJJJJJFBDJJKKJ:%9hnMMnPPlp",
"plUTYUbvftBVJJJJJDBFJJJJJVBFJJJJJJJJJBVJJJJJFBDJJJJJDBtgPYMbbvhp",
"plUTRTYPgtBDJJJJJDBFJJJJJVBFJJJJJJJJGBVJJJJJFBDJJJJJDBtgPYYYYUlp",
"plUT~!YPg0BAJJJJJDBFJJJJJVBJJJJJJJJJGBVJJJJJDBDJJJJJABthPTYTYUlp",
"shvvbvvlftBVJJJJJDBFJJJJJVBFJJJJJJJJGBVJJJJJFBDJJJJJAB0gIT!!Mvhp",
"fjMLLLLngtBDJJJJJVBFKJJJJVBJJJJJJJJJJBVJJJJJDBDJJJJJDBtfvnLLLMhp",
"plYTTTTPhtBAJJJJJDBFJJJJJVBGJJJJJJJJGBVJJJJJFBDJJJJJABtgbnbnEEvp",
"pkPIYYTPgtBAJJJJJDBDJJJJJABGJJJJJJJJGBVJJJJJFBDJJJJJDBtgPYEE!!vp",
"phvbUUUPgtBDJJJJJDBFJJJJJVBGJJJJJJJJGBVJJJJJFBDJJJJJABtgPY!^EUlp",
"pvWEvlllgtBAJJJJJDBFJJJJJVBGJJJJJJJJGBVJJJJJFBDJJJJJVBtfkvW^EUlp",
"plEEPLPMg0BVVDVDDBBVVDVDVBBVDVDVVDVDVBBDDVDVVBVADVDVVBtfnPLMnvhh",
"plWWTTTPhawwwwwwwwwwwwwwwwwrwwwwwwwwwwwwwwwwwwwwwwwwwwahITLnPPlp",
"plTEIPPMpppgffpfffffphfffffffffppfffffpfgfffpfpfffpggffsMPPIERlp",
"phhhhhhhhpgppfppfsppppfpppfffpphppfspfppppfpppsfffppppfphhhhhhsf"
};
