/* XPM */
static char *result[] = {
/* columns rows colors chars-per-pixel */
"64 64 131 2 ",
"   c #72370A",
".  c #753A0A",
"X  c #7A3E0A",
"o  c #7C420A",
"O  c #7E4512",
"+  c #824409",
"@  c #8D4608",
"#  c #834A09",
"$  c #8A4F09",
"%  c #9A4E07",
"&  c #954A08",
"*  c #865109",
"=  c #8C5308",
"-  c #8D5A08",
";  c #925708",
":  c #985108",
">  c #935B08",
",  c #985E08",
"<  c #834B15",
"1  c #A05007",
"2  c #A95506",
"3  c #AC5906",
"4  c #B65C05",
"5  c #B85D05",
"6  c #9C6407",
"7  c #9C6D07",
"8  c #946308",
"9  c #9F7207",
"0  c #A16707",
"q  c #A66C07",
"w  c #A86E06",
"e  c #BA6105",
"r  c #A47307",
"t  c #AC7206",
"y  c #A57A07",
"u  c #A97D06",
"i  c #B37106",
"p  c #B47C06",
"a  c #9B692B",
"s  c #A87A36",
"d  c #C36305",
"f  c #C96604",
"g  c #CE6904",
"h  c #D26B03",
"j  c #D96E03",
"k  c #C77604",
"l  c #C47904",
"z  c #DA7103",
"x  c #E37302",
"c  c #E97602",
"v  c #F27B01",
"b  c #F87E01",
"n  c #AB8206",
"m  c #B48405",
"M  c #BC8305",
"N  c #B58D05",
"B  c #BB8D05",
"V  c #B79205",
"C  c #B99305",
"Z  c #BD9A05",
"A  c #C08705",
"S  c #C48C04",
"D  c #C88F04",
"F  c #D28E03",
"G  c #C69104",
"H  c #CB9304",
"J  c #CE9A04",
"K  c #D39B03",
"L  c #DC9F03",
"P  c #F68001",
"I  c #FF8300",
"U  c #FF8D00",
"Y  c #E69602",
"T  c #F59001",
"R  c #FE9600",
"E  c #FF9F00",
"W  c #C6A504",
"Q  c #CBA304",
"!  c #C9A904",
"~  c #D3A503",
"^  c #DBA303",
"/  c #D5AB03",
"(  c #CEB004",
")  c #D3B403",
"_  c #DCB103",
"`  c #D3B803",
"'  c #DABD03",
"]  c #E4AC02",
"[  c #FFAD00",
"{  c #E3B102",
"}  c #EDB601",
"|  c #E6BC02",
" . c #EAB902",
".. c #FEB400",
"X. c #F3BC01",
"o. c #FFBB00",
"O. c #EFBD19",
"+. c #C99825",
"@. c #DCC203",
"#. c #E3C602",
"$. c #E4CC02",
"%. c #EDCB01",
"&. c #F0C101",
"*. c #FDC500",
"=. c #F3CE01",
"-. c #FFC900",
";. c #FFCA0B",
":. c #E7D102",
">. c #ECD202",
",. c #EEDB01",
"<. c #F3D301",
"1. c #FED300",
"2. c #F1DD01",
"3. c #FFDC00",
"4. c #FFCC14",
"5. c #F5E301",
"6. c #FEE300",
"7. c #FDEC00",
"8. c #FFF200",
"9. c #B38740",
"0. c #BA9046",
"q. c #C69F50",
"w. c #CBA454",
"e. c #FCD853",
"r. c #FDDA58",
"t. c #EAC964",
"y. c #E8C96D",
"u. c #FADB69",
"i. c #F6DB79",
"p. c #FADF7C",
"a. c None",
/* pixels */
"a.a.a.a.a.a.a.a.a.a.a.a.a.a.a.a.a.a.a.a.a.a.a.a.a.a.a.a.a.a.a.a.a.a.a.a.a.a.a.a.a.a.a.a.a.a.a.a.a.a.a.a.a.a.a.a.a.a.a.a.a.a.a.a.",
"a.a.a.a.a.a.a.a.a.a.a.a.a.a.a.a.a.a.a.a.a.a.a.a.a.a.a.a.a.a.a.a.a.a.a.a.a.a.a.a.a.a.a.a.a.a.a.a.a.a.a.a.a.a.a.a.a.a.a.a.a.a.a.a.",
"a.a.a.a.a.a.a.a.a.a.a.a.a.a.a.a.a.a.a.a.a.a.a.a.a.. . . . . . . . . . . . . . a.a.a.a.a.a.a.a.a.a.a.a.a.a.a.a.a.a.a.a.a.a.a.a.a.",
"a.a.a.a.a.a.a.a.a.a.a.a.a.a.a.a.a.a.a.a.a.a.a.. . . . . . . . . . . . . . . . . . a.a.a.a.a.a.a.a.a.a.a.a.a.a.a.a.a.a.a.a.a.a.a.",
"a.a.a.a.a.a.a.a.a.a.a.a.a.a.a.a.a.a.a.a.a.a.. . . . . . . . . . . . . . . . . . . X a.a.a.a.a.a.a.a.a.a.a.a.a.a.a.a.a.a.a.a.a.a.",
"a.a.a.a.a.a.a.a.a.a.a.a.a.a.a.a.a.a.a.a.a.. . . X . . . . . . . . . . . . . . . . . . a.a.a.a.a.a.a.a.a.a.a.a.a.a.a.a.a.a.a.a.a.",
"a.a.a.a.a.a.a.a.a.a.a.a.a.a.a.a.a.a.a.a.. . . . . . . . . . . . . . # # o . . . . . . . a.a.a.a.a.a.a.a.a.a.a.a.a.a.a.a.a.a.a.a.",
"a.a.a.a.a.a.a.a.a.a.a.a.a.a.a.a.a.a.a.. . . . . . O s 9.O . . . . X G  .L t o . . . . . . a.a.a.a.a.a.a.a.a.a.a.a.a.a.a.a.a.a.a.",
"a.a.a.a.a.a.a.a.a.a.a.a.a.a.a.a.a.a.a.X . . . . < q.i.u.+.o . . . . , &.-.*.G # . . . . . a.a.a.a.a.a.a.a.a.a.a.a.a.a.a.a.a.a.a.",
"a.a.a.a.a.a.a.a.a.a.a.a.a.a.a.a.a.a.. . . . . O w.i.e.4.-.S X . . . . B -.-.-.J o . . . . . a.a.a.a.a.a.a.a.a.a.a.a.a.a.a.a.a.a.",
"a.a.a.a.a.a.a.a.a.a.a.a.a.a.a.a.a.. . . . . . 0.p.r.;.-.-.*.w   . . . $ | -.-.-.M . . . . . . a.a.a.a.a.a.a.a.a.a.a.a.a.a.a.a.a.",
"a.a.a.a.a.a.a.a.a.a.a.a.a.a.a.a.a.. . . . . a y.t.O.*.-.-.-.] + . . . . N 1.-.-.X.6 . . . . . a.a.a.a.a.a.a.a.a.a.a.a.a.a.a.a.a.",
"a.a.a.a.a.a.a.a.a.a.a.a.a.a.a.a.a.. . . . X s a < # w ] -.-.-.p . . . . = >.-.-.-.K o . . . . a.a.a.a.a.a.a.a.a.a.a.a.a.a.a.a.a.",
"a.a.a.a.a.a.a.a.a.a.a.a.a.a.a.a.. . . . . X o       . = ] -.-.] + . . . . ! 6.-.-.*.6 . . . . . a.a.a.a.a.a.a.a.a.a.a.a.a.a.a.a.",
"a.a.a.a.a.a.a.a.a.a.a.a.a.a.a.a.. . . . . .   . X X . . > } -.-.r   . . . r 7.5.1.1.~ o . . . . a.a.a.a.a.a.a.a.a.a.a.a.a.a.a.a.",
"a.a.a.a.a.a.a.a.a.a.a.a.a.a.a.. . . . . . . X 4 x h & . . p -.-.~ o . . . # :.8.7.7.2.> . . . . . a.a.a.a.a.a.a.a.a.a.a.a.a.a.a.",
"a.a.a.a.a.a.a.a.a.a.a.a.a.a.a.. . . . . . . 5 I I I x @   # ] 3.,.-   .   o W 8.8.8.8.V . . . . . a.a.a.a.a.a.a.a.a.a.a.a.a.a.a.",
"a.a.a.a.a.a.a.a.a.a.a.a.a.a.a.. . . . . . % v I I I I f X . m 7.8.n   .     n 7.8.8.8.' o . . . . a.a.a.a.a.a.a.a.a.a.a.a.a.a.a.",
"a.a.a.a.a.a.a.a.a.a.a.a.a.a.a.. . . . . . f I I I I I b &   - ,.8.W o . .   8 5.8.8.8.5.- . . . . a.a.a.a.a.a.a.a.a.a.a.a.a.a.a.",
"a.a.a.a.a.a.a.a.a.a.a.a.a.a.. . . . . . @ v I I I b I I d . X ) 6.{ o . . . O @.8.8.8.7.n . . . . . a.a.a.a.a.a.a.a.a.a.a.a.a.a.",
"a.a.a.a.a.a.a.a.a.a.a.a.a.a.. . . . .   3 I I I R E R I x + . u -.X.;   . . . ! 8.8.8.8.W . . . . . a.a.a.a.a.a.a.a.a.a.a.a.a.a.",
"a.a.a.a.a.a.a.a.a.a.a.a.a.a.. X . . . X h I U ..*.-.*.[ U :   ; &.-.w   . . . V 8.8.8.8.@.o . . . . a.a.a.a.a.a.a.a.a.a.a.a.a.a.",
"a.a.a.a.a.a.a.a.a.a.a.a.a.a.. . . . . + c U o.-.-.-.-.1.1.i   # { -.M . . . . 9 7.8.8.8.,.* . . . . a.a.a.a.a.a.a.a.a.a.a.a.a.a.",
"a.a.a.a.a.a.a.a.a.a.a.a.a.a.. . . .   & b [ -.-.-.-.1.7.8.W . o J -.H X . . . 8 5.8.8.8.5.8   . . . a.a.a.a.a.a.a.a.a.a.a.a.a.a.",
"a.a.a.a.a.a.a.a.a.a.a.a.a.a.. . . . . 2 R *.-.-.-.3.7.8.8.@.o . M -.^ o   . . $ 2.6.3.8.7.y . . . . a.a.a.a.a.a.a.a.a.a.a.a.a.a.",
"a.a.a.a.a.a.a.a.a.a.a.a.a.. . . . .   e ..-.-.-.6.8.8.8.8.,.* . t -.} + . .   # $.6.-.6.8.N . . . . . a.a.a.a.a.a.a.a.a.a.a.a.a.",
"a.a.a.a.a.a.a.a.a.a.a.a.a.. . . . . . k *.-.3.7.8.8.8.8.8.5.>   6 *.X.$ . .   o @.6.-.-.8.Z . . . . . a.a.a.a.a.a.a.a.a.a.a.a.a.",
"a.a.a.a.a.a.a.a.a.a.a.a.a.. . . . . X F 1.6.8.8.8.8.8.8.8.5.7   > X.X.; . . . o ) 6.-.-.6.! . . . . . a.a.a.a.a.a.a.a.a.a.a.a.a.",
"a.a.a.a.a.a.a.a.a.a.a.a.a.. . . . . o _ 8.8.8.8.8.7.8.7.3.1.r   # X.*.8   . . o ! 6.-.-.1.) o . X . . a.a.a.a.a.a.a.a.a.a.a.a.a.",
"a.a.a.a.a.a.a.a.a.a.a.a.a.. . . . . o $.8.8.8.8.8.8.8.1.-.-.t   # X.<.9   . . . ! 6.-.-.1.) o . . . . a.a.a.a.a.a.a.a.a.a.a.a.a.",
"a.a.a.a.a.a.a.a.a.a.a.a.a.. . . . . + $.8.8.8.8.8.7.3.-.-.*.w   # X.3.9 . . . . W 6.-.-.-./ o . . . . a.a.a.a.a.a.a.a.a.a.a.a.a.",
"a.a.a.a.a.a.a.a.a.a.a.a.a.. . . . . o :.8.8.8.8.8.7.-.-.-.*.t   + &.7.9 . . . . W 6.-.-.-.~ o . . . . a.a.a.a.a.a.a.a.a.a.a.a.a.",
"a.a.a.a.a.a.a.a.a.a.a.a.a.. . . . . o $.8.8.8.8.8.1.-.-.-.-.t   # =.7.9   . . . ! 6.-.-.-.K X . . . . a.a.a.a.a.a.a.a.a.a.a.a.a.",
"a.a.a.a.a.a.a.a.a.a.a.a.a.. . . . . # $.8.8.8.8.7.-.-.*.-.-.t   # 2.7.9   . . . ! 3.-.-.-.K o   . . . a.a.a.a.a.a.a.a.a.a.a.a.a.",
"a.a.a.a.a.a.a.a.a.a.a.a.a.. . . . . # $.8.8.8.8.3.-.-.-.*.*.t   # ,.7.9   . . o ! 3.*.-.-.K X . . . . a.a.a.a.a.a.a.a.a.a.a.a.a.",
"a.a.a.a.a.a.a.a.a.a.a.a.a.. . . .   o @.8.8.8.8.1.-.*.-.-.*.q   - 5.5.7   . . . ! 1.-.*.-.K o . . . . a.a.a.a.a.a.a.a.a.a.a.a.a.",
"a.a.a.a.a.a.a.a.a.a.a.a.a.. . . . . o ` 8.8.8.7.-.-.-.-.-.*.6   8 5.2.> . . . o ` 3.-.-.-.D X . . . . a.a.a.a.a.a.a.a.a.a.a.a.a.",
"a.a.a.a.a.a.a.a.a.a.a.a.a.X . . . . . W 8.8.8.6.-.-.-.-.-.&.=   9 7.=.$ . . . o ' 1.-.-.-.M . . . . . a.a.a.a.a.a.a.a.a.a.a.a.a.",
"a.a.a.a.a.a.a.a.a.a.a.a.a.. . . . .   C 8.8.8.3.*.-.-.-.-.} #   n 7. .#   . . o #.-.-.-.-.p   . . . . a.a.a.a.a.a.a.a.a.a.a.a.a.",
"a.a.a.a.a.a.a.a.a.a.a.a.a.a.. . . .   n 7.8.8.1.*.-.-.*.-.^ o   Z 6.~ o . o . * >.-.-.-.*.w   . . . a.a.a.a.a.a.a.a.a.a.a.a.a.a.",
"a.a.a.a.a.a.a.a.a.a.a.a.a.a.. . . .   8 7.8.8.1.*.-.-.-.-.D . o ! 3.H X . . . 8 <.-.-.-.X.,   . . . a.a.a.a.a.a.a.a.a.a.a.a.a.a.",
"a.a.a.a.a.a.a.a.a.a.a.a.a.a.. . . . . # :.8.7.1.-.*.*.-.-.p   # %.-.M   . .   y 1.-.-.-.} $ . . . . a.a.a.a.a.a.a.a.a.a.a.a.a.a.",
"a.a.a.a.a.a.a.a.a.a.a.a.a.a.. . . . . o ( 8.7.-.-.-.-.-.X.,   > =.-.w   . .   V -.-.-.-.^ o . . . . a.a.a.a.a.a.a.a.a.a.a.a.a.a.",
"a.a.a.a.a.a.a.a.a.a.a.a.a.a.. . . . .   n 8.8.-.-.*.-.-.] +   m -.X.; . . . X Q -.-.-.*.l . . . . . a.a.a.a.a.a.a.a.a.a.a.a.a.a.",
"a.a.a.a.a.a.a.a.a.a.a.a.a.a.. . . . . . - 2.8.-.-.-.-.-.M   o ~ -.{ # . . . o { -.-.-.[ 2   . . X . a.a.a.a.a.a.a.a.a.a.a.a.a.a.",
"a.a.a.a.a.a.a.a.a.a.a.a.a.a.a.. . . . . o ! 8.1.-.-.-.X.,   - &.-.H . . .   = X.-.-.-.T @ . . . . a.a.a.a.a.a.a.a.a.a.a.a.a.a.a.",
"a.a.a.a.a.a.a.a.a.a.a.a.a.a.a.. . . . . . 8 2.1.-.-.-.D X . m -.-.t   . . . t *.-.-...z o   . . . a.a.a.a.a.a.a.a.a.a.a.a.a.a.a.",
"a.a.a.a.a.a.a.a.a.a.a.a.a.a.a.. . . . . . . V 3.-.-.] =   * | -.} = . . . . G -.-.o.U 4 . . . . . a.a.a.a.a.a.a.a.a.a.a.a.a.a.a.",
"a.a.a.a.a.a.a.a.a.a.a.a.a.a.a.. . . . . . . o m ] K >   . N -.-.K X . . . # { -.-.E v & . . . . . a.a.a.a.a.a.a.a.a.a.a.a.a.a.a.",
"a.a.a.a.a.a.a.a.a.a.a.a.a.a.a.a.. . . . . . . . o X .   8 %.-.-.w . . .   0 *.-.[ I h X . . . . a.a.a.a.a.a.a.a.a.a.a.a.a.a.a.a.",
"a.a.a.a.a.a.a.a.a.a.a.a.a.a.a.a.. . . . . X o     .   - #.1.-.] #   . . X D -...U b 1 . . . . . a.a.a.a.a.a.a.a.a.a.a.a.a.a.a.a.",
"a.a.a.a.a.a.a.a.a.a.a.a.a.a.a.a.a.. . . . o n 7 # # u :.7.-.-.p . . .   = } o.U b h o . . . . a.a.a.a.a.a.a.a.a.a.a.a.a.a.a.a.a.",
"a.a.a.a.a.a.a.a.a.a.a.a.a.a.a.a.a.. . . . . 7 %.X.&.7.8.3.-.] # . . . . p ..U I b % . . . . X a.a.a.a.a.a.a.a.a.a.a.a.a.a.a.a.a.",
"a.a.a.a.a.a.a.a.a.a.a.a.a.a.a.a.a.. . . . . X C -.3.8.7.1.X.w   . .   # Y U I I 5 X . . . . . a.a.a.a.a.a.a.a.a.a.a.a.a.a.a.a.a.",
"a.a.a.a.a.a.a.a.a.a.a.a.a.a.a.a.a.a.. . . . . + J 7.8.6.-.S X . . . . e I I b h o . . . . . a.a.a.a.a.a.a.a.a.a.a.a.a.a.a.a.a.a.",
"a.a.a.a.a.a.a.a.a.a.a.a.a.a.a.a.a.a.a.. . . . . # ! 7.1.H +   . . . & v I b g +   . . . . a.a.a.a.a.a.a.a.a.a.a.a.a.a.a.a.a.a.a.",
"a.a.a.a.a.a.a.a.a.a.a.a.a.a.a.a.a.a.a.. . . . . . o u p + . . . . X d v j 2 X . . . . . . a.a.a.a.a.a.a.a.a.a.a.a.a.a.a.a.a.a.a.",
"a.a.a.a.a.a.a.a.a.a.a.a.a.a.a.a.a.a.a.a.. . . . . . . . . . . .   X + + X . . . . . . . a.a.a.a.a.a.a.a.a.a.a.a.a.a.a.a.a.a.a.a.",
"a.a.a.a.a.a.a.a.a.a.a.a.a.a.a.a.a.a.a.a.a.. . . . . . . . . . . . . . . . . . . . . . a.a.a.a.a.a.a.a.a.a.a.a.a.a.a.a.a.a.a.a.a.",
"a.a.a.a.a.a.a.a.a.a.a.a.a.a.a.a.a.a.a.a.a.a.. . . . . . . . . . . . . . . . . . . . a.a.a.a.a.a.a.a.a.a.a.a.a.a.a.a.a.a.a.a.a.a.",
"a.a.a.a.a.a.a.a.a.a.a.a.a.a.a.a.a.a.a.a.a.a.a.. . . . . . . . . . . . . . . X . . a.a.a.a.a.a.a.a.a.a.a.a.a.a.a.a.a.a.a.a.a.a.a.",
"a.a.a.a.a.a.a.a.a.a.a.a.a.a.a.a.a.a.a.a.a.a.a.a.a.. X . . . . . . . . . . . X a.a.a.a.a.a.a.a.a.a.a.a.a.a.a.a.a.a.a.a.a.a.a.a.a.",
"a.a.a.a.a.a.a.a.a.a.a.a.a.a.a.a.a.a.a.a.a.a.a.a.a.a.a.a.a.a.a.a.a.a.a.a.a.a.a.a.a.a.a.a.a.a.a.a.a.a.a.a.a.a.a.a.a.a.a.a.a.a.a.a.",
"a.a.a.a.a.a.a.a.a.a.a.a.a.a.a.a.a.a.a.a.a.a.a.a.a.a.a.a.a.a.a.a.a.a.a.a.a.a.a.a.a.a.a.a.a.a.a.a.a.a.a.a.a.a.a.a.a.a.a.a.a.a.a.a."
};
