/* XPM */
static char *result[] = {
/* columns rows colors chars-per-pixel */
"64 64 182 2 ",
"   c #AD3812",
".  c #AA3511",
"X  c #B13D13",
"o  c #AF4014",
"O  c #AB491C",
"+  c #B24415",
"@  c #B64B17",
"#  c #B94B17",
"$  c #B2461D",
"%  c #BB4F1A",
"&  c #B64E1B",
"*  c #BE5217",
"=  c #BA5319",
"-  c #B04825",
";  c #B24C2D",
":  c #B55021",
">  c #B7552E",
",  c #B65A23",
"<  c #C0561B",
"1  c #C35E1C",
"2  c #C5651F",
"3  c #CD6C1E",
"4  c #C86821",
"5  c #C6692E",
"6  c #CC7322",
"7  c #CF762B",
"8  c #C06338",
"9  c #CE7630",
"0  c #C97F3D",
"q  c #D07E30",
"w  c #BC6547",
"e  c #C26F45",
"r  c #C2734F",
"t  c #C47E5F",
"y  c #C17962",
"u  c #E0931E",
"i  c #E69B1D",
"p  c #E99E1E",
"a  c #EBA31F",
"s  c #EDA91F",
"d  c #DD8C20",
"f  c #D6832B",
"g  c #D98525",
"h  c #D38F34",
"j  c #D59235",
"k  c #DA9634",
"l  c #DC9B33",
"z  c #D5953B",
"x  c #DC9538",
"c  c #D79B3F",
"v  c #D8993D",
"b  c #E19523",
"n  c #E39B23",
"m  c #E0972A",
"M  c #E19C30",
"N  c #E39F3C",
"B  c #E6A023",
"V  c #EBA622",
"C  c #EDAA21",
"Z  c #E6A32E",
"A  c #EAA62A",
"S  c #F0AE22",
"D  c #EFB12D",
"F  c #F2B324",
"G  c #F2B52C",
"H  c #F5BC2E",
"J  c #EBAC33",
"K  c #E7A73B",
"L  c #E7A93C",
"P  c #EAAE3E",
"I  c #E1A134",
"U  c #EDB134",
"Y  c #EDB33B",
"T  c #F2B531",
"R  c #F1BC3C",
"E  c #FCCC2E",
"W  c #F7C935",
"Q  c #FBCE36",
"!  c #F3C13D",
"~  c #FCCF3D",
"^  c #FCD03C",
"/  c #D08746",
"(  c #D69944",
")  c #D89B4B",
"_  c #D99F53",
"`  c #DDA245",
"'  c #DCA44B",
"]  c #DFAC4D",
"[  c #DCA452",
"{  c #DCA55A",
"}  c #DDAE5B",
"|  c #E6A743",
" . c #E9AC41",
".. c #E0A64D",
"X. c #E4AB4C",
"o. c #ECB343",
"O. c #EDB843",
"+. c #ECB649",
"@. c #EFBA4B",
"#. c #F2BF43",
"$. c #F1BD4B",
"%. c #E3AF53",
"&. c #E7B553",
"*. c #E9B656",
"=. c #EDBC54",
"-. c #E3B65E",
";. c #EBBC5A",
":. c #DCAA69",
">. c #DDAA65",
",. c #E6BB61",
"<. c #E1B86E",
"1. c #E8BF6A",
"2. c #EDBE63",
"3. c #E1BB7D",
"4. c #F4C545",
"5. c #F9CF47",
"6. c #F3C24E",
"7. c #F9CE4D",
"8. c #FCD244",
"9. c #FCD54A",
"0. c #EBC15B",
"q. c #F3C453",
"w. c #F5CB53",
"e. c #F1C55E",
"r. c #F4CB5C",
"t. c #FBD553",
"y. c #FCD954",
"u. c #F7D358",
"i. c #FAD25B",
"p. c #FCDB5C",
"a. c #EBC164",
"s. c #F4CB63",
"d. c #F0C66C",
"f. c #F3CB6C",
"g. c #F8CF68",
"h. c #F6D263",
"j. c #F9D364",
"k. c #FCDB63",
"l. c #F7D468",
"z. c #F9D46B",
"x. c #F6D86B",
"c. c #FBDB6C",
"v. c #EFC974",
"b. c #E4C27F",
"n. c #F5CD73",
"m. c #F2CE7E",
"M. c #F7D173",
"N. c #F9D573",
"B. c #F7DB74",
"V. c #FADA72",
"C. c #FAD778",
"Z. c #F6D97C",
"A. c #FBDA7A",
"S. c #F4D47B",
"D. c #FDE26D",
"F. c #FCE174",
"G. c #FCE37B",
"H. c #E3BA81",
"J. c #E8C784",
"K. c #F5D482",
"L. c #F6DB83",
"P. c #F9DC86",
"I. c #F6D78E",
"U. c #F6DA8C",
"Y. c #F8DD8B",
"T. c #F7DB93",
"R. c #FBE283",
"E. c #F7E18F",
"W. c #FCE48C",
"Q. c #FDE88D",
"!. c #FEEA93",
"~. c #FEEC9E",
"^. c #FBE396",
"/. c #FDEBA3",
"(. c #FEEDAC",
"). c #FEEEB6",
"_. c #FDEFBC",
"`. c #FEF1B6",
"'. c #FFF5CE",
"]. c #FDF3C4",
"[. c #FEF6D3",
"{. c None",
/* pixels */
"{.{.{.{.{.{.{.{.{.{.{.{.{.{.{.{.{.{.{.{.{.{.{.{.{.{.{.{.{.{.{.{.{.{.{.{.{.{.{.{.{.{.{.{.{.{.{.{.{.{.{.{.{.{.{.{.{.{.{.{.{.{.{.{.",
"{.{.{.{.{.{.{.{.{.{.{.{.{.{.{.{.{.{.{.{.{.{.{.{.{.{.{.{.{.{.{.{.{.{.{.{.{.{.{.{.{.{.{.{.{.{.{.{.{.{.{.{.{.{.{.{.{.{.{.{.{.{.{.{.",
"{.{.{.{.{.{.{.{.{.{.{.{.{.{.{.{.{.{.{.{.{.{.{.{.{.{.{.{.{.{.{.{.{.{.{.{.{.{.{.{.{.{.{.{.{.{.{.{.{.{.{.{.{.{.{.{.{.{.{.{.{.{.{.{.",
"{.{.{.{.{.{.{.{.{.{.{.{.{.{.{.{.{.{.{.{.{.{.{.{.{.{.{.{.{.{.{.{.{.{.{.{.{.{.{.{.{.{.{.{.{.{.{.{.{.{.{.{.{.{.{.{.{.{.{.{.{.{.{.{.",
"{.{.{.{.{.{.{.{.{.{.{.{.{.{.{.{.{.{.{.{.{.{.{.{.{.{.{.{.{.{.{.{.{.{.{.{.{.{.{.{.{.{.{.{.{.{.{.{.{.{.{.{.{.{.{.{.{.{.{.{.{.{.{.{.",
"{.{.{.{.{.{.{.{.{.{.{.{.{.{.{.{.{.{.{.{.{.{.{.{.{.{.{.{.{.{.{.{.{.{.{.{.{.{.{.{.{.{.{.{.{.{.{.{.{.{.{.{.{.{.{.{.{.{.{.{.{.{.{.{.",
"{.{.{.{.{.{.{.{.{.{.{.{.{.{.{.{.{.{.{.{.{.{.{.{.{.{.{.{.{.{.{.{.{.{.{.{.{.{.{.{.{.{.{.{.{.{.{.{.{.{.{.{.{.{.{.{.{.{.{.{.{.{.{.{.",
"{.{.{.{.{.{.{.{.{.{.{.{.{.{.{.{.{.{.{.{.{.{.{.{.{.{.{.{.{.{.{.{.{.{.{.{.{.{.{.{.{.{.{.{.{.{.{.{.{.{.{.{.{.{.{.{.{.{.{.{.{.{.{.{.",
"{.{.{.{.{.{.{.{.{.{.{.{.{.{.{.{.{.{.{.{.{.{.{.{.{.{.{.{.{.{.{.{.{.{.{.{.{.{.{.{.{.{.{.{.{.{.{.{.{.{.{.{.{.{.{.{.{.{.{.{.{.{.{.{.",
"{.{.{.{.{.{.{.{.{.{.{.{.{.{.{.{.{.{.{.{.{.{.{.{.{.{.{.{.{.{.{.{.{.{.{.{.{.{.{.{.{.{.{.{.{.{.{.{.{.{.{.{.{.{.{.{.{.{.{.{.{.{.{.{.",
"{.{.{.{.{.{.{.{.{.{.{.{.{.{.{.{.{.{.{.{.{.{.{.{.{.{.{.{.{.{.{.{.{.{.{.{.{.{.{.{.{.{.{.{.{.{.{.{.{.{.{.{.{.{.{.{.{.{.{.{.{.{.{.{.",
"{.{.{.{.{.{.{.{.{.{.{.{.{.{.{.{.{.{.{.{.{.{.{.{.{.{.{.{.{.{.{.{.{.{.{.{.{.{.{.{.{.{.{.{.{.{.{.{.{.{.{.{.{.{.{.{.{.{.{.{.{.{.{.{.",
"{.{.{.{.{.{.{.{.{.{.{.{.{.{.{.{.{.{.{.{.{.{.{.{.{.{.{.{.{.{.{.{.{.{.{.{.{.{.{.{.{.{.{.{.{.{.{.{.{.{.{.{.{.{.{.{.{.{.{.{.{.{.{.{.",
"{.{.{.{.{.{.{.{.{.{.{.{.{.{.{.{.{.{.{.{.{.{.{.{.{.{.{.{.{.{.{.{.{.{.{.{.{.{.{.{.{.{.{.{.{.{.{.{.{.{.{.{.{.{.{.{.{.{.{.{.{.{.{.{.",
"{.{.{.{.{.{.{.{.{.{.{.{.{.{.{.{.{.{.{.{.{.{.{.{.{.{.{.{.{.{.{.{.{.{.{.{.{.{.{.{.{.{.{.{.{.{.{.{.{.{.{.{.{.{.{.{.{.{.{.{.{.{.{.{.",
"{.{.{.{.{.{.{.{.{.{.{.{.{.{.{.{.{.{.{.{.{.{.{.{.{.{.{.{.{.{.{.{.{.{.{.{.{.{.{.{.{.{.{.{.{.{.{.{.{.{.{.{.{.{.{.{.{.{.{.{.{.{.{.{.",
"{.{.{.{.{.{.{.{.{.{.{.{.{.{.{.{.{.{.{.{.{.{.{.{.{.{.{.{.{.{.J.J.U.P.W.W./.{.{.{.{.{.{.{.{.{.{.{.{.{.{.{.{.{.{.{.{.{.{.{.{.{.{.{.",
"{.{.{.{.{.{.{.{.{.{.{.{.{.{.{.{.{.{.{.{.{.{.{.{.{.{.{.{.<.-.0.w.5.5.9.p.A.~._.{.{.{.{.{.{.{.{.{.{.{.{.{.{.{.{.{.{.{.{.{.{.{.{.{.",
"{.{.{.{.{.{.{.{.{.{.{.{.{.{.{.{.{.{.{.{.{.{.{.{.{.{.b.} ] =.7.~ ^ 8.9.y.D.Q.`.[.{.{.{.{.{.{.{.{.{.{.{.{.{.{.{.{.{.{.{.{.{.{.{.{.",
"{.{.{.{.{.{.{.{.{.{.{.{.{.{.{.{.{.{.{.{.{.{.{.{.{.3.[ ' ;.t.9.9.9.9.9.y.k.R.(.'.[.{.{.{.{.{.{.{.{.{.{.{.{.{.{.{.{.{.{.{.{.{.{.{.",
"{.{.{.{.{.{.{.{.{.{.{.{.{.{.{.{.{.{.{.{.{.{.{.{.3.' ( &.i.y.t.y.9.^ Q Q 8.p.Q.`.'.].{.{.{.{.{.{.{.{.{.{.{.{.{.{.{.{.{.{.{.{.{.{.",
"{.{.{.{.{.{.{.{.{.{.{.{.{.{.{.{.{.{.{.{.{.{.{.{.{ z ' e.j.p.k.y.Q E E Q ^ 9.p.W.(.`.`.{.{.{.{.{.{.{.{.{.{.{.{.{.{.{.{.{.{.{.{.{.",
"{.{.{.{.{.{.{.{.{.{.{.{.{.{.{.{.{.{.{.{.{.{.{.>.v ( *.z.c.D.p.~ Q Q W ^ ^ 8.y.c.R.~./.{.{.{.{.{.{.{.{.{.{.{.{.{.{.{.{.{.{.{.{.{.",
"{.{.{.{.{.{.{.{.{.{.{.{.{.{.{.{.{.{.{.{.{.{.{.) j ` f.F.G.F.5.5.^ ^ ! p.y.^ 9.y.k.R.!./.{.{.{.{.{.{.{.{.{.{.{.{.{.{.{.{.{.{.{.{.",
"{.{.{.{.{.{.{.{.{.{.{.{.{.{.{.{.{.{.{.{.{.{.:.z z %.A.G.R.p.8.9.9.8.4.k.p.y.9.y.y.l.Q.!.{.{.{.{.{.{.{.{.{.{.{.{.{.{.{.{.{.{.{.{.",
"{.{.{.{.{.{.{.{.{.{.{.{.{.{.{.{.{.{.{.{.{.{._ h v 2.W.Q.R.t.9.9.9.7.k.D.D.D.p.y.y.u.B.Q./.{.{.{.{.{.{.{.{.{.{.{.{.{.{.{.{.{.{.{.",
"{.{.{.{.{.{.{.{.{.{.{.{.{.{.{.{.{.{.{.{.{.{.( j ` n.W.Q.c.y.t.t.6.B.G.F.B.G.D.y.p.p.h.Q./.{.{.{.{.{.{.{.{.{.{.{.{.{.{.{.{.{.{.{.",
"{.{.{.{.{.{.{.{.{.{.{.{.{.{.{.{.{.{.{.{.{.:.z j ' S.W.W.j.i.i.i.r.G.G.D.x.B.k.p.p.p.r.W.~.{.{.{.{.{.{.{.{.{.{.{.{.{.{.{.{.{.{.{.",
"{.{.{.{.{.{.{.{.{.{.{.{.{.{.{.{.{.{.{.{.{.{ k z X.L.E.P.j.j.j.i.s.R.R.B.x.k.D.k.k.k.j.L./.{.{.{.{.{.{.{.{.{.{.{.{.{.{.{.{.{.{.{.",
"{.{.{.{.{.{.{.{.{.{.{.{.{.{.{.{.{.{.{.{.{.[ k l &.P.E.P.j.j.j.g.d.Y.E.A.x.k.x.k.c.c.k.P./.`.{.{.{.{.{.{.{.{.{.{.{.{.{.{.{.{.{.{.",
"{.{.{.{.{.{.{.{.{.{.{.{.{.{.{.{.{.{.{.{.{.[ l l *.U.T.P.g.M.g.M.v.U.Y.R.A.c.V.V.V.V.c.K./.`.{.{.{.{.{.{.{.{.{.{.{.{.{.{.{.{.{.{.",
"{.{.{.{.{.{.{.{.{.{.{.{.{.{.{.{.{.{.{.{.{...l M ;.T.T.U.M.M.C.K.m.K.P.E.E.P.A.A.A.A.C.K./.).{.{.{.{.{.{.{.{.{.{.{.{.{.{.{.{.{.{.",
"{.{.{.{.{.{.{.{.{.{.{.{.{.{.{.{.{.{.{.{.{...l I =.T.T.K.n.n.n.n.M.f.m.K.L.L.N.z.g.z.g.n.^.(.{.{.{.{.{.{.{.{.{.{.{.{.{.{.{.{.{.{.",
"{.{.{.{.{.{.{.{.{.{.{.{.{.{.{.{.{.{.{.{.{./ 6 6 N =.e.$.T T T G H U G J $.w.4.H H W F o.l.U.{.{.{.{.{.{.{.{.{.{.{.{.{.{.{.{.{.{.",
"{.{.{.{.{.{.{.{.{.{.{.{.{.{.{.{.{.{.{.{.{.e = = 4  .@.O.C s s S C s F s J #.4.F F F V o.s.U.{.{.{.{.{.{.{.{.{.{.{.{.{.{.{.{.{.{.",
"{.{.{.{.{.{.{.{.{.{.{.{.{.{.{.{.{.{.{.{.{.r & @ 4  .+.+.C a s a V C s a Z R R S F F n +.s.{.{.{.{.{.{.{.{.{.{.{.{.{.{.{.{.{.{.{.",
"{.{.{.{.{.{.{.{.{.{.{.{.{.{.{.{.{.{.{.{.{.t : + < M  .o.A a a a n J C n J Y T S s s n $.s.{.{.{.{.{.{.{.{.{.{.{.{.{.{.{.{.{.{.{.",
"{.{.{.{.{.{.{.{.{.{.{.{.{.{.{.{.{.{.{.{.{.{.> + @ q P P A a a p n J J J J Y C V V i M $.n.{.{.{.{.{.{.{.{.{.{.{.{.{.{.{.{.{.{.{.",
"{.{.{.{.{.{.{.{.{.{.{.{.{.{.{.{.{.{.{.{.{.{.w $ X 3 o.o.P n p i b A J J J A V p V u L @.m.{.{.{.{.{.{.{.{.{.{.{.{.{.{.{.{.{.{.{.",
"{.{.{.{.{.{.{.{.{.{.{.{.{.{.{.{.{.{.{.{.{.{.y -   # N $.@.U V a p n b J V p p p i m o.=.{.{.{.{.{.{.{.{.{.{.{.{.{.{.{.{.{.{.{.{.",
"{.{.{.{.{.{.{.{.{.{.{.{.{.{.{.{.{.{.{.{.{.{.{.;   X 7 $.q.$.G V C a b U A n a i d K P 2.{.{.{.{.{.{.{.{.{.{.{.{.{.{.{.{.{.{.{.{.",
"{.{.{.{.{.{.{.{.{.{.{.{.{.{.{.{.{.{.{.{.{.{.{.w $ X < X.r.r.q.G S S V U C C a b L o.=.{.{.{.{.{.{.{.{.{.{.{.{.{.{.{.{.{.{.{.{.{.",
"{.{.{.{.{.{.{.{.{.{.{.{.{.{.{.{.{.{.{.{.{.{.{.{.8 % * f r.j.h.w.R G F F S V Z o.$.$.d.{.{.{.{.{.{.{.{.{.{.{.{.{.{.{.{.{.{.{.{.{.",
"{.{.{.{.{.{.{.{.{.{.{.{.{.{.{.{.{.{.{.{.{.{.{.{.{.5 1 3 | j.c.j.j.w.#.#.O.@.q.r.r.f.{.{.{.{.{.{.{.{.{.{.{.{.{.{.{.{.{.{.{.{.{.{.",
"{.{.{.{.{.{.{.{.{.{.{.{.{.{.{.{.{.{.{.{.{.{.{.{.{.{.9 6 g @.c.x.c.c.x.z.j.j.h.h.M.{.{.{.{.{.{.{.{.{.{.{.{.{.{.{.{.{.{.{.{.{.{.{.",
"{.{.{.{.{.{.{.{.{.{.{.{.{.{.{.{.{.{.{.{.{.{.{.{.{.{.{.q 6 g L s.c.c.V.c.V.c.V.Z.{.{.{.{.{.{.{.{.{.{.{.{.{.{.{.{.{.{.{.{.{.{.{.{.",
"{.{.{.{.{.{.{.{.{.{.{.{.{.{.{.{.{.{.{.{.{.{.{.{.{.{.{.{.{.- O , 0 [ *.2.,.a.{.{.{.{.{.{.{.{.{.{.{.{.{.{.{.{.{.{.{.{.{.{.{.{.{.{.",
"{.{.{.{.{.{.{.{.{.{.{.{.{.{.{.{.{.{.{.{.{.{.{.{.{.{.{.{.{.{.{.{.{.{.{.{.{.{.{.{.{.{.{.{.{.{.{.{.{.{.{.{.{.{.{.{.{.{.{.{.{.{.{.{.",
"{.{.{.{.{.{.{.{.{.{.{.{.{.{.{.{.{.{.{.{.{.{.{.{.{.{.{.{.{.{.{.{.{.{.{.{.{.{.{.{.{.{.{.{.{.{.{.{.{.{.{.{.{.{.{.{.{.{.{.{.{.{.{.{.",
"{.{.{.{.{.{.{.{.{.{.{.{.{.{.{.{.{.{.{.{.{.{.{.{.{.{.{.{.{.{.{.{.{.{.{.{.{.{.{.{.{.{.{.{.{.{.{.{.{.{.{.{.{.{.{.{.{.{.{.{.{.{.{.{.",
"{.{.{.{.{.{.{.{.{.{.{.{.{.{.{.{.{.{.{.{.{.{.{.{.{.{.{.{.{.{.{.{.{.{.{.{.{.{.{.{.{.{.{.{.{.{.{.{.{.{.{.{.{.{.{.{.{.{.{.{.{.{.{.{.",
"{.{.{.{.{.{.{.{.{.{.{.{.{.{.{.{.{.{.{.{.{.{.{.{.{.{.{.{.{.{.{.{.{.{.{.{.{.{.{.{.{.{.{.{.{.{.{.{.{.{.{.{.{.{.{.{.{.{.{.{.{.{.{.{.",
"{.{.{.{.{.{.{.{.{.{.{.{.{.{.{.{.{.{.{.{.{.{.{.{.{.{.{.{.{.{.{.{.{.{.{.{.{.{.{.{.{.{.{.{.{.{.{.{.{.{.{.{.{.{.{.{.{.{.{.{.{.{.{.{.",
"{.{.{.{.{.{.{.{.{.{.{.{.{.{.{.{.{.{.{.{.{.{.{.{.{.{.{.{.{.{.{.{.{.{.{.{.{.{.{.{.{.{.{.{.{.{.{.{.{.{.{.{.{.{.{.{.{.{.{.{.{.{.{.{.",
"{.{.{.{.{.{.{.{.{.{.{.{.{.{.{.{.{.{.{.{.{.{.{.{.{.{.{.{.{.{.{.{.{.{.{.{.{.{.{.{.{.{.{.{.{.{.{.{.{.{.{.{.{.{.{.{.{.{.{.{.{.{.{.{.",
"{.{.{.{.{.{.{.{.{.{.{.{.{.{.{.{.{.{.{.{.{.{.{.{.{.{.{.{.{.{.{.{.{.{.{.{.{.{.{.{.{.{.{.{.{.{.{.{.{.{.{.{.{.{.{.{.{.{.{.{.{.{.{.{.",
"{.{.{.{.{.{.{.{.{.{.{.{.{.{.{.{.{.{.{.{.{.{.{.{.{.{.{.{.{.{.{.{.{.{.{.{.{.{.{.{.{.{.{.{.{.{.{.{.{.{.{.{.{.{.{.{.{.{.{.{.{.{.{.{.",
"{.{.{.{.{.{.{.{.{.{.{.{.{.{.{.{.{.{.{.{.{.{.{.{.{.{.{.{.{.{.{.{.{.{.{.{.{.{.{.{.{.{.{.{.{.{.{.{.{.{.{.{.{.{.{.{.{.{.{.{.{.{.{.{.",
"{.{.{.{.{.{.{.{.{.{.{.{.{.{.{.{.{.{.{.{.{.{.{.{.{.{.{.{.{.{.{.{.{.{.{.{.{.{.{.{.{.{.{.{.{.{.{.{.{.{.{.{.{.{.{.{.{.{.{.{.{.{.{.{.",
"{.{.{.{.{.{.{.{.{.{.{.{.{.{.{.{.{.{.{.{.{.{.{.{.{.{.{.{.{.{.{.{.{.{.{.{.{.{.{.{.{.{.{.{.{.{.{.{.{.{.{.{.{.{.{.{.{.{.{.{.{.{.{.{.",
"{.{.{.{.{.{.{.{.{.{.{.{.{.{.{.{.{.{.{.{.{.{.{.{.{.{.{.{.{.{.{.{.{.{.{.{.{.{.{.{.{.{.{.{.{.{.{.{.{.{.{.{.{.{.{.{.{.{.{.{.{.{.{.{.",
"{.{.{.{.{.{.{.{.{.{.{.{.{.{.{.{.{.{.{.{.{.{.{.{.{.{.{.{.{.{.{.{.{.{.{.{.{.{.{.{.{.{.{.{.{.{.{.{.{.{.{.{.{.{.{.{.{.{.{.{.{.{.{.{.",
"{.{.{.{.{.{.{.{.{.{.{.{.{.{.{.{.{.{.{.{.{.{.{.{.{.{.{.{.{.{.{.{.{.{.{.{.{.{.{.{.{.{.{.{.{.{.{.{.{.{.{.{.{.{.{.{.{.{.{.{.{.{.{.{.",
"{.{.{.{.{.{.{.{.{.{.{.{.{.{.{.{.{.{.{.{.{.{.{.{.{.{.{.{.{.{.{.{.{.{.{.{.{.{.{.{.{.{.{.{.{.{.{.{.{.{.{.{.{.{.{.{.{.{.{.{.{.{.{.{."
};
