/* XPM */
static char *result[] = {
/* columns rows colors chars-per-pixel */
"64 64 133 2 ",
"   c #72370A",
".  c #753A0A",
"X  c #7A3E0A",
"o  c #7C4309",
"O  c #7C4412",
"+  c #814409",
"@  c #8D4608",
"#  c #844B09",
"$  c #8A4F09",
"%  c #9A4E07",
"&  c #944B08",
"*  c #984C08",
"=  c #865009",
"-  c #8C5308",
";  c #8D5A08",
":  c #925708",
">  c #945C08",
",  c #834B15",
"<  c #A05007",
"1  c #AA5606",
"2  c #AC5906",
"3  c #B55B05",
"4  c #B85D05",
"5  c #9C6207",
"6  c #9D6D07",
"7  c #946208",
"8  c #986808",
"9  c #9F7207",
"0  c #A16707",
"q  c #A56C07",
"w  c #A96E06",
"e  c #BA6005",
"r  c #A47407",
"t  c #AB7206",
"y  c #A57907",
"u  c #A97D06",
"i  c #B07606",
"p  c #B57C05",
"a  c #B87F05",
"s  c #9C6B31",
"d  c #9B6D3B",
"f  c #A87A36",
"g  c #C36305",
"h  c #CA6704",
"j  c #CE6904",
"k  c #D26B03",
"l  c #D96E03",
"z  c #CE7504",
"x  c #C47904",
"c  c #DA7103",
"v  c #DE7A02",
"b  c #E37302",
"n  c #EF7A01",
"m  c #F37B01",
"M  c #F87E01",
"N  c #AD8406",
"B  c #BC8305",
"V  c #B48D05",
"C  c #B98B05",
"Z  c #B79205",
"A  c #B99405",
"S  c #BC9905",
"D  c #C68E04",
"F  c #C88F04",
"G  c #C69104",
"H  c #CC9304",
"J  c #C29F05",
"K  c #CA9F04",
"L  c #D39A03",
"P  c #DC9F03",
"I  c #FF8200",
"U  c #FF8C00",
"Y  c #E69602",
"T  c #EE9901",
"R  c #F39001",
"E  c #FF9300",
"W  c #FF9D00",
"Q  c #C6A504",
"!  c #C9A104",
"~  c #C9A904",
"^  c #D4A303",
"/  c #DBA203",
"(  c #D5AB03",
")  c #DCAE03",
"_  c #D3B403",
"`  c #D3B803",
"'  c #DABD03",
"]  c #E9A302",
"[  c #E4AC02",
"{  c #FFAC00",
"}  c #E1B102",
"|  c #ECB501",
" . c #E6BD02",
".. c #F4B301",
"X. c #FEB400",
"o. c #F2BB01",
"O. c #FFBB00",
"+. c #EFBD19",
"@. c #C99825",
"#. c #DCC303",
"$. c #E5C102",
"%. c #EEC301",
"&. c #E4CB02",
"*. c #F3C301",
"=. c #FDC600",
"-. c #F5C801",
";. c #FFC900",
":. c #FFCA0B",
">. c #E7D202",
",. c #ECD302",
"<. c #EEDB01",
"1. c #F4D401",
"2. c #FFD400",
"3. c #F1DE01",
"4. c #FEDC00",
"5. c #FFCC14",
"6. c #F4E201",
"7. c #FFE300",
"8. c #FDEC00",
"9. c #FFF200",
"0. c #B38740",
"q. c #BA9046",
"w. c #AA8256",
"e. c #C69F50",
"r. c #CBA454",
"t. c #FCD853",
"y. c #FDDA58",
"u. c #EAC964",
"i. c #FADB69",
"p. c #E8CA73",
"a. c #F6DB79",
"s. c #FADF7C",
"d. c None",
/* pixels */
"d.d.d.d.d.d.d.d.d.d.d.d.d.d.d.d.d.d.d.d.d.d.d.d.d.d.d.d.d.d.d.d.d.d.d.d.d.d.d.d.d.d.d.d.d.d.d.d.d.d.d.d.d.d.d.d.d.d.d.d.d.d.d.d.",
"d.d.d.d.d.d.d.d.d.d.d.d.d.d.d.d.d.d.d.d.d.d.d.d.d.d.d.d.d.d.d.d.d.d.d.d.d.d.d.d.d.d.d.d.d.d.d.d.d.d.d.d.d.d.d.d.d.d.d.d.d.d.d.d.",
"d.d.d.d.d.d.d.d.d.d.d.d.d.d.d.d.d.d.d.d.d.d.d.d.d.. . . . . . . . . . . . . . d.d.d.d.d.d.d.d.d.d.d.d.d.d.d.d.d.d.d.d.d.d.d.d.d.",
"d.d.d.d.d.d.d.d.d.d.d.d.d.d.d.d.d.d.d.d.d.d.d.. . . . . . . . . . . . . . . . . . d.d.d.d.d.d.d.d.d.d.d.d.d.d.d.d.d.d.d.d.d.d.d.",
"d.d.d.d.d.d.d.d.d.d.d.d.d.d.d.d.d.d.d.d.d.d.. . . . . . . . . . . . . . . . . . . . d.d.d.d.d.d.d.d.d.d.d.d.d.d.d.d.d.d.d.d.d.d.",
"d.d.d.d.d.d.d.d.d.d.d.d.d.d.d.d.d.d.d.d.d.. . . . . . . . . . . . . . . . . . . . . . d.d.d.d.d.d.d.d.d.d.d.d.d.d.d.d.d.d.d.d.d.",
"d.d.d.d.d.d.d.d.d.d.d.d.d.d.d.d.d.d.d.d.. . . . . . . o + # . . . . . . . . . . . . . . d.d.d.d.d.d.d.d.d.d.d.d.d.d.d.d.d.d.d.d.",
"d.d.d.d.d.d.d.d.d.d.d.d.d.d.d.d.d.d.d.. . . . . . + w P o.G o . . .   , 0.f O . . . . . . d.d.d.d.d.d.d.d.d.d.d.d.d.d.d.d.d.d.d.",
"d.d.d.d.d.d.d.d.d.d.d.d.d.d.d.d.d.d.d.. . . . . # G =.;.%.> . . . . + @.i.a.e., . . . . . d.d.d.d.d.d.d.d.d.d.d.d.d.d.d.d.d.d.d.",
"d.d.d.d.d.d.d.d.d.d.d.d.d.d.d.d.d.d.. . . .   o H ;.;.;.C . . . . X D =.5.t.s.r.O . . . . . d.d.d.d.d.d.d.d.d.d.d.d.d.d.d.d.d.d.",
"d.d.d.d.d.d.d.d.d.d.d.d.d.d.d.d.d.. . . X . . D ;.;.;.$.= . . . . w *.;.=.:.y.s.q.X . . . . . d.d.d.d.d.d.d.d.d.d.d.d.d.d.d.d.d.",
"d.d.d.d.d.d.d.d.d.d.d.d.d.d.d.d.d.. . . . . 7 o.;.=.2.V . . . . # [ ;.=.=.=.+.u.p.d . . . . . d.d.d.d.d.d.d.d.d.d.d.d.d.d.d.d.d.",
"d.d.d.d.d.d.d.d.d.d.d.d.d.d.d.d.d.. . . . o L ;.;.;.,.; . . . . p =.=.;.[ w $ , s w.O . . . . d.d.d.d.d.d.d.d.d.d.d.d.d.d.d.d.d.",
"d.d.d.d.d.d.d.d.d.d.d.d.d.d.d.d.. . . .   0 *.=.;.4.~ . . . . # [ ;.;.[ - . .     O X . . . . . d.d.d.d.d.d.d.d.d.d.d.d.d.d.d.d.",
"d.d.d.d.d.d.d.d.d.d.d.d.d.d.d.d.. . . . o ^ 2.2.7.8.r . . . . t =.;.| : .   X X . . . . . . . . d.d.d.d.d.d.d.d.d.d.d.d.d.d.d.d.",
"d.d.d.d.d.d.d.d.d.d.d.d.d.d.d.. . . . . > 3.8.9.9.>.# . . . . L ;.;.a . . & k c 3 X . . . . . . . d.d.d.d.d.d.d.d.d.d.d.d.d.d.d.",
"d.d.d.d.d.d.d.d.d.d.d.d.d.d.d.. . . . . A 9.9.9.9.Q . . . . - | ;.[ # . @ b I I I 4 . . . . . . . d.d.d.d.d.d.d.d.d.d.d.d.d.d.d.",
"d.d.d.d.d.d.d.d.d.d.d.d.d.d.d.. . . . o #.9.9.9.8.N . . .   t ;.=.a . . h I I I I m * . . . . . . d.d.d.d.d.d.d.d.d.d.d.d.d.d.d.",
"d.d.d.d.d.d.d.d.d.d.d.d.d.d.d.. . . . ; 6.9.8.9.6.> . . . o G ;.o.- . & m I I I I I h . . . . . X d.d.d.d.d.d.d.d.d.d.d.d.d.d.d.",
"d.d.d.d.d.d.d.d.d.d.d.d.d.d.. . . . . u 8.9.9.9.#.o . . . o [ ;.L X . g I I I I I I m @ . . . . . . d.d.d.d.d.d.d.d.d.d.d.d.d.d.",
"d.d.d.d.d.d.d.d.d.d.d.d.d.d.. . . . . Q 9.9.9.9.~ X . . . : o.;.t   + b I I E W W U I 2 . . . . . . d.d.d.d.d.d.d.d.d.d.d.d.d.d.",
"d.d.d.d.d.d.d.d.d.d.d.d.d.d.. . . . o #.9.9.9.9.V   . . . w ;.o.: . * m I { =.=.=.X.W z X . . . . . d.d.d.d.d.d.d.d.d.d.d.d.d.d.",
"d.d.d.d.d.d.d.d.d.d.d.d.d.d.. X . . = <.9.9.9.8.y   . . . B ;.[ +   3 I { ;.;.=.;.;.4.] + . . . . . d.d.d.d.d.d.d.d.d.d.d.d.d.d.",
"d.d.d.d.d.d.d.d.d.d.d.d.d.d.. . . . 8 6.9.9.9.6.7 . . . . H ;.L X X h W =.=.;.;.2.7.9.1.> . . . . . d.d.d.d.d.d.d.d.d.d.d.d.d.d.",
"d.d.d.d.d.d.d.d.d.d.d.d.d.d.. . . . y 8.9.4.7.3.= . . . o / ;.B . X v O.;.;.;.2.8.9.9.8.u   . . . . d.d.d.d.d.d.d.d.d.d.d.d.d.d.",
"d.d.d.d.d.d.d.d.d.d.d.d.d.. . . .   V 9.7.;.7.&.o . . . + | 2.u   + T =.;.;.7.9.9.9.9.9.A   . . . . . d.d.d.d.d.d.d.d.d.d.d.d.d.",
"d.d.d.d.d.d.d.d.d.d.d.d.d.. . . .   S 9.2.=.7.#.o . . . = o.1.9   : X.;.2.8.8.9.9.9.9.9.Q . . . . . . d.d.d.d.d.d.d.d.d.d.d.d.d.",
"d.d.d.d.d.d.d.d.d.d.d.d.d.. . . . o Q 7.;.=.7.` o . . . : -.6.7   > *.4.8.9.9.9.9.9.9.9._ o . . . . . d.d.d.d.d.d.d.d.d.d.d.d.d.",
"d.d.d.d.d.d.d.d.d.d.d.d.d.. . . . o _ 4.=.=.7.~ . . . . 7 4.3.;   r 7.9.9.9.9.9.9.9.7.2.) o . . . . . d.d.d.d.d.d.d.d.d.d.d.d.d.",
"d.d.d.d.d.d.d.d.d.d.d.d.d.. . .   o ` ;.=.;.7.Q o . . . 6 6.3.#   N 8.9.9.9.9.8.8.7.;.;.[ o . . . . . d.d.d.d.d.d.d.d.d.d.d.d.d.",
"d.d.d.d.d.d.d.d.d.d.d.d.d.. . .   o ~ 2.;.=.7.~ . . . . r 8.<.=   N 9.9.9.9.9.9.7.;.;.;.[ + . . . . . d.d.d.d.d.d.d.d.d.d.d.d.d.",
"d.d.d.d.d.d.d.d.d.d.d.d.d.. . . . o ^ ;.;.;.7.~ . . . . 9 8.<.#   N 8.9.9.9.9.8.2.;.;.;.[ + . . . . X d.d.d.d.d.d.d.d.d.d.d.d.d.",
"d.d.d.d.d.d.d.d.d.d.d.d.d.. . X   o ^ ;.;.;.7.Q o . .   9 8.6.=   N 9.9.9.9.9.7.;.;.=.;.[ + . . . . . d.d.d.d.d.d.d.d.d.d.d.d.d.",
"d.d.d.d.d.d.d.d.d.d.d.d.d.. . . . o L ;.=.;.4.~ . . . . 9 8.3.o   N 8.9.9.9.8.2.=.;.;.;.[ o . . . . . d.d.d.d.d.d.d.d.d.d.d.d.d.",
"d.d.d.d.d.d.d.d.d.d.d.d.d.. . . . X L ;.;.=.7.~ . . . . 9 8.3.=   N 8.9.9.9.8.;.=.;.;.;.[ + . . . . . d.d.d.d.d.d.d.d.d.d.d.d.d.",
"d.d.d.d.d.d.d.d.d.d.d.d.d.. . . . X L ;.;.=.4.Q o . . . 8 6.3.;   y 8.9.9.9.4.=.;.;.;.;./ o . . . . . d.d.d.d.d.d.d.d.d.d.d.d.d.",
"d.d.d.d.d.d.d.d.d.d.d.d.d.. . . . X F ;.;.=.2._ o . .   7 6.6.7   6 8.9.9.8.2.;.=.;.;.;.L X . . . . . d.d.d.d.d.d.d.d.d.d.d.d.d.",
"d.d.d.d.d.d.d.d.d.d.d.d.d.. . . . . B ;.;.;.2.' o   .   ; 6.6.9   7 6.9.9.8.;.;.;.;.=.;.G X . . . . . d.d.d.d.d.d.d.d.d.d.d.d.d.",
"d.d.d.d.d.d.d.d.d.d.d.d.d.. . . .   a ;.;.;.2.&.o . . . # ,.9.N   # <.9.9.7.;.;.;.=.;.;.a . . . . . . d.d.d.d.d.d.d.d.d.d.d.d.d.",
"d.d.d.d.d.d.d.d.d.d.d.d.d.d.. . . . q *.;.;.;.,.= . . . o #.9.S . o #.9.9.7.;.;.;.=.;.=.w   . . . . d.d.d.d.d.d.d.d.d.d.d.d.d.d.",
"d.d.d.d.d.d.d.d.d.d.d.d.d.d.. . .   > o.;.;.;.1.7   . . X ~ 9.~ . o ~ 9.9.4.;.;.=.=.;.*.> . . . . . d.d.d.d.d.d.d.d.d.d.d.d.d.d.",
"d.d.d.d.d.d.d.d.d.d.d.d.d.d.. . . . # o.;.=.=.2.y   . . . S 9. .o . Z 9.9.2.=.;.;.;.=.| + . . . . . d.d.d.d.d.d.d.d.d.d.d.d.d.d.",
"d.d.d.d.d.d.d.d.d.d.d.d.d.d.. . . . o P ;.;.=.2.V   . . . u 8.-.;   8 6.9.4.=.;.=.;.;.H X . . . . . d.d.d.d.d.d.d.d.d.d.d.d.d.d.",
"d.d.d.d.d.d.d.d.d.d.d.d.d.d.. . . . . x =.;.;.;.K o . . . > 3.;.i . o >.9.2.;.=.;.;.=.i . . . . . . d.d.d.d.d.d.d.d.d.d.d.d.d.d.",
"d.d.d.d.d.d.d.d.d.d.d.d.d.d.. . . . . 2 X.=.=.;.} + . . . # &.;.L X . J 9.4.;.;.;.;.o.$ . . . . . . d.d.d.d.d.d.d.d.d.d.d.d.d.d.",
"d.d.d.d.d.d.d.d.d.d.d.d.d.d.d.. . . . @ R =.;.;.o.- . . . X ! 2.o.=   7 6.4.=.;.=.;.H X . . . . X d.d.d.d.d.d.d.d.d.d.d.d.d.d.d.",
"d.d.d.d.d.d.d.d.d.d.d.d.d.d.d.. . . . X c { ;.;.=.r   . . . t ;.=.a . X ~ 7.=.;.;.o.> . . . . . . d.d.d.d.d.d.d.d.d.d.d.d.d.d.d.",
"d.d.d.d.d.d.d.d.d.d.d.d.d.d.d.. . . . . 4 E O.;.;.G . . . . = o.;.[ # . - $.;.;.=.a . . . . . . . d.d.d.d.d.d.d.d.d.d.d.d.d.d.d.",
"d.d.d.d.d.d.d.d.d.d.d.d.d.d.d.. . . X . & m { =.=.| + . . . X L ;.=.a   . > L [ p o . . . . . . . d.d.d.d.d.d.d.d.d.d.d.d.d.d.d.",
"d.d.d.d.d.d.d.d.d.d.d.d.d.d.d.d.. . . . X k I { =.*.0   . . . q =.=.%.7 .   X o . . . . . . . . d.d.d.d.d.d.d.d.d.d.d.d.d.d.d.d.",
"d.d.d.d.d.d.d.d.d.d.d.d.d.d.d.d.. . . .   < M U X.=.F . . .   # [ ;.8.&.; . . . . X X . . . . . d.d.d.d.d.d.d.d.d.d.d.d.d.d.d.d.",
"d.d.d.d.d.d.d.d.d.d.d.d.d.d.d.d.d.. . . . X k I U X.o.: . . . . i 2.8.9. .q # + 5 t o . . . . d.d.d.d.d.d.d.d.d.d.d.d.d.d.d.d.d.",
"d.d.d.d.d.d.d.d.d.d.d.d.d.d.d.d.d.. . . . . % m I U O.a . . . . # $.9.8.2.*.o.o.| 5 . . . . . d.d.d.d.d.d.d.d.d.d.d.d.d.d.d.d.d.",
"d.d.d.d.d.d.d.d.d.d.d.d.d.d.d.d.d.. . . . . . g I I U Y + . . . . u 8.7.;.=.=.=.B . . . . . X d.d.d.d.d.d.d.d.d.d.d.d.d.d.d.d.d.",
"d.d.d.d.d.d.d.d.d.d.d.d.d.d.d.d.d.d.. . . . . X j I I I e . . . . o J 2.;.;.;.H + . . . . . d.d.d.d.d.d.d.d.d.d.d.d.d.d.d.d.d.d.",
"d.d.d.d.d.d.d.d.d.d.d.d.d.d.d.d.d.d.d.. . . . . + h M I n & . . . . o H =.=.H # . . . . . d.d.d.d.d.d.d.d.d.d.d.d.d.d.d.d.d.d.d.",
"d.d.d.d.d.d.d.d.d.d.d.d.d.d.d.d.d.d.d.. . . X . . X 1 l n h X . . . . + p w o . . . . . . d.d.d.d.d.d.d.d.d.d.d.d.d.d.d.d.d.d.d.",
"d.d.d.d.d.d.d.d.d.d.d.d.d.d.d.d.d.d.d.d.. . . . . . . X + + . . . . . . .   . . . . . . d.d.d.d.d.d.d.d.d.d.d.d.d.d.d.d.d.d.d.d.",
"d.d.d.d.d.d.d.d.d.d.d.d.d.d.d.d.d.d.d.d.d.. . . . . . .   . . . . . . . . . . . . . . d.d.d.d.d.d.d.d.d.d.d.d.d.d.d.d.d.d.d.d.d.",
"d.d.d.d.d.d.d.d.d.d.d.d.d.d.d.d.d.d.d.d.d.d.. . . . . . . . . X . . . . . . . . . . d.d.d.d.d.d.d.d.d.d.d.d.d.d.d.d.d.d.d.d.d.d.",
"d.d.d.d.d.d.d.d.d.d.d.d.d.d.d.d.d.d.d.d.d.d.d.. . . . . . . . . . . . . . . . . . d.d.d.d.d.d.d.d.d.d.d.d.d.d.d.d.d.d.d.d.d.d.d.",
"d.d.d.d.d.d.d.d.d.d.d.d.d.d.d.d.d.d.d.d.d.d.d.d.d.. . . . . . . . . . . . . . d.d.d.d.d.d.d.d.d.d.d.d.d.d.d.d.d.d.d.d.d.d.d.d.d.",
"d.d.d.d.d.d.d.d.d.d.d.d.d.d.d.d.d.d.d.d.d.d.d.d.d.d.d.d.d.d.d.d.d.d.d.d.d.d.d.d.d.d.d.d.d.d.d.d.d.d.d.d.d.d.d.d.d.d.d.d.d.d.d.d.",
"d.d.d.d.d.d.d.d.d.d.d.d.d.d.d.d.d.d.d.d.d.d.d.d.d.d.d.d.d.d.d.d.d.d.d.d.d.d.d.d.d.d.d.d.d.d.d.d.d.d.d.d.d.d.d.d.d.d.d.d.d.d.d.d."
};
