/* XPM */
static char *result[] = {
/* columns rows colors chars-per-pixel */
"64 64 146 2 ",
"   c #73370A",
".  c #753A0A",
"X  c #793E0A",
"o  c #7C420A",
"O  c #7C4210",
"+  c #804409",
"@  c #8A4509",
"#  c #844B09",
"$  c #894D09",
"%  c #984C08",
"&  c #865109",
"*  c #8B5408",
"=  c #8E5B08",
"-  c #915508",
";  c #955C08",
":  c #985E08",
">  c #824A15",
",  c #854E18",
"<  c #A35207",
"1  c #A25A07",
"2  c #AF5A06",
"3  c #B15906",
"4  c #9C6307",
"5  c #9B6B07",
"6  c #966608",
"7  c #986808",
"8  c #9E7007",
"9  c #9D6719",
"0  c #AF6406",
"q  c #A56C06",
"w  c #A37507",
"e  c #AE7406",
"r  c #A57A06",
"t  c #AF7D06",
"y  c #B47A06",
"u  c #8F5A20",
"i  c #956226",
"p  c #9D6B2C",
"a  c #AD7F3A",
"s  c #C46304",
"d  c #D46D03",
"f  c #C67504",
"g  c #E47402",
"h  c #EB7801",
"j  c #F47C01",
"k  c #F97F00",
"l  c #AF8606",
"z  c #BF8605",
"x  c #B38C06",
"c  c #BF8D05",
"v  c #BF9C05",
"b  c #B0833D",
"n  c #BD913E",
"m  c #C58C04",
"M  c #C19705",
"N  c #CC9304",
"B  c #C39D05",
"V  c #CB9408",
"C  c #D29A03",
"Z  c #E18502",
"A  c #E68B02",
"S  c #FF8200",
"D  c #FF8B00",
"F  c #E39302",
"G  c #F49501",
"H  c #FE9300",
"J  c #FF9D00",
"K  c #C6A604",
"L  c #CCAD04",
"P  c #DAA303",
"I  c #D4A803",
"U  c #D0B303",
"Y  c #D4B903",
"T  c #D9BF03",
"R  c #E3AB02",
"E  c #FFA200",
"W  c #FFAD00",
"Q  c #E3B302",
"!  c #ECB501",
"~  c #EFB901",
"^  c #FFB300",
"/  c #F4BC01",
"(  c #FFBB00",
")  c #EFBD14",
"_  c #CF9E27",
"`  c #EFBE22",
"'  c #DBC103",
"]  c #E1C202",
"[  c #EDC401",
"{  c #E3CC02",
"}  c #EDCE01",
"|  c #EFC508",
" . c #F7C001",
".. c #FDC500",
"X. c #F0CE01",
"o. c #FFC800",
"O. c #F7C10A",
"+. c #FFCB0B",
"@. c #E6D002",
"#. c #EBD401",
"$. c #EEDA01",
"%. c #F4D201",
"&. c #FED300",
"*. c #F0DD01",
"=. c #FFDB00",
"-. c #FECC13",
";. c #FECD1C",
":. c #F5E301",
">. c #FFE300",
",. c #FEEC00",
"<. c #FFF100",
"1. c #FECF25",
"2. c #F3C529",
"3. c #FED12D",
"4. c #EDC133",
"5. c #FDD132",
"6. c #FED53F",
"7. c #BC9247",
"8. c #BC9248",
"9. c #C49C4D",
"0. c #C49D50",
"q. c #D6AF4D",
"w. c #CAA453",
"e. c #CEA957",
"r. c #D2AD59",
"t. c #D6B25F",
"y. c #E4BB42",
"u. c #E0BA50",
"i. c #E0BE66",
"p. c #FED641",
"a. c #FCD64C",
"s. c #F3CE50",
"d. c #FCD856",
"f. c #FCD959",
"g. c #E2C26A",
"h. c #E8C96E",
"j. c #F2D266",
"k. c #FBDB66",
"l. c #FBDC6A",
"z. c #EBCD72",
"x. c #F1D475",
"c. c #FCDF74",
"v. c #F5D979",
"b. c #FADF7C",
"n. c #FBE07D",
"m. c None",
/* pixels */
"m.m.m.m.m.m.m.m.m.m.m.m.m.m.m.m.m.m.m.m.m.m.m.m.m.m.m.m.m.m.m.m.m.m.m.m.m.m.m.m.m.m.m.m.m.m.m.m.m.m.m.m.m.m.m.m.m.m.m.m.m.m.m.m.",
"m.m.m.m.m.m.m.m.m.m.m.m.m.m.m.m.m.m.m.m.m.m.m.m.m.m.m.m.m.m.m.m.m.m.m.m.m.m.m.m.m.m.m.m.m.m.m.m.m.m.m.m.m.m.m.m.m.m.m.m.m.m.m.m.",
"m.m.m.m.m.m.m.m.m.m.m.m.m.m.m.m.m.m.m.m.m.m.m.m.m.m.. . . . . . . . . o . . m.m.m.m.m.m.m.m.m.m.m.m.m.m.m.m.m.m.m.m.m.m.m.m.m.m.",
"m.m.m.m.m.m.m.m.m.m.m.m.m.m.m.m.m.m.m.m.m.m.. . . . X . . . . . . . . . . . . . . . m.m.m.m.m.m.m.m.m.m.m.m.m.m.m.m.m.m.m.m.m.m.",
"m.m.m.m.m.m.m.m.m.m.m.m.m.m.m.m.m.m.m.m.. . . . . . . . . . . . . . . . . . . . . . . . m.m.m.m.m.m.m.m.m.m.m.m.m.m.m.m.m.m.m.m.",
"m.m.m.m.m.m.m.m.m.m.m.m.m.m.m.m.m.m.. . . . . . . . . . . . .   . . . . . . . . . . . . . . m.m.m.m.m.m.m.m.m.m.m.m.m.m.m.m.m.m.",
"m.m.m.m.m.m.m.m.m.m.m.m.m.m.m.m.. . . . . . . . . . . . o > > , > , O O . . . . . . X . . . . . m.m.m.m.m.m.m.m.m.m.m.m.m.m.m.m.",
"m.m.m.m.m.m.m.m.m.m.m.m.m.m.. . . . . X . .   . > i b 9.t.g.z.z.x.h.g.t.w.b i > . . . . . . . . . . m.m.m.m.m.m.m.m.m.m.m.m.m.m.",
"m.m.m.m.m.m.m.m.m.m.m.m.m.. . . . . . .   O i 7.i.x.b.n.c.k.f.a.p.6.6.6.p.a.s.u.n i o   . . . . . . . m.m.m.m.m.m.m.m.m.m.m.m.m.",
"m.m.m.m.m.m.m.m.m.m.m.m.. . . . . . . o p e.x.n.n.l.a.5.;.+.+.o.o.o.o.o.o.o.+.+.;.2._ 9 X . . X . . . . m.m.m.m.m.m.m.m.m.m.m.m.",
"m.m.m.m.m.m.m.m.m.m.m.. . . . .   . u w.x.n.v.d.5.-.o.o.o.o.o.o.o.o.o.o.o.o.o.o.o.o.o.O.V *     . X . . . m.m.m.m.m.m.m.m.m.m.m.",
"m.m.m.m.m.m.m.m.m.m.. . X . . . o b h.n.b.d.1.+.o.o.o...../ / ! ! ~ /  .o.o.o.o.o.o.o.o.o.! t o . . . . . X m.m.m.m.m.m.m.m.m.m.",
"m.m.m.m.m.m.m.m.m.. . . . . . > 9.v.n.k.3.+.o.o...~ C y q $ + + # # - 4 y C ! ..o.o.o.o.o.o.&.K # . . . . . . m.m.m.m.m.m.m.m.m.",
"m.m.m.m.m.m.m.m.. . . . . . , r.n.v.a.+...o...P w $ .       . .           X $ e P ..o.o.o.o.,.<.Y & . . . . . . m.m.m.m.m.m.m.m.",
"m.m.m.m.m.m.m.. . . . . . , r.n.c.5.+.o...R q +   . . .   X X + o X X .   .     o w R o.&.>.<.<.<.Y & . . . . . X m.m.m.m.m.m.m.",
"m.m.m.m.m.m.m.X . . . . > r.n.l.1.o.o./ z #   . . . @ < s d g g g g d s < @ . .     + m :.<.<.<.<.<.Y # . . . . . m.m.m.m.m.m.m.",
"m.m.m.m.m.m.. . . . . o 0.b.k.;.o.o.~ q X . . . % s h S S S S S S S S S S h s % X .   X r $.<.<.<.<.<.K o   . . . . m.m.m.m.m.m.",
"m.m.m.m.m.m.. . . . . b v.l.1.o.o.Q : .   . @ s j S S S S S S S S S S S S S S j s @ . . . 5 @.<.,.>.=.%.e . . . . . m.m.m.m.m.m.",
"m.m.m.m.m.. . . .   u h.v.3...o.! : . . . < h S S S S S S S S S S S S S S S S S S g < . .   7 [ o.o.o.o.! - . . . . . m.m.m.m.m.",
"m.m.m.m.m.. . . . X w.n.6.o.o. .q . . X 3 j S S S S S S S S S k S S k S S S S S S S j 2 X . . q  .o.o.o.o.N o . . . . m.m.m.m.m.",
"m.m.m.m.. X . .   p x.f.+.....m o . . 3 k S S S S S S S S D H J J J J J H D S S S S D H 0 . . X z o.o.o.o. .4   . . . . m.m.m.m.",
"m.m.m.m.. . . . o w.c.;.....R #   . < j S S S S S S H E ^ ........o...o.....^ E H H H J G 1 . . # P o.o.o.o.C X . . . . m.m.m.m.",
"m.m.m.. . . . . i x.p.o.o...w     @ g S S S S S H W ..o.o.o.o.o.o.o.o.o.o.o.&.=.>.&.( J J A @ . . w ..o.o.o./ ; . . . X . m.m.m.",
"m.m.m.. . . . . 8.l.-.o.o.P o . . s S S S S D W ..o...o.o.o.o.o.o.o.o.o.&.>.,.<.<.<.,.o.W J f . . o P o.o.o.o.z . . . . . m.m.m.",
"m.m.m.. . . . O g.6.o.o...e     % j S S S J ( o.o.o.o.o.o...o.o.&.=.>.,.<.<.<.<.<.<.<.<.>.( G -   . e ..o.o.o.Q # . . o   m.m.m.",
"m.m.m.. .   . i j.-.o.o.! $   . s D S S J ..o.o...o.o.o.&.&.=.,.,.<.<.<.<.<.<.<.<.<.<.<.,.,...f . . & ! o.o.=.:.7   . . . m.m.m.",
"m.m.X .       7.d.o.o.o.C X . @ h S S E ..o...o.o.&.=.>.,.,.<.<.<.<.<.<.<.<.<.,.<.<.<.<.<.<.,.! @ . X C o.=.<.<.x   . . . . m.m.",
"m.m.. .       0.3.o.o.o.y   . < S S J ..o.&.=.>.,.<.<.<.<.<.<.<.<.<.<.<.<.<.<.<.<.<.<.,.,.<.<.,.w     y =.<.<.<.K . . . . . m.m.",
"m.m.. . . . O t.-.o.o. .5 . . s S H o.=.,.,.<.<.<.<.<.<.<.<.<.<.<.<.<.<.<.<.,.>.=.=.&.&.&.=.>.,.K     5 :.<.<.<.' o . . . . m.m.",
"m.m.. . . . O ` +.o.o.%.=   X d H &.,.<.<.<.<.<.<.<.<.<.<.<.<.<.<.<.<.<.,.>.&.o.o.....o.o...o.&.I o   = :.<.<.<.@.# . . . . m.m.",
"m.m.. . . . , 4.o.o.,.*.#   o Z ..<.<.<.<.<.<.<.<.<.<.<.<.<.<.<.<.<.<.>.&.o.o.o.o.o.o.o.o.o.o.o.R o   & *.<.<.<.*.& . . . . m.m.",
"m.m.. . . . > 2.o.>.<.*.# . + F >.<.<.<.<.<.<.,.<.<.<.<.,.<.<.<.<.,.=.o.o.o.o.o.o.o...o.o.o.o.o.R #   # *.<.<.,.#.# . . . . m.m.",
"m.m.. . .   > ) =.<.<.$.#   + Y <.<.<.<.<.<.<.<.<.<.<.<.<.<.<.<.,.&.o.o.o.o.o.o.o.o.o...o.o.o.o.R + . & :.<.,.=.~ # . . . . m.m.",
"m.m.. . .   # } <.<.<.$.& . + ' <.<.<.<.<.<.<.<.<.<.<.,.<.<.<.,.&.o.o.o...o.o.o.o...o.o.o.o.o.o.R o   & $.,.=.o.! # . . . . m.m.",
"m.m.. . .   o @.<.<.<.:.=   o U <.<.<.<.<.<.<.<.<.<.<.<.<.<.,.&.o.o.o.o.o.o.o...o.o.o.o.o.o.o.o.C o   = *.&.o.o.R + . . . . m.m.",
"m.m.. . . . o ' <.<.<.,.8     v <.<.,.<.<.<.<.,.<.<.<.<.<.<.=.o.o.o.o...o.o.o.o.o.o.o...o...o.o.m .   5 ..o.o.o.P + . . . . m.m.",
"m.m.. .     o K <.<.<.<.x     l ,.<.<.<.<.<.<.<.<.<.<.,.,.>.o.o.o.o...o...o.o.o.o.o.o.o.o.o.....q     y ..o.o.o.m X . . . . m.m.",
"m.m.. . o     l <.<.<.<.U o   & $.<.<.<.<.<.<.<.<.<.<.<.,.&.o.o.o.o.o.o.o.o...o...o.o.o.o.o.o.! #   X C o.o.o.o.y . . . . . m.m.",
"m.m.m..       8 :.<.<.<.@.&   o K <.<.<.<.<.<.<.<.<.<.<.>.o...o.o...o.o...o.o.o.o.o...o.o.o.o.m . . $ ! o.o.o. .:   . . X m.m.m.",
"m.m.m.o o . . o @.<.<.<.<.l     7 :.<.<.<.<.<.<.<.<.<.,.&.o.o.o.o.o.o.o.o.o.o.o.o.o.o.o.o.o./ : .   e ..o.o.o.R o . . . . m.m.m.",
"m.m.m.. . . . . v <.<.<.<.' o   o K <.<.<.<.<.<.<.<.<.>.o.o.o.o.o.o...o.o.o.o.o...o.o.o.o.o.m X   o P o.o.o.o.z . . . . . m.m.m.",
"m.m.m.. . . . . 6 :.<.<.<.<.l o   & @.<.<.<.<.<.<.,.<.>.o.o.o.o.o.o.o.o...o.o.o.o.o.o.o.o.R & .   q ..o.o.o./ : . . . X . m.m.m.",
"m.m.m.m.. . . . o U <.<.<.<.' o .   8 :.<.<.<.<.<.<.<.=.o.o.o...o.o.o.o.o.o...o...o...o./ q . . # P o.o.o.o.C o . . . . m.m.m.m.",
"m.m.m.m.. . . . . 8 :.<.<.<.<.v o   o l :.<.<.<.<.<.<.=.o.o.o.o.o...o.o.o.o.o.o.o.o.o...e . . . m o.o.o.o. .4   . . . . m.m.m.m.",
"m.m.m.m.m.X . . . o L <.<.<.<.:.r . . . l :.<.<.<.<.<.=.o.o.o.o.o.o.o.o.o.o.o.o.o.o./ e X . . q  .o.o.o.o.N o . . . . m.m.m.m.m.",
"m.m.m.m.m.. . . .   = $.<.<.<.<.} 7     o 8 @.<.<.<.<.>.o.o.o.o...o.o.o.o.o.o.o.o.R q . .   4 ~ o.o.o.o.! -   . . . . m.m.m.m.m.",
"m.m.m.m.m.m.. . . . . l <.<.<.<.>.Q 6       = K :.<.<.,.o.o.o.o.o.o.o.o.o.o.o./ m & . . . 4 R o.o.o.o...e . . . . . m.m.m.m.m.m.",
"m.m.m.m.m.m.. . . . . o K <.<.<.=.o.~ 5 o     o 7 K $.,.=.o.o.o.o.o.o.o...Q m : X . . X q ! o.o.o.o...m o . . . X . m.m.m.m.m.m.",
"m.m.m.m.m.m.m.. . . . . & Y <.<.>.o.o. .z # . .   o & r v C R R R R C m q $ .   .   # z / o.o.o.o.o.P o . . . . . m.m.m.m.m.m.m.",
"m.m.m.m.m.m.m.. . . . . . & Y <.>.o.o.o...R q o           o o + o o o .     .   o q R ..o.o.o.o.o.C # . . . . . . m.m.m.m.m.m.m.",
"m.m.m.m.m.m.m.m.X . . . .   & Y ,.&.o.o.o.o...P w & o           .         o & e P ..o.o.o.o.o...C # . . . . . . m.m.m.m.m.m.m.m.",
"m.m.m.m.m.m.m.m.m.. . . . .   & K %.o.o.o...o.o...[ U x 8 = & # # # * 4 y C ~ ..o.o.o.o.o.o...m # . . . . X . m.m.m.m.m.m.m.m.m.",
"m.m.m.m.m.m.m.m.m.m.. . . . . . o t ! o.o.o.o.o.=.,.<.<.:.:.:.} ~ / /  .o.o.o.o.o.o.o.o.o.! e o . . . . . . m.m.m.m.m.m.m.m.m.m.",
"m.m.m.m.m.m.m.m.m.m.m.. . . . . . . - N  .o.o.=.,.<.<.<.<.<.>.&.o.o.o.o.o.o.o.o.o.o.o. .N = . . . . . . . m.m.m.m.m.m.m.m.m.m.m.",
"m.m.m.m.m.m.m.m.m.m.m.m.. . . . . . . X 5 C %.<.<.<.<.<.<.>.o.o.o.o.o.o.o.o.o.o.o. .C 4 o . . X . X . . m.m.m.m.m.m.m.m.m.m.m.m.",
"m.m.m.m.m.m.m.m.m.m.m.m.m.. . . . . . .   o 6 B @.:.<.<.=.o.o.o.o.o.o.o.o.o. .R z - o   . . . . . . . m.m.m.m.m.m.m.m.m.m.m.m.m.",
"m.m.m.m.m.m.m.m.m.m.m.m.m.m.o . . . . . . . . . # 7 x B P R ~ / ~ ~ R P N y ; + X   . . . . . . . . m.m.m.m.m.m.m.m.m.m.m.m.m.m.",
"m.m.m.m.m.m.m.m.m.m.m.m.m.m.m.m.. X . . . . . .       . o o # # # # + o .     . . . . . . . . . m.m.m.m.m.m.m.m.m.m.m.m.m.m.m.m.",
"m.m.m.m.m.m.m.m.m.m.m.m.m.m.m.m.m.m.. . X . . . . . X . . . . .   . . . . . . . . . . . . . m.m.m.m.m.m.m.m.m.m.m.m.m.m.m.m.m.m.",
"m.m.m.m.m.m.m.m.m.m.m.m.m.m.m.m.m.m.m.m.. . . . . . . . . . X . . . . . . . . . . . . X m.m.m.m.m.m.m.m.m.m.m.m.m.m.m.m.m.m.m.m.",
"m.m.m.m.m.m.m.m.m.m.m.m.m.m.m.m.m.m.m.m.m.m.. . . . . . . . . . . . . . . . . . . . m.m.m.m.m.m.m.m.m.m.m.m.m.m.m.m.m.m.m.m.m.m.",
"m.m.m.m.m.m.m.m.m.m.m.m.m.m.m.m.m.m.m.m.m.m.m.m.m.m.. . . . . . . . X . . . m.m.m.m.m.m.m.m.m.m.m.m.m.m.m.m.m.m.m.m.m.m.m.m.m.m.",
"m.m.m.m.m.m.m.m.m.m.m.m.m.m.m.m.m.m.m.m.m.m.m.m.m.m.m.m.m.m.m.m.m.m.m.m.m.m.m.m.m.m.m.m.m.m.m.m.m.m.m.m.m.m.m.m.m.m.m.m.m.m.m.m.",
"m.m.m.m.m.m.m.m.m.m.m.m.m.m.m.m.m.m.m.m.m.m.m.m.m.m.m.m.m.m.m.m.m.m.m.m.m.m.m.m.m.m.m.m.m.m.m.m.m.m.m.m.m.m.m.m.m.m.m.m.m.m.m.m."
};
