/* XPM */
static char *result[] = {
/* columns rows colors chars-per-pixel */
"64 64 167 2 ",
"   c #72370A",
".  c #753A0A",
"X  c #7A3E0A",
"o  c #7D430A",
"O  c #7F4809",
"+  c #7D4411",
"@  c #814409",
"#  c #884409",
"$  c #844B09",
"%  c #894E09",
"&  c #924908",
"*  c #984C08",
"=  c #865009",
"-  c #8D5308",
";  c #8D5A08",
":  c #9B5907",
">  c #915508",
",  c #945B08",
"<  c #834B16",
"1  c #864F19",
"2  c #8C561D",
"3  c #A25207",
"4  c #AD5806",
"5  c #AC5706",
"6  c #B45B06",
"7  c #B85D05",
"8  c #9E6407",
"9  c #9C6C07",
"0  c #946208",
"q  c #986908",
"w  c #946307",
"e  c #9F7207",
"r  c #97691A",
"t  c #A46B07",
"y  c #A86E06",
"u  c #BF6105",
"i  c #BF6E05",
"p  c #A47407",
"a  c #AC7206",
"s  c #A67A07",
"d  c #AC7B06",
"f  c #B07706",
"g  c #B67D05",
"h  c #844F22",
"j  c #8E5A26",
"k  c #9B6F23",
"l  c #9E6D30",
"z  c #A87628",
"x  c #A47432",
"c  c #AA7B35",
"v  c #C46304",
"b  c #C76C04",
"n  c #D76D03",
"m  c #DB6F03",
"M  c #DE7102",
"N  c #D17203",
"B  c #E57402",
"V  c #ED7901",
"C  c #F47C01",
"Z  c #FA7F00",
"A  c #9D7147",
"S  c #AC8306",
"D  c #B08105",
"F  c #BC8305",
"G  c #B48A06",
"H  c #B78B08",
"J  c #B79205",
"K  c #BA9605",
"L  c #BD9905",
"P  c #B79310",
"I  c #C48C04",
"U  c #CB9204",
"Y  c #C39104",
"T  c #D49C03",
"R  c #DD9C02",
"E  c #C99519",
"W  c #FF8200",
"Q  c #FF8900",
"!  c #E49002",
"~  c #FF9300",
"^  c #FF9C00",
"/  c #F29201",
"(  c #C5A404",
")  c #C8A704",
"_  c #CAAA04",
"`  c #DCA403",
"'  c #D3A903",
"]  c #CEB104",
"[  c #D4B603",
"{  c #D8B703",
"}  c #D7BB03",
"|  c #C7A91F",
" . c #DBA818",
".. c #D7B711",
"X. c #E3AC02",
"o. c #FFA400",
"O. c #FFAA00",
"+. c #E7B102",
"@. c #ECB401",
"#. c #E3BF02",
"$. c #EFB801",
"%. c #FFB300",
"&. c #F3BC01",
"*. c #FFB800",
"=. c #C29124",
"-. c #C9AD2B",
";. c #D1A63F",
":. c #DDC502",
">. c #E4CD02",
",. c #EFCE01",
"<. c #ECC20F",
"1. c #F4C201",
"2. c #FDC500",
"3. c #FFC900",
"4. c #FFCC0C",
"5. c #E7D102",
"6. c #EBD701",
"7. c #EEDA01",
"8. c #FFD300",
"9. c #F3DC02",
"0. c #FEDC00",
"q. c #F4D608",
"w. c #FECC16",
"e. c #FECD1C",
"r. c #F1DD1B",
"t. c #F5E301",
"y. c #FEE400",
"u. c #FEEC00",
"i. c #FFE708",
"p. c #FAE808",
"a. c #FFF200",
"s. c #F7E61D",
"d. c #FFF214",
"f. c #DCC525",
"g. c #EEC12F",
"h. c #FCCF30",
"j. c #F5CA37",
"k. c #FED43D",
"l. c #FFF334",
"z. c #B88D44",
"x. c #BC9246",
"c. c #B48E5D",
"v. c #B99974",
"b. c #C39B4D",
"n. c #C69E50",
"m. c #CEA959",
"M. c #DAB862",
"N. c #E0BF67",
"B. c #E6C04F",
"V. c #FED641",
"C. c #FDD84F",
"Z. c #FDD953",
"A. c #FFE855",
"S. c #E3C36A",
"D. c #FDDC66",
"F. c #FCDD6B",
"G. c #EACC71",
"H. c #F7DB7C",
"J. c #F9DE7A",
"K. c #F6D976",
"L. c #FCE075",
"P. c #FFF77B",
"I. c #ECD893",
"U. c #FEF59C",
"Y. c #DFCCA9",
"T. c #F3E7BD",
"R. c None",
/* pixels */
"R.R.R.R.R.R.R.R.R.R.R.R.R.R.R.R.R.R.R.R.R.R.R.R.R.R.R.R.R.R.R.R.R.R.R.R.R.R.R.R.R.R.R.R.R.R.R.R.R.R.R.R.R.R.R.R.R.R.R.R.R.R.R.R.",
"R.R.R.R.R.R.R.R.R.R.R.R.R.R.R.R.R.R.R.R.R.R.R.R.R.R.R.R.R.R.R.R.R.R.R.R.R.R.R.R.R.R.R.R.R.R.R.R.R.R.R.R.R.R.R.R.R.R.R.R.R.R.R.R.",
"R.R.R.R.R.R.R.R.R.R.R.R.R.R.R.R.R.R.R.R.R.R.R.R.. . . . . . . . . . . o . . . . R.R.R.R.R.R.R.R.R.R.R.R.R.R.R.R.R.R.R.R.R.R.R.R.",
"R.R.R.R.R.R.R.R.R.R.R.R.R.R.R.R.R.R.R.R.R.. . . X . . . . . . . . . . . . . . . . . . R.R.R.R.R.R.R.R.R.R.R.R.R.R.R.R.R.R.R.R.R.",
"R.R.R.R.R.R.R.R.R.R.R.R.R.R.R.R.R.R.R.. . . . . . . . . . . . . . . .   . . . . . . . . . R.R.R.R.R.R.R.R.R.R.R.R.R.R.R.R.R.R.R.",
"R.R.R.R.R.R.R.R.R.R.R.R.R.R.R.R.R.R.. . . . . . . . . . . . . . . . .   . . . . . . . . . . R.R.R.R.R.R.R.R.R.R.R.R.R.R.R.R.R.R.",
"R.R.R.R.R.R.R.R.R.R.R.R.R.R.R.R.. . . . . . . . . X . . X . . . . . o < 1 + X   . . . . . . . . R.R.R.R.R.R.R.R.R.R.R.R.R.R.R.R.",
"R.R.R.R.R.R.R.R.R.R.R.R.R.R.R.. . . . . . . . $ t 8 . . . . . . + l m.G.G.M.n.x 1 . . . . X . . . R.R.R.R.R.R.R.R.R.R.R.R.R.R.R.",
"R.R.R.R.R.R.R.R.R.R.R.R.R.R.. . . . . .   $ F +.T % . . . .   - E j.V.V.C.D.J.J.S.z.1 . . . . . . X R.R.R.R.R.R.R.R.R.R.R.R.R.R.",
"R.R.R.R.R.R.R.R.R.R.R.R.R.. . . . . . X t X.3.+.> . . . X . 8 X.3.3.3.3.3.4.e.k.D.J.M.x .   . . . . . R.R.R.R.R.R.R.R.R.R.R.R.R.",
"R.R.R.R.R.R.R.R.R.R.R.R.. . . . .   o F 2.3.1.q . . . . . y @.3.3.3.3.3.3.3.3.3.4.k.F.K.z.o   . . . . . R.R.R.R.R.R.R.R.R.R.R.R.",
"R.R.R.R.R.R.R.R.R.R.R.R.. . . .   O U 2.3.8.H . . . .   t &.3.3.3.3.3.3.&.&.@.@.&.3.e.Z.K.m.+   . . . . R.R.R.R.R.R.R.R.R.R.R.R.",
"R.R.R.R.R.R.R.R.R.R.R.. . . . . X I 3.3.8...$ . . . . , @.3.3.3.3.3.&.I 8 $ $ $ , g X.3.V.J.b.o . . . . . R.R.R.R.R.R.R.R.R.R.R.",
"R.R.R.R.R.R.R.R.R.R.. . . . . X g 2.3.3.r.r   . . . $ ` 3.3.3.2.2.T , .     .     X $ I 2.k.H.c.X . . . . . R.R.R.R.R.R.R.R.R.R.",
"R.R.R.R.R.R.R.R.R.R.. . . . . 8 &.3.3.0.| X . . . X F 3.3.3.3.3.U @   . . X @ X X     X a &.A.T.A . . . . . R.R.R.R.R.R.R.R.R.R.",
"R.R.R.R.R.R.R.R.R.. . . .   $ X.3.3.8.r.r . . .   , &.3.3.3.3.U @   . # 7 M B M v & X .   D p.P.Y.h . . . . . R.R.R.R.R.R.R.R.R.",
"R.R.R.R.R.R.R.R.R.. . . . . F 3.3.3.i.-.X . . . o T 3.3.3.3.` $ . . 3 B W W W W W C 6 X   o ( d.U.v.. . . . . R.R.R.R.R.R.R.R.R.",
"R.R.R.R.R.R.R.R.. . . . . > @.3.3.8.s.k   . .   8 2.3.3.3.&.8   . 3 C W W W W W W W Z u X   $ >.l.I.j . . . . . R.R.R.R.R.R.R.R.",
"R.R.R.R.R.R.R.R.. . . . . F 3.3.3.i.f.+ . . . o U 3.3.3.3.I X . & V W W W W W W W W W Z 4 .   s 8.V.x.. . . . . R.R.R.R.R.R.R.R.",
"R.R.R.R.R.R.R.R.. . . . % @.3.3.8.a.P . . . . - &.3.3.3.@.-   X n W W W W W W W Z W W W V &   O ` 4.B.1 . . . . R.R.R.R.R.R.R.R.",
"R.R.R.R.R.R.R.. . . .   a 3.3.3.0.t.0 . . . . g 3.3.3.3.U X . 5 Z W W W Q Q ^ ^ ^ ~ Q Z Q b X   t 3.h.c . . . . . R.R.R.R.R.R.R.",
"R.R.R.R.R.R.R.. . . . o T 3.3.3.u.:.O . . . o ` 3.3.3.&.8   o M W W Q ~ O.2.3.3.3.2.%.^ ~ / &   $ X.8.n.o . . . . R.R.R.R.R.R.R.",
"R.R.R.R.R.R.R.. . .   - @.3.3.8.a.( . . . . , &.3.3.3.X.@   3 Z W Q o.2.3.3.3.3.3.3.3.0.3.o.i . . I 3.g.2 . . . . R.R.R.R.R.R.R.",
"R.R.R.R.R.R.. . . .   y 3.3.3.0.u.S   . .   a 3.3.3.3.I . . v W W o.3.3.3.3.3.3.3.0.u.a.a.8.! o   t 2.w.z   . . X . R.R.R.R.R.R.",
"R.R.R.R.R.R.. . . . . I 3.3.3.u.t.0   . . . U 3.3.3.2.t   @ B Q o.3.3.3.3.3.3.0.y.a.a.a.a.u.3.:   = $.4.=.. . . . . R.R.R.R.R.R.",
"R.R.R.R.R.R.X . . . o ` 3.3.3.u.6.$ . .   O ` 3.3.8.,.;   * C ~ 2.3.3.3.3.0.u.u.a.a.a.a.a.a.u.G   o ` 3. .+ . . . . R.R.R.R.R.R.",
"R.R.R.R.R.R.. . . . $ @.3.3.8.a.:.o . .   $ @.3.8.u.5.$   6 Q *.3.3.3.y.u.a.a.a.a.a.a.u.a.a.a.] o   I 4.<.= . . . . R.R.R.R.R.R.",
"R.R.R.R.R.R.. . . . , &.3.3.8.a.] o . .   , 1.8.u.a.[ o   v o.3.8.y.u.a.a.a.u.a.a.a.a.a.a.u.a.>.O   g 8.t.0 . . . . R.R.R.R.R.R.",
"R.R.R.R.R.R.. . . . 8 2.3.3.0.a.(   . .   9 8.u.a.a.( . X N 3.y.u.a.a.a.a.a.a.a.a.a.u.y.8.8.0.,.=   p y.y.e   . . . R.R.R.R.R.R.",
"R.R.R.R.R.R.. . .   y 2.3.3.0.a.K   . .   s y.a.a.a.L   o R u.a.a.a.a.a.a.a.u.a.u.u.0.3.3.3.3.&.;   e y.u.S   . . . R.R.R.R.R.R.",
"R.R.R.R.R.. . . .   a 3.2.3.0.a.K   . .   S u.a.a.a.L   @ #.a.a.a.a.a.u.a.a.a.a.y.8.3.3.3.3.3.1.,   q t.a.S . . . . . R.R.R.R.R.",
"R.R.R.R.R.. . . . . f 3.3.2.0.a.K   . .   G a.a.a.a.L   $ >.a.a.a.a.a.a.a.a.a.u.8.2.3.3.3.3.3.1.8   0 t.a.S   . . . . R.R.R.R.R.",
"R.R.R.R.R.. . . X   f 3.3.3.y.a.J         S a.a.a.a.K   O >.a.a.a.a.u.a.a.a.a.0.3.2.3.3.2.3.3.2.8   , t.u.S   . . . . R.R.R.R.R.",
"R.R.R.R.R.. . . .   y 2.3.3.0.a.J   o o   S a.a.a.a.K   O >.a.a.u.a.a.a.a.a.y.3.3.3.3.3.3.3.3.&.,   q t.u.d   . . . . R.R.R.R.R.",
"R.R.R.R.R.R.. . .   y 2.3.3.0.a.K       . S a.a.a.a.K   O :.a.a.a.a.a.a.u.u.8.3.3.2.3.3.2.3.3.&.;   e y.8.y   . . . R.R.R.R.R.R.",
"R.R.R.R.R.R.. . .   t &.3.3.0.a.(     o   e t.a.a.a.( o o ] a.a.a.a.a.a.a.y.3.3.3.3.2.3.3.3.3.@.$   s 8.2.8 . . . . R.R.R.R.R.R.",
"R.R.R.R.R.R.. . . . , &.3.3.8.a.] o   o   0 t.a.a.a.} o . ( a.a.a.a.a.a.u.8.3.3.2.3.3.3.3.3.3.X.O   D 3.&., . . . . R.R.R.R.R.R.",
"R.R.R.R.R.R.. . . . $ @.3.3.8.a.:.o     o O 6.a.a.a.>.O   G a.a.a.a.a.a.u.3.3.3.3.3.3.2.3.3.3.T o   U 3.@.$ . . . . R.R.R.R.R.R.",
"R.R.R.R.R.R.. . .   o ` 3.3.3.u.7.O       O :.a.a.a.t.;   q u.a.u.a.a.a.0.3.3.3.3.3.3.2.3.3.3.g   O ` 3.` o . . . X R.R.R.R.R.R.",
"R.R.R.R.R.R.. . X   X I 3.3.3.y.t.;   o   o _ a.a.a.a.e . O 5.a.a.a.a.a.8.3.3.3.2.3.3.3.3.3.&.8   $ @.3.I . . . . . R.R.R.R.R.R.",
"R.R.R.R.R.R.. . . . . a 2.3.3.0.a.S . . .   S a.a.a.u.Y . . ( a.a.a.a.u.8.3.3.3.3.3.3.2.3.3.X.$   t 2.3.a   . . . . R.R.R.R.R.R.",
"R.R.R.R.R.R.R.. . . . - @.3.3.8.a.( . . . . 0 t.a.a.y.X.$   e y.a.a.a.u.3.3.3.3.2.3.3.3.3.3.F . . I 3.$.- . . X . R.R.R.R.R.R.R.",
"R.R.R.R.R.R.R.X . . . X T 3.3.3.t.:.O . .   o :.a.a.0.2.8   O :.a.a.a.u.3.3.3.3.2.3.3.3.3.&.,   $ +.3.T o   . . . R.R.R.R.R.R.R.",
"R.R.R.R.R.R.R.. . . . . a 3.3.3.t.t.q . . .   J a.u.8.3.U .   S u.a.a.y.3.3.3.3.3.3.3.2.3.I X   t 2.3.a   . . . . R.R.R.R.R.R.R.",
"R.R.R.R.R.R.R.R.. . . . $ @.3.3.8.a.K   . .   0 t.u.3.3.@.;   O } a.a.u.3.3.3.3.3.3.3.3.@.>   @ ` 3.+.$ . . . . R.R.R.R.R.R.R.R.",
"R.R.R.R.R.R.R.R.. . . . . F 3.3.3.y.:.O . .   o _ u.3.3.3.I X   0 7.a.a.3.3.3.3.2.3.3.2.a .   t 2.3.I . . . . . R.R.R.R.R.R.R.R.",
"R.R.R.R.R.R.R.R.. . X . . - $.3.3.8.t.e   . .   e 9.3.3.3.&.: .   s t.a.8.3.3.3.3.3.2.F X . $ X.3.@.-   . . . . R.R.R.R.R.R.R.R.",
"R.R.R.R.R.R.R.R.R.. . . . . D 3.3.3.y._ o . . . O ' 3.3.3.3.` $   o e :.y.3.3.3.3.@.g o . X I 3.3.F . . . . . R.R.R.R.R.R.R.R.R.",
"R.R.R.R.R.R.R.R.R.. . . . . $ X.3.3.8.9.0   . .   0 &.3.3.3.3.U O     - H ` X.` I , .   . f 1.3.X.$   . . . . R.R.R.R.R.R.R.R.R.",
"R.R.R.R.R.R.R.R.R.R.. . . .   8 &.3.3.0.( o . . . o F 3.3.3.3.2.U O .   . o @ o . . . X a &.3.&.8   . .   o R.R.R.R.R.R.R.R.R.R.",
"R.R.R.R.R.R.R.R.R.R.. . . . . . g 2.3.3.9.9   . . . $ ` 3.3.3.3.3.[ w . .         . $ I 2.3.2.g X . . . . . R.R.R.R.R.R.R.R.R.R.",
"R.R.R.R.R.R.R.R.R.R.R.. . . . . X I 3.3.8.[ $   . . . , @.3.3.3.y.a.9.( e % $ $ , F X.3.3.3.I o   . . . . R.R.R.R.R.R.R.R.R.R.R.",
"R.R.R.R.R.R.R.R.R.R.R.R.. . . . . O U 2.3.8.H . . . . . t &.3.y.a.a.a.a.t.&.@.$.&.3.3.3.2.I @ . . . . . R.R.R.R.R.R.R.R.R.R.R.R.",
"R.R.R.R.R.R.R.R.R.R.R.R.. . . . . . o F 1.3.1.q . . . . . y 1.a.a.a.a.u.3.3.3.3.3.3.3.1.F O . . . . . . R.R.R.R.R.R.R.R.R.R.R.R.",
"R.R.R.R.R.R.R.R.R.R.R.R.R.. . . . .   X t X.3.+.- . . . . . 9 5.a.a.u.8.3.3.3.3.3.3.X.t o   . . . . . R.R.R.R.R.R.R.R.R.R.R.R.R.",
"R.R.R.R.R.R.R.R.R.R.R.R.R.R.. X . . . . . % F @.T % . . . . . - _ t.0.3.3.3.3.3.X.F $ . . . . . . . R.R.R.R.R.R.R.R.R.R.R.R.R.R.",
"R.R.R.R.R.R.R.R.R.R.R.R.R.R.R.. . . . . X . . $ y 8 X . . . . . o 9 T @.@.` I y $ . . . . . . . . R.R.R.R.R.R.R.R.R.R.R.R.R.R.R.",
"R.R.R.R.R.R.R.R.R.R.R.R.R.R.R.R.. . . . . . . . . . . . . . . . .   X $ $ @ X   . . . . . . . X R.R.R.R.R.R.R.R.R.R.R.R.R.R.R.R.",
"R.R.R.R.R.R.R.R.R.R.R.R.R.R.R.R.R.R.. . . . . . . . . . . . . . . X   . . . . . . . . . . . R.R.R.R.R.R.R.R.R.R.R.R.R.R.R.R.R.R.",
"R.R.R.R.R.R.R.R.R.R.R.R.R.R.R.R.R.R.R.. . . . . . . . . X . . . . . . . . . . . . . . . . R.R.R.R.R.R.R.R.R.R.R.R.R.R.R.R.R.R.R.",
"R.R.R.R.R.R.R.R.R.R.R.R.R.R.R.R.R.R.R.R.R.. . . . . . . . . . . . . . . . . . . . . . R.R.R.R.R.R.R.R.R.R.R.R.R.R.R.R.R.R.R.R.R.",
"R.R.R.R.R.R.R.R.R.R.R.R.R.R.R.R.R.R.R.R.R.R.R.R.. . . . . . . . . X . . . . . . R.R.R.R.R.R.R.R.R.R.R.R.R.R.R.R.R.R.R.R.R.R.R.R.",
"R.R.R.R.R.R.R.R.R.R.R.R.R.R.R.R.R.R.R.R.R.R.R.R.R.R.R.R.R.R.R.R.R.R.R.R.R.R.R.R.R.R.R.R.R.R.R.R.R.R.R.R.R.R.R.R.R.R.R.R.R.R.R.R.",
"R.R.R.R.R.R.R.R.R.R.R.R.R.R.R.R.R.R.R.R.R.R.R.R.R.R.R.R.R.R.R.R.R.R.R.R.R.R.R.R.R.R.R.R.R.R.R.R.R.R.R.R.R.R.R.R.R.R.R.R.R.R.R.R."
};
