/* XPM */
static char *result[] = {
/* columns rows colors chars-per-pixel */
"64 64 166 2 ",
"   c #72370A",
".  c #753A0A",
"X  c #7A3E0A",
"o  c #7D430A",
"O  c #7F4809",
"+  c #7D4411",
"@  c #814409",
"#  c #884409",
"$  c #844B09",
"%  c #894E09",
"&  c #9B4E07",
"*  c #924A08",
"=  c #865109",
"-  c #8C5308",
";  c #8E5B08",
":  c #915608",
">  c #935A08",
",  c #985E08",
"<  c #834C16",
"1  c #864F19",
"2  c #8A541C",
"3  c #A35207",
"4  c #A05907",
"5  c #AD5B06",
"6  c #B65C05",
"7  c #B85D05",
"8  c #9E6407",
"9  c #9D6C07",
"0  c #946308",
"q  c #986308",
"w  c #976808",
"e  c #946307",
"r  c #9F7107",
"t  c #9A6D17",
"y  c #93641D",
"u  c #A06607",
"i  c #A56B07",
"p  c #A86F06",
"a  c #BF6105",
"s  c #A57707",
"d  c #AC7206",
"f  c #A77C06",
"g  c #AB7D06",
"h  c #B07606",
"j  c #B57C05",
"k  c #B87F05",
"l  c #8D5820",
"z  c #9B6F23",
"x  c #9C6A2C",
"c  c #9E6D30",
"v  c #A87628",
"b  c #A47432",
"n  c #AC7D36",
"m  c #CF6804",
"M  c #C66404",
"N  c #D76D03",
"B  c #DB6F03",
"V  c #C67504",
"C  c #DE7102",
"Z  c #E37402",
"A  c #ED7901",
"S  c #F27B01",
"D  c #F97F01",
"F  c #AC8206",
"G  c #BB8205",
"H  c #B58D05",
"J  c #BE8E05",
"K  c #B78D0C",
"L  c #B69105",
"P  c #BA9505",
"I  c #BF9C05",
"U  c #B79310",
"Y  c #C48C04",
"T  c #C88F04",
"R  c #DE8502",
"E  c #C59204",
"W  c #CB9204",
"Q  c #CB9B04",
"!  c #C59A04",
"~  c #D49C03",
"^  c #C99519",
"/  c #EF8E01",
"(  c #FF8200",
")  c #FF8B00",
"_  c #FF9500",
"`  c #FE9D00",
"'  c #C4A304",
"]  c #C8A704",
"[  c #CAAA04",
"{  c #DDA502",
"}  c #D1AC03",
"|  c #CEB004",
" . c #D3B703",
".. c #D8B703",
"X. c #C7A91F",
"o. c #DBA717",
"O. c #D7B711",
"+. c #E4AC02",
"@. c #FFA700",
"#. c #FFAD00",
"$. c #E6B202",
"%. c #ECB501",
"&. c #EFB901",
"*. c #ECB70B",
"=. c #FFB300",
"-. c #F3BC01",
";. c #FFB800",
":. c #C29124",
">. c #C9AD2B",
",. c #D1A63F",
"<. c #DDC403",
"1. c #E2C602",
"2. c #E3CB02",
"3. c #F6C201",
"4. c #FDC500",
"5. c #FFC900",
"6. c #FFCB0C",
"7. c #E7D202",
"8. c #EAD601",
"9. c #EEDA01",
"0. c #F6D701",
"q. c #FFD300",
"w. c #F2DD01",
"e. c #FFDC00",
"r. c #F5DA0F",
"t. c #FECC16",
"y. c #FECD1C",
"u. c #FFD01E",
"i. c #F1DD1B",
"p. c #F5E301",
"a. c #FEE400",
"s. c #FDEC00",
"d. c #FFE708",
"f. c #FFF200",
"g. c #F7E61D",
"h. c #DCC525",
"j. c #EEC12F",
"k. c #F5CA37",
"l. c #FCD031",
"z. c #FED43C",
"x. c #B38740",
"c. c #B78D44",
"v. c #B98E44",
"b. c #BC9246",
"n. c #C39B4D",
"m. c #C69E50",
"M. c #CEA959",
"N. c #DBB962",
"B. c #E0BF67",
"V. c #E7C14F",
"C. c #FED644",
"Z. c #FDD84F",
"A. c #FBD859",
"S. c #FDD953",
"D. c #EAC861",
"F. c #E3C36A",
"G. c #EFD16E",
"H. c #FDDC66",
"J. c #FCDD6B",
"K. c #EACC71",
"L. c #F6D973",
"P. c #F7DB7A",
"I. c #F9DE7A",
"U. c #F6D976",
"Y. c #FCE075",
"T. c None",
/* pixels */
"T.T.T.T.T.T.T.T.T.T.T.T.T.T.T.T.T.T.T.T.T.T.T.T.T.T.T.T.T.T.T.T.T.T.T.T.T.T.T.T.T.T.T.T.T.T.T.T.T.T.T.T.T.T.T.T.T.T.T.T.T.T.T.T.",
"T.T.T.T.T.T.T.T.T.T.T.T.T.T.T.T.T.T.T.T.T.T.T.T.T.T.T.T.T.T.T.T.T.T.T.T.T.T.T.T.T.T.T.T.T.T.T.T.T.T.T.T.T.T.T.T.T.T.T.T.T.T.T.T.",
"T.T.T.T.T.T.T.T.T.T.T.T.T.T.T.T.T.T.T.T.T.T.T.T.. . . . . . . . . . . . . . . . T.T.T.T.T.T.T.T.T.T.T.T.T.T.T.T.T.T.T.T.T.T.T.T.",
"T.T.T.T.T.T.T.T.T.T.T.T.T.T.T.T.T.T.T.T.T.. . . . . . . . . . . . . . . . . . . . . . T.T.T.T.T.T.T.T.T.T.T.T.T.T.T.T.T.T.T.T.T.",
"T.T.T.T.T.T.T.T.T.T.T.T.T.T.T.T.T.T.T.. . . . . . X . . . . . . . . . . . . . . . . . . . T.T.T.T.T.T.T.T.T.T.T.T.T.T.T.T.T.T.T.",
"T.T.T.T.T.T.T.T.T.T.T.T.T.T.T.T.T.T.. . . . . . . .     . . . . . . . . . X . . . . . . . . T.T.T.T.T.T.T.T.T.T.T.T.T.T.T.T.T.T.",
"T.T.T.T.T.T.T.T.T.T.T.T.T.T.T.T.. . . . . . X     . < < < o     . . . . . . X   . . . . . . . . T.T.T.T.T.T.T.T.T.T.T.T.T.T.T.T.",
"T.T.T.T.T.T.T.T.T.T.T.T.T.T.T.. . . . . . .   1 b m.N.K.K.M.c o X . . . . . 8 p $ . . . . . . . . T.T.T.T.T.T.T.T.T.T.T.T.T.T.T.",
"T.T.T.T.T.T.T.T.T.T.T.T.T.T.. . X   X   . 1 c.F.I.I.H.Z.C.z.k.^ - . . . .   = { $.k $ . . . . . . . T.T.T.T.T.T.T.T.T.T.T.T.T.T.",
"T.T.T.T.T.T.T.T.T.T.T.T.T.. . .       X b F.I.H.z.y.6.5.5.5.5.5.$.8   . . . . - $.5.+.i X . . . . . . T.T.T.T.T.T.T.T.T.T.T.T.T.",
"T.T.T.T.T.T.T.T.T.T.T.T.. . . . X . o v.U.J.z.6.5.5.4.5.5.5.5.4.5.&.d     . . . w 3.5.3.G o . . . . . . T.T.T.T.T.T.T.T.T.T.T.T.",
"T.T.T.T.T.T.T.T.T.T.T.T.. . . .   + m.I.S.t.4.-.&.%.-.3.5.5.5.5.5.5.-.i X . . . X K q.5.4.E o   . . . . T.T.T.T.T.T.T.T.T.T.T.T.",
"T.T.T.T.T.T.T.T.T.T.T.. . . . . o n.I.z.5.$.k > $ $ % 8 Y -.5.5.5.5.5.&.> . . . . + O.q.4.4.Y o   . . . . T.T.T.T.T.T.T.T.T.T.T.",
"T.T.T.T.T.T.T.T.T.T.. . . . . X x.L.z.3.Y # .           . > ~ 4.5.4.5.5.{ $   .   . t r.5.5.4.j X . . . . . T.T.T.T.T.T.T.T.T.T.",
"T.T.T.T.T.T.T.T.T.T.. . . . . x G.z.-.d X   . . @ o X . .   @ W 4.5.5.5.4.J X   X . X >.a.5.5.-.8 . . X . . T.T.T.T.T.T.T.T.T.T.",
"T.T.T.T.T.T.T.T.T.. . . . . 1 N.Z.3.h X     * M C Z B 7 # . . @ W 5.5.5.e.p.w     X . y i.q.5.5.{ $ . . X . . T.T.T.T.T.T.T.T.T.",
"T.T.T.T.T.T.T.T.T.. . . . . c.A.6.Y o   X 6 S ( ( ( ( ( Z 3 . . $ { e.a.f.f. .o   . . o >.d.5.5.5.k . . . . . T.T.T.T.T.T.T.T.T.",
"T.T.T.T.T.T.T.T.. . . X   l D.u.+.$   X M D ( ( ( ( ( ( ( S 3 . . 9 w.f.f.f.p.s   . .   z g.q.5.5.&.- . . . . . T.T.T.T.T.T.T.T.",
"T.T.T.T.T.T.T.T.. . . . X b.z.3.i   . 5 D ( ( ( ( ( ( ( ( ( A *   X ' f.f.s.a.Q o . . . + h.d.5.5.5.Y . . . . . T.T.T.T.T.T.T.T.",
"T.T.T.T.T.T.T.T.. . . . 2 V.6.{ o   * A ( ( ( ( ( D ( ( ( ( ( N o   ; w.a.q.5.-.- . . . . U s.q.4.4.$.$ . . . . T.T.T.T.T.T.T.T.",
"T.T.T.T.T.T.T.. . . .   n l.4.p . X M ( ( ( ( ) _ ` ` ` ) ( ( ( 5 . . Q 5.5.5.5.G   . .   e p.a.5.5.4.d     . . . T.T.T.T.T.T.T.",
"T.T.T.T.T.T.T.. . . . o ,.6.+.$   * S ( ( ( ` ;.4.4.5.4.4.#._ _ R @   8 3.5.5.5.{ o   . . O <.f.5.4.5.~ o . . . . T.T.T.T.T.T.T.",
"T.T.T.T.T.T.T.. . . . 2 j.5.Y . . 7 ( ( ) =.4.5.5.5.5.4.5.q.e.4.` 4   @ +.5.5.5.-.> . . . . ' f.q.5.5.-.= . . . . T.T.T.T.T.T.T.",
"T.T.T.T.T.T.. . . .   v t.4.i   # Z ( ) ;.5.5.5.5.4.5.q.e.s.f.s.4.V . . Y 5.5.5.5.d   .     F s.e.5.5.4.d   . . . . T.T.T.T.T.T.",
"T.T.T.T.T.T.. . . . X :.6.&.%   & D ( ;.5.5.4.5.5.q.e.s.s.f.f.f.s.+.@   i 4.4.5.5.E X . . . e p.a.5.5.5.Y . . . X . T.T.T.T.T.T.",
"T.T.T.T.T.T.. . . . + o.5.{ o . 6 ( @.4.5.4.5.q.a.a.f.f.f.f.f.f.f.p.q   - -.5.5.5.{ o . . . $ 9.f.5.5.5.{ o . . . . T.T.T.T.T.T.",
"T.T.T.T.T.T.. X X   $ *.5.Y . X m _ 4.4.5.e.a.s.f.f.f.f.f.f.f.f.f.f.H   @ +.5.5.5.&.$ . . . o <.f.q.5.5.%.$ . . . . T.T.T.T.T.T.",
"T.T.T.T.T.T.. .     > -.4.j   o Z =.5.e.a.s.f.f.f.f.f.f.f.f.f.f.s.f.'   o ~ 5.5.5.-.>   . . X [ f.q.4.5.-.: . . . . T.T.T.T.T.T.",
"T.T.T.T.T.T.. .     8 3.4.p   # / q.a.f.f.f.f.f.s.f.f.f.f.a.e.q.q.e.} o . W 5.5.4.4.9   . . . ' f.e.5.5.3.u   . . . T.T.T.T.T.T.",
"T.T.T.T.T.T.. .   X d 4.4.9   % 3.s.f.f.f.f.f.f.f.f.f.f.a.q.5.5.4.5.{ o   G 5.5.5.a.F   . .   P f.e.4.5.4.d . . . . T.T.T.T.T.T.",
"T.T.T.T.T.. . . X . d 5.0.w   > w.f.f.f.f.f.f.f.f.f.f.a.5.5.5.5.5.5.+.o   G 5.5.e.s.F   . .   P f.e.5.5.4.d . . . . . T.T.T.T.T.",
"T.T.T.T.T.. . . . . d e.p.>   r s.f.s.f.f.f.s.f.f.f.a.5.5.5.5.5.5.5.+.o   G 5.e.f.f.F . . .   P f.e.5.4.5.d . . . . . T.T.T.T.T.",
"T.T.T.T.T.. . . .   F f.p.0   r s.f.f.s.f.f.f.f.f.s.q.5.5.5.4.5.4.5.+.@   G q.s.f.f.F     .   P f.a.4.5.4.d . . . . . T.T.T.T.T.",
"T.T.T.T.T.. . . .   F f.p.w   w p.f.f.f.f.f.f.f.f.e.4.4.4.5.5.5.5.5.+.o   G a.f.f.f.F   . .   P f.a.4.5.4.h . . . . . T.T.T.T.T.",
"T.T.T.T.T.T.o   .   F f.s.r   ; p.f.f.f.s.f.f.f.a.5.5.5.5.5.5.5.5.5.{ o   I f.f.s.s.g   . .   P f.e.5.5.4.p   . . . T.T.T.T.T.T.",
"T.T.T.T.T.T.. . .   r p.p.F   O 9.f.f.f.f.f.f.f.e.5.5.5.4.5.4.5.5.5.~ X . [ f.f.f.s.r . . . . ' f.e.4.5.3.u   . . . T.T.T.T.T.T.",
"T.T.T.T.T.T.. . .   e p.f.L . o 1.f.f.f.s.f.f.a.q.5.5.5.5.5.5.5.5.5.Y . o  .f.f.f.w.> . .   o | f.q.5.5.3.> . . . . T.T.T.T.T.T.",
"T.T.T.T.T.T.. . . . O 9.f.' o o | f.f.f.f.f.f.a.5.4.5.4.5.4.4.5.5.5.h   O 7.f.f.a.&.$ . .   o <.f.q.5.5.&.$ . . . . T.T.T.T.T.T.",
"T.T.T.T.T.T.. . . . O <.f.<.O   L f.f.f.f.f.f.e.4.5.5.5.5.5.5.5.5.3.>   ; p.f.a.q.{ o . . . $ 8.s.5.5.5.{ X . . . . T.T.T.T.T.T.",
"T.T.T.T.T.T.. . . . . ' f.9.= . w s.f.f.f.f.s.5.5.5.5.4.5.5.4.5.5.$.O   s s.f.q.5.E . . . . e p.a.5.5.5.Y . . . . . T.T.T.T.T.T.",
"T.T.T.T.T.T.. . . .   F s.s.r . O 7.f.f.f.f.s.5.5.5.4.5.5.4.5.4.5.T . . ' f.q.5.4.d   . .   F f.e.5.5.4.d . . . . . T.T.T.T.T.T.",
"T.T.T.T.T.T.T.. . . . ; 9.f.' . . I f.f.f.f.a.5.5.4.5.5.5.5.5.5.3.u   $ 2.e.5.5.-.> . . . . ' f.q.4.5.-.- . . . . T.T.T.T.T.T.T.",
"T.T.T.T.T.T.T.. . . . o  .f.7.O   e 9.f.f.f.a.5.5.5.5.5.5.5.5.5.{ o   9 0.5.5.5.{ o . . . O 1.a.5.5.5.~ X . . . X T.T.T.T.T.T.T.",
"T.T.T.T.T.T.T.. . . .   F f.f.F   o ] f.s.f.a.5.5.5.4.5.5.4.5.4.d . . Q 5.5.5.5.k . . .   0 p.a.5.5.4.d   . . . . T.T.T.T.T.T.T.",
"T.T.T.T.T.T.T.T.. . . . = 8.f.<.O   e 8.f.f.a.5.4.5.5.5.5.4.5.{ o . - &.5.5.5.-.: . . . . P f.q.5.5.$.$ . . . . T.T.T.T.T.T.T.T.",
"T.T.T.T.T.T.T.T.. . . . . I f.s.f     F s.f.a.5.5.5.5.4.5.5.%.>   o Y 5.5.5.5.W X . .   O <.a.5.5.5.G X . . . . T.T.T.T.T.T.T.T.",
"T.T.T.T.T.T.T.T.. . . . . ; 9.f.<.$   o I s.s.5.5.5.5.5.5.-.i .   8 -.5.4.5.3.8   . .   r p.e.5.4.&.: . . . . . T.T.T.T.T.T.T.T.",
"T.T.T.T.T.T.T.T.T.  o . . . P f.a.E o   o L w.q.5.5.5.5.+.8 .   $ { 5.5.5.5.~ o . . . X [ a.5.4.4.k . . . . . T.T.T.T.T.T.T.T.T.",
"T.T.T.T.T.T.T.T.T.. . . . . = 2.s.4.d X . . w E { +.{ j $ . . @ W 5.5.5.5.-.>   . .   w w.q.5.5.+.$ . . . . . T.T.T.T.T.T.T.T.T.",
"T.T.T.T.T.T.T.T.T.T.. . . .   r w.q.-.d o .   . o o o . . . @ W 4.4.5.5.5.G X . . . . ] e.5.5.-.8   . . . . T.T.T.T.T.T.T.T.T.T.",
"T.T.T.T.T.T.T.T.T.T.. . . . . . H 5.5.3.G % .       .   . > ~ 4.5.5.4.5.{ $ . . . . 9 w.5.5.4.j X . . . . . T.T.T.T.T.T.T.T.T.T.",
"T.T.T.T.T.T.T.T.T.T.T.. . . . . o E 4.5.5.$.k q = $ - r ! -.5.5.5.5.5.&.> . . .   $ ..q.5.5.Y X . . . . . T.T.T.T.T.T.T.T.T.T.T.",
"T.T.T.T.T.T.T.T.T.T.T.T.. . . . . @ W 3.5.5.e.p.9.9.p.p.q.4.4.5.5.4.-.i . . . . . L q.5.4.W o . . . . . T.T.T.T.T.T.T.T.T.T.T.T.",
"T.T.T.T.T.T.T.T.T.T.T.T.. . . . . . o G 3.q.a.f.f.f.s.q.5.5.5.5.5.-.i . . . . . 9 3.5.-.G o . . . . . . T.T.T.T.T.T.T.T.T.T.T.T.",
"T.T.T.T.T.T.T.T.T.T.T.T.T.. . . . . . X i 2.f.f.f.f.0.5.4.5.5.5.$.8 . . . . . : $.5.+.i X   . . . . . T.T.T.T.T.T.T.T.T.T.T.T.T.",
"T.T.T.T.T.T.T.T.T.T.T.T.T.T.. . . . . . . = P 7.f.e.5.5.5.5.3.W - . . . . . % ~ $.G =   . X . . . . T.T.T.T.T.T.T.T.T.T.T.T.T.T.",
"T.T.T.T.T.T.T.T.T.T.T.T.T.T.T.. . . . . . . . = s Y { &.&.~ u o . . . . . . 8 i $ . . . . . . . . T.T.T.T.T.T.T.T.T.T.T.T.T.T.T.",
"T.T.T.T.T.T.T.T.T.T.T.T.T.T.T.T.. . . . . . . . . X o @ @ X . . . . . . . X X . . . . . . . . . T.T.T.T.T.T.T.T.T.T.T.T.T.T.T.T.",
"T.T.T.T.T.T.T.T.T.T.T.T.T.T.T.T.T.T.. . . . . X . . . . . . . . . . . . . . . . . . . . . . T.T.T.T.T.T.T.T.T.T.T.T.T.T.T.T.T.T.",
"T.T.T.T.T.T.T.T.T.T.T.T.T.T.T.T.T.T.T.. . . . . . . . . . . . . . . . . . . . . . . X . . T.T.T.T.T.T.T.T.T.T.T.T.T.T.T.T.T.T.T.",
"T.T.T.T.T.T.T.T.T.T.T.T.T.T.T.T.T.T.T.T.T.. . . . . . . . . X . . . . . . . . . . . . T.T.T.T.T.T.T.T.T.T.T.T.T.T.T.T.T.T.T.T.T.",
"T.T.T.T.T.T.T.T.T.T.T.T.T.T.T.T.T.T.T.T.T.T.T.T.. . . X . . . . . . . . . . . . T.T.T.T.T.T.T.T.T.T.T.T.T.T.T.T.T.T.T.T.T.T.T.T.",
"T.T.T.T.T.T.T.T.T.T.T.T.T.T.T.T.T.T.T.T.T.T.T.T.T.T.T.T.T.T.T.T.T.T.T.T.T.T.T.T.T.T.T.T.T.T.T.T.T.T.T.T.T.T.T.T.T.T.T.T.T.T.T.T.",
"T.T.T.T.T.T.T.T.T.T.T.T.T.T.T.T.T.T.T.T.T.T.T.T.T.T.T.T.T.T.T.T.T.T.T.T.T.T.T.T.T.T.T.T.T.T.T.T.T.T.T.T.T.T.T.T.T.T.T.T.T.T.T.T."
};
