/* XPM */
static char *result[] = {
/* columns rows colors chars-per-pixel */
"64 64 229 2 ",
"   c #1E1310",
".  c #31231D",
"X  c #313231",
"o  c #21110B",
"O  c #501811",
"+  c #740E0C",
"@  c #4A342E",
"#  c #722D2B",
"$  c #4D413A",
"%  c #273D43",
"&  c #274856",
"*  c #35535B",
"=  c #2D5362",
"-  c #345D6B",
";  c #375A68",
":  c #37626D",
">  c #396A77",
",  c #3C707F",
"<  c #55544E",
"1  c #6B5E50",
"2  c #6D5445",
"3  c #73695D",
"4  c #776C5D",
"5  c #4A696B",
"6  c #5C727B",
"7  c #4E6B73",
"8  c #67797B",
"9  c #77766F",
"0  c #415864",
"q  c #8B1B15",
"w  c #950908",
"e  c #A52821",
"r  c #C91A19",
"t  c #C22B24",
"y  c #A24339",
"u  c #924339",
"i  c #C4473E",
"p  c #A8695B",
"a  c #B7715C",
"s  c #96776C",
"d  c #887D73",
"f  c #9A7C72",
"g  c #8E7766",
"h  c #A87669",
"j  c #B67866",
"k  c #A47B72",
"l  c #AB6C61",
"z  c #9C6055",
"x  c #C56C57",
"c  c #DC6954",
"v  c #D9785C",
"b  c #CF6D55",
"n  c #E87759",
"m  c #ED7357",
"M  c #C97965",
"N  c #D77260",
"B  c #E07D61",
"V  c #78857D",
"C  c #5A807E",
"Z  c #898A76",
"A  c #988A7B",
"S  c #9B937A",
"D  c #82806E",
"F  c #AA8878",
"G  c #BA8976",
"H  c #A79479",
"J  c #B59979",
"K  c #B4876D",
"L  c #BCA27D",
"P  c #F4805E",
"I  c #ED825E",
"U  c #CA8568",
"Y  c #D98766",
"T  c #C89672",
"R  c #D99573",
"E  c #D08D72",
"W  c #E98865",
"Q  c #F68762",
"!  c #FA966B",
"~  c #F89D71",
"^  c #E59771",
"/  c #FFA473",
"(  c #FDAD7B",
")  c #F9A778",
"_  c #FFB17D",
"`  c #F3A275",
"'  c #3D7787",
"]  c #437D8C",
"[  c #487A87",
"{  c #577D87",
"}  c #687C85",
"|  c #4B828D",
" . c #56838C",
".. c #448393",
"X. c #4A8492",
"o. c #4B8A96",
"O. c #4B8D9B",
"+. c #458A9B",
"@. c #568B96",
"#. c #4D909D",
"$. c #53929D",
"%. c #5B939A",
"&. c #5B979B",
"*. c #698988",
"=. c #778987",
"-. c #79928C",
";. c #668B95",
":. c #6C9394",
">. c #63919B",
",. c #6B949B",
"<. c #67999A",
"1. c #78989A",
"2. c #7B8D95",
"3. c #6EA19F",
"4. c #4C93A4",
"5. c #4F98A7",
"6. c #5295A0",
"7. c #549AA5",
"8. c #5C9CA4",
"9. c #539DAB",
"0. c #5B98A3",
"q. c #488FA0",
"w. c #649CA3",
"e. c #6999A3",
"r. c #7A9DA5",
"t. c #56A1AD",
"y. c #5BA3AC",
"u. c #5BA7B2",
"i. c #5DAAB4",
"p. c #5EADB9",
"a. c #56A3B0",
"s. c #5FB2BC",
"d. c #62A4AB",
"f. c #68A7AA",
"g. c #77A4AA",
"h. c #62ADB4",
"j. c #6CACB3",
"k. c #64B4BD",
"l. c #69B6BA",
"z. c #6CBABD",
"x. c #68B2B5",
"c. c #73B9B9",
"v. c #65B7C0",
"b. c #66B9C1",
"n. c #6BBDC3",
"m. c #71BEC1",
"M. c #6EC1C6",
"N. c #6FC3C8",
"B. c #72C4C6",
"V. c #72C5C9",
"C. c #76C9CB",
"Z. c #79CDCD",
"A. c #7DD1CF",
"S. c #7ED3D2",
"D. c #7ACFD0",
"F. c #868E8A",
"G. c #968D84",
"H. c #879387",
"J. c #999786",
"K. c #879796",
"L. c #929D93",
"P. c #A49989",
"I. c #A6908D",
"U. c #97A29C",
"Y. c #97A092",
"T. c #BBA689",
"R. c #A9A695",
"E. c #B4AC93",
"W. c #BDB397",
"Q. c #849CA4",
"!. c #929DA3",
"~. c #85A4AA",
"^. c #95A7AB",
"/. c #88ACB3",
"(. c #9AADB3",
"). c #94ACB3",
"_. c #99B4B9",
"`. c #88B4B8",
"'. c #B9B5A3",
"]. c #A5B6BC",
"[. c #BABBB9",
"{. c #A3AEB0",
"}. c #CF9C88",
"|. c #C6AA86",
" X c #C9B28E",
".X c #C8B598",
"XX c #D5BC98",
"oX c #D2AC90",
"OX c #FCB684",
"+X c #FCB986",
"@X c #F0B58E",
"#X c #CCBEA5",
"$X c #D4BFA7",
"%X c #E6BEAE",
"&X c #DAC198",
"*X c #E2C69B",
"=X c #CAC2A8",
"-X c #D7C7A9",
";X c #C8C8BA",
":X c #D5CBBB",
">X c #DAD2B3",
",X c #E4CDA3",
"<X c #E7DAB8",
"1X c #E5D3AF",
"2X c #AABCC1",
"3X c #81D6D4",
"4X c #83D9D6",
"5X c #84DBD8",
"6X c #B8C4C8",
"7X c #ACC1C6",
"8X c #D5CFC3",
"9X c #DAD7C5",
"0X c #C9D0D0",
"qX c #E3D9C1",
"wX c #E3DFD2",
"eX c #E8E4C5",
"rX c #F2EAC8",
"tX c #FAF2CE",
"yX c #E7E4D5",
"uX c #FFFEDC",
"iX c #F5F3D7",
"pX c #F0EFD0",
"aX c #FFFFE3",
"sX c #FFFEEC",
"dX c #F7F5E6",
"fX c #FFFFF3",
"gX c #FFFFFA",
"hX c #F1EEE1",
"jX c None",
/* pixels */
"jXjXjXjXjXjXjXjXjXjXjXjXjXjXjXjXjXjXjXjXjXjXjXjXjXjXjXjXjXjXjXjXjXjX6X,.)._.jXjXjXjXjXjXjXjXjXjXjXjXjXjXjXjXjXjXjXjXjXjXjXjXjXjX",
"jXjXjXjXjXjXjXjXjXjXjXjXjXjXjXjXjXjXjXjXjXjXjXjXjXjXjXjXjXjXjXjXjXjXjX/.y.7 r.jXjXjXjXjXjXjXjXjXjXjXjXjXjXjXjXjXjXjXjXjXjXjXjXjX",
"jXjXjXjXjXjXjXjXjXjXjXjXjXjXjXjXjXjXjXjXjXjXjXjXjXjXjXjXjXjXjXjXjXjXjXjXc.j.t.r.jXjXjXjXjXjXjXjXjXjXjXjXjXjXjXjXjXjXjXjXjXjXjXjX",
"jXjXjXjXjXjXjXjXjXjXjXjXjXjXjXjXjXjXjXjXjXjXjXjXjXjXjXjXjXjXjXjXjXjXjXjX`.C.C.7.^.jXjXjXjXjXjXjXjXjXjXjXjXjXjXjXjXjXjXjXjXjXjXjX",
"jXjXjXjXjXjXjXjXjXjXjXjXjXjXjXjXjXjXjXjXjXjXjXjXjXjXjXjXjXjXjXjXjXjXjXjX6Xc.S.n.' ;.jXjXjXjXjXjXjXjXjXjXjXjXjXjXjXjXjXjXjXjXjXjX",
"jXjXjXjXjXjXjXjXjXjXjXjXjXjXjXjXjXjXjXjXjXjXjXjXjXjXjXjXjXjXjXjXjX@._.(.2Xc.S.B...X.jXjXjXjXjXjXjXjXjXjXjXjXjXjXjXjXjXjXjXjXjXjX",
"jXjXjXjXjXjXjXjXjXjXjXjXjXjXjXjXjXjXjXjXjXjXjXjXjXjXjXjXjXjXjXjXjXe.y.%. .<.A.V.9.X.jXjXjXjXjXjXjXjXjXjXjXjXjXjXjXjXjXjXjXjXjXjX",
"jXjXjXjXjXjXjXjXjXjXjXjXjXjXjXjXjXjXjXjXjXjXjXjXjXjXXX=XjXjXjXjXjX:.[ h.l.l.S.B.t.%.jXjXjXjXjXjXjXjXjXjXjXjXjXjXjXjXjXjXjXjXjXjX",
"jXjXjXjXjXjXjXjXjXjXjXjXjXjXjXjXjXjXjXjXjXjXjXjXjX=X,X&X;XjXjXjXQ.@.&.h.S.S.S.C.5./.jXjX&X&XjXjXjXjXjXjXjXjXjXjXjXjXjXjXjXjXjXjX",
"jXjXjXjXjXjXjXjXjXjXjXjXjXjXjXjXjXjXjXjXjXjXjXjXjXW.,X*XJ.,.jXjX} ..B.4XS.5XS.l...(.7XU.S J |.jXjXjXjXjXjXjXjXjXjXjXjXjXjXjXjXjX",
"jXjXjXjXjXjXjXjXjXjXjXjXjXjXjXjXjXjXjXjXjXjXjXjXjXL `  XS @.:.~.w.y.h.B.S.S.m.h.l.f.$.$.f.<.L.jXjXjXjXjXjXjXjXjXjXjXjXjXjXjXjXjX",
"jXjXjXjXjXjXjXjXjXjXjXjXjXjXjXjXjXjXjXjXjXjXjXjX`.Z H Z c.u.7.A.4X4XS.Z.S.S.A.4XS.A.A.z.8.o.| jXjXjXjXjXjXjXjXjXjXjXjXjXjXjXjXjX",
"jXjXjXjXjXjXjXjXjXjXjXjXjXjXjXjXjXjXjXjXjXjXjXjXg.f.c.B.k.7.B.4X4X4X4XA.B.Z.S.S.S.S.C.l.x.8.| (.jXjXjXjXjXjXjXjXjXjXjXjXjXjXjXjX",
"jXjXjXjXjXjXjXjXjXjXjXjXjXjXjXjXjXjXjXjXjXjXjXjX7X| 6.t.i.A.4X4X4X3Xc.j.l.c.c.A.S.A.z.B.C.m.i.<.jXjXjXjXjXjXjXjXjXjXjXjXjXjXjXjX",
"jXjXjXjXjXjXjXjXjXjXjXjXjXjXjXjXjXjXjXjXjXjXjXjX,.t.z.C.4X4X4X4XS.x.m.3X4X4XZ.A.S.S.Z.V.B.S.B.l.w.jXjXjXjXjXjXjXjXjXjXjXjXjXjXjX",
"jXjXjXjXjXjXjXjXjXjXjXjXjXjXjXjXjXjXjXjXjXjXjXw.z.S.4XS.S.4X4X4Xm.C.5X5XA.B.B.3XS.Z.&.U.U.3.B.m.z.e.jXjXjXjXjXjXjXjXjXjXjXjXjXjX",
"jXjXjXjXjXjXjXjXjXjXjXjXjXjXjXjXjXjXjXjXjXjXr.l.z.C.S.S.4X4X5XS.C.4X3Xf.-.-.8 %.C.f.U.dXfX9X1.V.k.y.jXjXjXjXjXjXjXjXjXjXjXjXjXjX",
"jXjXjXjXjXjXjXjXjXjXjXjXjXjXjXjXjXjXjXjXjXg.z.t.4.M.S.S.S.S.4XS.3XC.=.[.dXfXhXL.&.g.yXgXgXgX;X<.V.M.w.jXjXjXjXjXjXjXjXjXjXjXjXjX",
"jXjXjXjXjXjXjXjXjXjXjXjXjXjXjXjXjXjXjXjXjXh.S.k.u.C.S.S.S.S.4X4X3X*.8XgXfXgXfXdX-.K.fXgXgXgXfXK.z.C.b.jXjXjXjXjXjXjXjXjXjXjXjXjX",
"jXjXjXjXjXjXjXjXjXjXjXjXjXjXjXjXjXjXjXjXw.C.Z.C.k.Z.S.A.S.4XS.S.3.'.fXfXgXgXgXgX8XR.gXgXgXgXfX;Xd.C.V.w.jXjXjXjXjXjXjXjXjXjXjXjX",
"jXjXjXjXjXjXjXjXjXjXjXjXjXjXQ.y.l.x.j.,.x.Z.Z.Z.D.A.A.A.S.S.S.C.V iXfXfXgXgXgXsXyX[.'.8XgXfXsXyX:.M.V.h.jXjXjXjXjXjXjXjXjXjXjXjX",
"jXjXjXjXjXjXjXjXjXjXjXjXjX_.l.V.V.M.z.l.l.Z.Z.Z.Z.A.D.A.A.D.S.f.R.sXsXfXfXfXfX9X3 R.< 1 fXsXsXiX-.M.V.k.~.jXjXjXjXjXjXjXjXjXjXjX",
"jXjXjXjXjXjXjXjXjXjXjXjXjX>.n.n.1.K f ;.V.C.Z.Z.Z.Z.Z.A.B.l.D.<.=XsXsXsXsXfXfX{.. J.< @ hXsXsXiX=.M.M.M.e.jXjXjXjXjXjXjXjXjXjXjX",
"jXjXjXjXjXjXjXjXjXjXjXjXjX0.n.<.Y / R :.l.V.Z.Z.Z.Z.D.D.V.m.D.;.;XaXaXsXsXsXsX'.. P.3 @ iXsXaXpX*.x.z.N.&.~.g.jXjXjXjXjXjXjXjXjX",
"jXjXjXjXjXjXjXjXjXjXjXjXjX;.i.h.-.Y.g.u.6.V.C.Z.Z.Z.Z.Z.D.Z.D.,.=XaXuXaXaXaXsX<X4 P.E.4 iXuXaXeX*.k.z.B.6.u.h.g.jXjXjXjXjXjXjXjX",
"jXjXjXjXjXjXjXjXjXjXjXjXjXjX@.i.s.p.7...h.V.V.n.n.Z.Z.Z.Z.Z.D.f.Y.aXuXuXaXuXaXaXeXV <XpXuXuXuX=X%.N.M.M.6.8 1.i.~.jXjXjXjXjXjXjX",
"jXjXjXjXjXjXjXjXjXjXjXjXjXjXjXe.>. .' t.N.i.v.5.a.C.C.C.Z.Z.Z.V.8 <XuXuXuXuXuXuX=X .Y.uXuXuXiXZ j.N.M.M.&.U h y.g.jXjXjXjXjXjXjX",
"jXjXjXjXjXjXjXjXjXjXjXjXjXjXjXjXjX]...b.n.i.v.i.p.V.C.C.C.C.C.C.&.Z rXuXuXuXuX=XC B.*.W.tXtXE. .M.M.n.B.@.A -.i.g.jXjXjXjXjXjXjX",
"jXjXjXjXjXjXjXjXjX=X,XjXjXjXjXjXjX].+.n.k.9.i.V.V.V.C.V.C.C.C.C.s.C 9 T.-X=XH C z.V.m.*.D 9 5 i.M.M.M.z.X...5.6.(.jXjXjXjXjXjXjX",
"jXjXjX.X&X#XjXjXjXjX*X&X9XjXjXjXjX].O.N.i.4.a.B.V.V.V.V.C.V.V.C.V.h.| : 5 C f.C.V.V.V.N.y.$.h.M.M.M.M.b.>.).).jXjXjXjXjXjXjXjXjX",
"jXjXjX|.XX&XL Z ^.^. X&X.XjXjXjXjX].#.N.k.p.b.B.V.V.V.V.V.C.C.n.b.n.M.m.N.V.B.B.N.V.B.B.m.y.i.M.M.b.M.p.Q.jXjXjXjXjXjXjXjXjXjXjX",
"jXjXjXjXT.Z d F 1.@.S T H jXjXjXjX].O.n.n.N.B.N.m.V.V.V.V.n.u.] : : | #.t.p.z.M.M.M.M.s.#., ' $.k.M.M.a.2XjX=XXXjXjXjX:X-XjXjXjX",
"jXjXjXjX{.%.G ! F h.d.-.*.>.jXjXjX6X+.n.n.N.n.N.n.V.n.m.n.] X o   $ A ;XF.*.@. .$.&.@.<.5 X X > t.n.b.8.0X=X*X X~.K.J.XXL =XjXjX",
"jX;X&X XV P.j j f F A g.k.i.w._.jXjXX.k.n.n.N.N.V.n.V.n.{ @ + + # ;X8X#Xg eX=X< E.>X.X<X2 T.P.X O.n.k.r.[.L |.H.S T *.V |.jXjXjX",
".XXX,X Xd ~ ^ s ^ +X) K j.b.v.h.g.(.[ O.h.n.n.n.n.n.n.0.# w r r U fXhX2 O a y O H H g 4 @ yXdX1 > b.t.;.@.V :.1.^ ! G.@.R.jXjXjX",
"8X.X|.J *.k p U +X+X_ n K.v.v.v.v.d.6.7.k.n.n.n.n.V.v.0 q q w y <XsXsXU w w r t + O o o 1 iXsXJ.* k.o.8.k.<.G.F x x R F H &X-XjX",
"jXjXjXjXF.T U b _ _ ! j f.v.v.v.b.n.b.n.n.n.n.n.n.n.a.!..Xj q .XaXaXsX}.i z e }.y u 1 2 #XaXaXW.* y.$.b.j.U OXOXU j ! a H *XXX|.",
"jXjXjXjXT.l j p P ! m F.v.v.v.v.b.b.b.b.b.v.n.n.n.n.@.;XpXU K rXuXuXtX|.,XoXq wX}.I.qX8X9XtXuXW.* @.i.b.g.Y _ OX~ h k 9 S #X:XjX",
"jXjXjXXX*XA [ X.p c c F.v.v.v.v.v.v.b.v.9.k.b.n.h.k.8.K.&XB ^ XX1X<X1XE %X.Xp dX<XqXiXeX>X,X<XJ 5 #.7.k.x.h ! ( W x R g .XjXjXjX",
"jXjXjX X|.|.J.@.] 8 =.i.v.p.p.a.p.h.p.+.] k.b.n.9.5.n.h.e.f M Y Y ^ ^ n @X1X XtX<X<XrX-X|.Y K d | u.7.h.z.f Q ! b g a T &X.XjXjX",
"jXjXjXjXjXjXjXjXjXQ.e.%.@.@.[ ' ..+.X.[ 9.v.b.b.h.o.u.b.b.k.d.,.=.d h l E.E.E.#XR.R.Y.H.=.} >.u.k.v.4.p.b.2.x x 8 ..F.T. X$XjXjX",
"jXjXjXjXjXjXjXjXjXjXjXjXjXjX^.*.[ ;.jX).9.b.v.v.v.u.X.a.v.v.b.b.z.s.i.y.y.9.8.8.8.9.y.h.p.v.z.k.v.u.#.v.b.v.e. .] (.jXjXjXjXjXjX",
"jXjXjXjXjXjXjXjXjXjXjXjXjXjXjXjXjXjXjXjX8.v.l.v.k.v.h.] ..9.i.s.k.v.k.k.p.p.i.a.9.9.t.u.p.k.k.h.7.] 4.a.5.q.o.e.jXjXjXjXjXjXjXjX",
"jXjXjXjXjXjXjXjXjXjXjXjXjXjXjXjXjXjXjXjXr.k.v.v.v.v.v.k.6.] ' +.+.+.q.q.+.+...' [ [ [ ........[ ' ' ' 7 Q.2XjXjXjXjXjXjXjXjXjXjX",
"jXjXjXjXjXjXjXjXjXjXjXjXjXjXjXjXjXjX{.jX/.p.v.v.k.v.v.l.1.G.d *.X.o.| [ { [ ' e.jXjXjX7X2X2XjX(.{ { (.jXjXjXjXjXjXjXjXjXjXjXjXjX",
"jXjXjXjXjXjXjXjXjXjXjXjXjXjXjXjXjX!.= - 5 4.v.v.v.k.v.1.Y ) OX` G G.k T R j 8 jXjXjXjXjXjXjXjXjXjXjXjXjXjXjXjXjXjXjXjXjXjXjXjXjX",
"jXjXjXjXjXjXjXjXjXjXjXjXjXjXjXjXjX!.= - ; X.k.v.v.v.b.H.~ OX+X+X*X( ( OX( ! p jXjXjXjXjXjXjXjXjXjXjXjXjXjXjXjXjXjXjXjXjXjXjXjXjX",
"jXjXjXjXjXjXjXjX} jXjXjXjXjXjXjXjXjX* = > +.u.v.v.v.b.F.n ) ( ( ! ! ! ! Q P j jXjXjXjXjXjXjXjXjXjXjXjXjXjXjXjXjXjXjXjXjXjXjXjXjX",
"jXjXjXjXjXjXjX6 = 2.jXjXjXjXjXjXjXjX} > i.y.9.k.b.k.b.1.m m Q W Q ^ Q n m c f jXjXjXjXjXjXjXjXjXjXjXjXjXjXjXjXjXjXjXjXjXjXjXjXjX",
"jXjXjXjXjXjXjX* - - 2.6 jXjXjX6 : 6 ;.u.p.v.p.k.k.v.k.:.B ~ ) ( +X+X+X) m c } w.7XjXjXjXjXjXjXjXjXjXjXjXjXjXjXjXjXjXjXjXjXjXjXjX",
"jXjXjXjXjXjX^.= : = ; ; jXjXjX} = , u.u.i.v.v.l.d.v.v.d.G.` ) ) / ~ ~ ! m a O.i.h.g.jXjXjXjXjXjXjXjXjXjXjXjXjXjXjXjXjXjXjXjXjXjX",
"jXjXjXjXjXjX!.* > ; = ; jXjXjXjX- t.k.9.p.v.g.F F d.v.b.d.F / ) ~ ! Q m N 2.4.v.v.u.e.jXjXjXjXjXjXjXjXjXjXjXjXjXjXjXjXjXjXjXjXjX",
"jXjXjXjXjXjX0 & = - = } jXjX=.).7.v.v.v.j.J.W Q n :.v.v.v.;.B m m c c }.jX0Xe.v.k.9.u.e.jXjXjXjXjXjXjXjXjXjXjXjXjXjXjXjXjXjXjXjX",
"jXjXjXjXjXjXQ.& & : - {.jX^.& ] v.v.k.1.G Q m v j ,.v.v.b.w.I.oX%X%XjXjXjXjX_.s.k.k.k.9.r.jXjXjXjXjXjXjXjXjXjXjXjXjXjXjXjXjXjXjX",
"jXjXjXjXjXjXjXjX} > 6.g.].~.[ p.v.g.F v m N I.jXjXf.v.v.b.6.2XjXjXjXjXjXjXjX2Xi.v.k.v.u.;.jXjXjXjXjXjXjXjXjXjXjXjXjXjXjXjXjXjXjX",
"jXjXjXjXjXjXjXjXjXjX#.a.i.s.k.g.H M n M I.[.jXjXjXh.v.v.v.X.6XjXjXjXjXjXjXjX/.k.v.v.v.9.,.jXjXjXjXjXjXjXjXjXjXjXjXjXjXjXjXjXjXjX",
"jXjXjXjXjXjXjXjXjXjXjXr.6.>.9 p a k U.jXjXjXjX2X>.k.v.v.9.,.jXjXjXjXjXjXjX6Xd.b.v.k.k.#.].jXjXjXjXjXjXjXjXjXjXjXjXjXjXjXjXjXjXjX",
"jXjXjXjXjXjXjXjXjXjXjXjXjX6X[.2XjXjXjXjXjXjX2X8.k.v.k.h.e.jXjXjXjXjXjXjX6Xf.v.v.k.v.u.~.jXjXjXjXjXjXjXjXjXjXjXjXjXjXjXjXjXjXjXjX",
"jXjXjXjXjXjXjXjXjXjXjXjXjXjXjXjXjXjXjXjXjX2Xy.v.v.k.9.>.jXjXjXjXjXjXjX~.d.p.v.v.k.u.o.2XjXjXjXjXjXjXjXjXjXjXjXjXjXjXjXjXjXjXjXjX",
"jXjXjXjXjXjXjXjXjXjXjXjXjXjXjXjXjXjXjXjX0Xd.v.k.v.h.t.d._.jXjXjXjXjX~.i.v.v.v.u.#.O.o.8.w.2XjXjXjXjXjXjXjXjXjXjXjXjXjXjXjXjXjXjX",
"jXjXjXjXjXjXjXjXjXjXjXjXjXjXjXjXjXjXjXjX/.p.u.6.O.u.y.$.9.w._.jXjXjX6.v.b.v.i.6.o.7.t.#.t.%.jXjXjXjXjXjXjXjXjXjXjXjXjXjXjXjXjXjX",
"jXjXjXjXjXjXjXjXjXjXjXjXjXjXjXjXjXjXjXjXr.v.v.v.u.O.b.9.7.p.e.jXjXjX] 9.u.p.p.p.a.] h.9.' >.jXjXjXjXjXjXjXjXjXjXjXjXjXjXjXjXjXjX",
"jXjXjXjXjXjXjXjXjXjXjXjXjXjXjXjXjXjXjXjX/.4.a.a.4.' 9...] O.2XjXjXjX2X>.@.] +.+...[ X.@.Q.jXjXjXjXjXjXjXjXjXjXjXjXjXjXjXjXjXjXjX",
"jXjXjXjXjXjXjXjXjXjXjXjXjXjXjXjXjXjXjXjXjX(.>. . .[ { r.).0XjXjXjXjXjXjXjX6X_.^.(.6XjXjXjXjXjXjXjXjXjXjXjXjXjXjXjXjXjXjXjXjXjXjX"
};
