/* XPM */
static char *result[] = {
/* columns rows colors chars-per-pixel */
"64 64 69 1 ",
"  c #33322E",
". c #3C372C",
"X c #373737",
"o c #393836",
"O c #403727",
"+ c #443A27",
"@ c #493D24",
"# c #423A29",
"$ c #57441F",
"% c #5A4419",
"& c #7C580F",
"* c #634916",
"= c #694C11",
"- c #654C1B",
"; c #694E1A",
": c #6E5117",
"> c #745515",
", c #785613",
"< c #7C5810",
"1 c #73551A",
"2 c #4F4023",
"3 c #554421",
"4 c #584620",
"5 c #5F5237",
"6 c #5C513C",
"7 c #6E5523",
"8 c #68542A",
"9 c #6E592F",
"0 c #635333",
"q c #4E4E4E",
"w c #514F4C",
"e c #53504A",
"r c #5A554C",
"t c #4E4F51",
"y c #535353",
"u c #5C5D5D",
"i c #636363",
"p c #676768",
"a c #6C6C6C",
"s c #747474",
"d c #7C7C7C",
"f c #815704",
"g c #865901",
"h c #895C01",
"j c #845C0C",
"k c #895F0C",
"l c #805C13",
"z c #8F6103",
"x c #8C610A",
"c c #956301",
"v c #9A6701",
"b c #9E6A01",
"n c #916309",
"m c #A36D01",
"M c #838383",
"N c #8B8B8B",
"B c #98958E",
"V c #949494",
"C c #9C9C9C",
"Z c #A4A4A4",
"A c #ABABAB",
"S c #B3B3B3",
"D c gray73",
"F c #C3C3C3",
"G c #CBCBCB",
"H c #D3D3D3",
"J c #DDDDDD",
"K c white",
"L c None",
/* pixels */
"LLLLLLLLLLLLLLLLLyuqyyyuyyyyyyyLLLLLLLLLLLLLLLLLLLLLLLLLLLLLLLLL",
"LLLLLLLLLLLLLLLyydNydCVVVCCdyNdyyLLLLLLLLLLLLLLLLLLLLLLLLLLLLLLL",
"LLLLLLLLLLLLeqsVSSCyMAZZSHSMyCCNVayyLLLLLLLLLLLLLLLLLLLLLLLLLLLL",
"LLLLLLLLLqqpNANdHFVyMSGSDJSMyCAZsdMNpqqLLLLLLLLLLLLLLLLLLLLLLLLL",
"LLLLLLLLqyNZAFZdNdayisNddNsiyassMVSFCsqqLLLLLLLLLLLLLLLLLLLLLLLL",
"LLLLLLLssdVZZZVsyqqyqqqqqqqqqyqysVAFCddNNLLLLLLLLLLLLLLLLLLLLLLL",
"LLLLLusZDZdsMMsqqLLLLLLLLLLLLLLqqsMMsMZFSsuLLLLLLLgghcczhggLLLLL",
"LLLLisNDDNNdqtLLLLLLLLLLLLLLLLLLLLqqdNNCCNMsLL60fhhgvmmmvgggLLLL",
"LLLsVCpNMyyLLLLLLLLLLLLLLLLLLLLLLLLLLyyMdyZBr61ghvbhvmmmvghzhggL",
"LuaDZVVpyLLLLLLLLLLLLLLLLLLLLLLLLLLLLLLyyyr9ggghbmbgvmmmvhvmmhgg",
"qdVpiuyLLLLLLLLLLLLLLLLLLLLLLLLLLLLLLLLLLw1hbmchmmbgvmmmvhvmvhgg",
"edACCMyLLLLLLLLLLLLLLLLLLLLLLLLLLLLLLLLLLw,cmmcgvmbhcmmmvgvmmhgg",
"tdAHDVyLLLLLLLLLLLLLLLLLLLLLLLLLLLLLLLLLLw,cmmchmmmhcmmmvhmmmhgg",
"tusSAVyLLLLLLLLLLLLLLLLLLLLLLLLLLLLLLLLLLw,hmmchvmvgvmmmvgbmmhgg",
"yaMaaiyLLLLLLLLLLLLLLLLLLLLLLLLLLLLLLLLLLw,cmmchmmmgvmmmvgvmvhgg",
"qdZddsyLLLLLLLLLLLLLLLLLLLLLLLLLLLLLLLLLLw,cmmcgmmvgcmmmvhvmmggg",
"qdAFSVyLLLLLLLLLLLLLLLLLLLLLLLLLLLLLLLLLLw,zmmvhvmvhcmmmvgmmmhgg",
"qaNAVdyLLLLLLLLLLLLLLLLLLLLLLLLLLLLLLLLLLq,cmmcgmmvhvmmmvgvmmhgg",
"qispiiqLLLLLLLLLLLLLLLLLLLLLLLLLLLLLLLLLLw-jmmcgmmmgvmmmvgvmvhgg",
"qVGSAVyLLLLLLLLLLLLLLLLLLLLLLLLLLLLLLLLLLqX3xbvhbmvhvmmmvhvmmggg",
"qMSHDNyLLLLLLLLLLLLLLLLLLLLLLLLLLLLLLLLLLqX .jkhmmbhvmmmvgbmmhgg",
"qdZZZNyLLLLLLLLLLLLLLLLLLLLLLLLLLLLLLLLLLqX .#*hbmvhvmmmvgbmmhgg",
"qdVpiuyLLLLLLLLLLLLLLLLLLLLLLLLLLLLLLLLLLqX$nnhhbmbgvmmmvgbmvhgg",
"qusSZMyLLLLLLLLLLLLLLLLLLLLLLLLLLLLLLLLLLw;jmmvgmmbhcmmmbgbmmggg",
"qaVDGSyLLLLLLLLLLLLLLLLLLLLLLLLLLLLLLLLLLw<zmmcgmmmhvmmmvgvmmhgg",
"qdAZSZyLLLLLLLLLLLLLLLLLLLLLLLLLLLLLLLLLLw,cmmvgmmvgvmmmvgbmmggg",
"qisdVVyLLLLLLLLLLLLLLLLLLLLLLLLLLLLLLLLLLw,zmmchvmvgvmmmvgbmmhgg",
"eisNMsyLLLLLLLLLLLLLLLLLLLLLLLLLLLLLLLLLLw,zmmchmmmgvmmmvgbmmggg",
"tdSGNiyLLLLLLLLLLLLLLLLLLLLLLLLLLLLLLLLLLw,zmmvgmmmgcmmmvgmmmhgg",
"tdZAZVyLLLLLLLLLLLLLLLLLLLLLLLLLLLLLLLLLLw,cmmcgvmbgvmmmvgvmvhgg",
"tsCVZVyLLLLLLLLLLLLLLLLLLLLLLLLLLLLLLLLLLw,zmmcgbmbgcmmmvgvmmhgg",
"yyiuMNyLLLLLLLLLLLLLLLLLLLLLLLLLLLLLLLLLLw,zmmcgmmmgvmmmvgvmmggg",
"qdCCsuyLLLLLLLLLLLLLLLLLLLLLLLLLLLLLLLLLLw,hmmvgbmbhvmbbngvmbhgg",
"qdAZCMyLLLLLLLLLLLLLLLLLLLLLLLLLLLLLLLLLLw,cmmcgbmbgvmm-##xmmhgg",
"qdAZZVyLLLLLLLLLLLLLLLLLLLLLLLLLLLLLLLLLLw>cmmvhmmbhvmmx: +:bhgg",
"wuaaaiyLLLLLLLLLLLLLLLLLLLLLLLLLLLLLLLLLLw,zmmchbmvgvmmm& ;xbhgg",
"tpMMMsyLLLLLLLLLLLLLLLLLLLLLLLLLLLLLLLLLLe,cmmchbmbhcmm>2 xmmhhg",
"qdAZZVyLLLLLLLLLLLLLLLLLLLLLLLLLLLLLLLLLLw,zmmcgmmbgvc::-%;jbhgg",
"qNDAAVyLLLLLLLLLLLLLLLLLLLLLLLLLLLLLLLLLLe,cmmchbmmhvxX&vh.$bhgg",
"qZHNNdyLLLLLLLLLLLLLLLLLLLLLLLLLLLLLLLLLLw,zmmchbmbhvx$:,=$>bhgg",
"qNSpiiqLLLLLLLLLLLLLLLLLLLLLLLLLLLLLLLLLLw;jmmvhmmvgcmm-@@xmmhgg",
"yyaCZNyLLLLLLLLLLLLLLLLLLLLLLLLLLLLLLLLLLqo$nmvgvmmgvmmmcgvmmhgg",
"qdCZAVyLLLLLLLLLLLLLLLLLLLLLLLLLLLLLLLLLLqX #jzhmmmgcmmmvgvmvhgg",
"qdZZFDyLLLLLLLLLLLLLLLLLLLLLLLLLLLLLLLLLLqX  #*hbmvgvmmmvgvmmhgg",
"quiiSDuLLLLLLLLLLLLLLLLLLLLLLLLLLLLLLLLLLqX3xkjgmmvhvmmmvhvmmhgg",
"qsNNdayLLLLLLLLLLLLLLLLLLLLLLLLLLLLLLLLLLw-fmmvhbmvhcmmmvhvmmhgg",
"qdAZVsyLLLLLLLLLLLLLLLLLLLLLLLLLLLLLLLLLLw,cmmvgmmmgvmmmvhmmmggg",
"ydSFSVyLLLLLLLLLLLLLLLLLLLLLLLLLLLLLLLLLLw,cmmchbmvhvmmmvgvmvggg",
"qiMCNsyLLLLLLLLLLLLLLLLLLLLLLLLLLLLLLLLLLq,cmmvgbmbhcmmmvhvmmhgg",
"qiaaapttLLLLLuipiiiipssaaspuqqyuuuuiiuLLqq,zmmchmmvhvmmmvgvmmhgg",
"qdAZZVtqqqqyisMVVVVVZZCZZZCMuiiapsdNdayyye,zbmcgbmbhvmmmvhvmmhgg",
"qsCZZVyuiuipMdMMMNVVVVMNVZZCVVduuisMdayuue,cmmvgmmvhvmmmvgvmvhgg",
"qusVCNyNZAZNiiuuiuiiuiudMNVCVNMMMpyyppyppe1cmmchbmbhcmmmvhmmmhgg",
"qVDiuueNADAASZCZCCCCCCCsuuuiiuuuuuuuyyeuue,cmmcgbmbhvmmmvhvmmhgg",
"qMACCMyNZAZZAZSDASDZZZZVVVVVVVVVVVNyttqyyw,hmmchmmbhvmmmvhvmmhgg",
"qVGAZVyuiiiiiiipiipiiiiiiiiiiiiiiiuytwqqqw,hcvcgbmbhcmmmvgvmvggg",
"yidapiyqqqqqqqqqqqqqqqqqqqqqqqqqetttwttwqer00jhhvmvgvmmmvhbmmhgg",
"LLLLLLLLLLLLLLLLLLLLLLLLLLLLLLLLLLLLLLLLLLLLL01hcbmgvmmmvgbmmggg",
"LLLLLLLLLLLLLLLLLLLLLLLLLLLLLLLLLLLLLLLLLLLLLL588lcgvmmmvhbmmhgf",
"LLLLLLLLLLLLLLLLLLLLLLLLLLLLLLLLLLLLLLLLLLLLLLLtt577kccmvgvmmggg",
"LLLLLLLLLLLLLLLLLLLLLLLLLLLLLLLLLLLLLLLLLLLLLLLLtqtt811ncgbmmhgg",
"LLLLLLLLLLLLLLLLLLLLLLLLLLLLLLLLLLLLLLLLLLLLLLLLLLLLLww7>,cbvggg",
"LLLLLLLLLLLLLLLLLLLLLLLLLLLLLLLLLLLLLLLLLLLLKLLLLLLLLLLwww>&&&,,",
"LLLLLLLLLLLLLLLLLLLLLLLLLLLLLLLLLLLLLLLLLLLLLLLLLLLLLLLLLLeeeeee"
};
