/* XPM */
static char *_523d85b3d7a4957a5a9440b2174e19f0lIE2IOcvL5hphZC[] = {
/* columns rows colors chars-per-pixel */
"64 64 201 2 ",
"   c None",
".  c #040303",
"X  c #0B0403",
"o  c #0B0906",
"O  c #060709",
"+  c #070809",
"@  c #0B0B0B",
"#  c #060807",
"$  c #130201",
"%  c #1C0301",
"&  c #130E0C",
"*  c #140D06",
"=  c #16140D",
"-  c #1C140A",
";  c #1C180D",
":  c #131312",
">  c #1C1B1C",
",  c #1A1A16",
"<  c #0F0F11",
"1  c #230301",
"2  c #2D0301",
"3  c #230B05",
"4  c #220F08",
"5  c #340300",
"6  c #3B0300",
"7  c #231409",
"8  c #2A100C",
"9  c #241A0D",
"0  c #2C1C0D",
"q  c #321E0D",
"w  c #301109",
"e  c #221D18",
"r  c #35210E",
"t  c #3A240F",
"y  c #2B2414",
"u  c #2D2A1C",
"i  c #2A2616",
"p  c #352211",
"a  c #3B2511",
"s  c #342B19",
"d  c #312A17",
"f  c #3C331C",
"g  c #1D1F20",
"h  c #1D2123",
"j  c #242323",
"k  c #2A2929",
"l  c #2A2A28",
"z  c #3A392B",
"x  c #353122",
"c  c #2B2F31",
"v  c #393939",
"b  c #383733",
"n  c #303028",
"m  c #420400",
"M  c #4B0400",
"N  c #480A05",
"B  c #530600",
"V  c #5D0500",
"C  c #630600",
"Z  c #6D0700",
"A  c #680800",
"S  c #730700",
"D  c #730900",
"F  c #7E0A00",
"G  c #432A13",
"H  c #4A2E15",
"J  c #4A3319",
"K  c #553519",
"L  c #5F3C1B",
"P  c #583719",
"I  c #613D1C",
"U  c #463C21",
"Y  c #493F22",
"T  c #602D29",
"R  c #68421F",
"E  c #4E4325",
"W  c #48442A",
"Q  c #514626",
"!  c #564C2A",
"~  c #5A5535",
"^  c #585335",
"/  c #544F31",
"(  c #674323",
")  c #7B4E26",
"_  c #714824",
"`  c #63562E",
"'  c #665830",
"]  c #7B6B3A",
"[  c #736436",
"{  c #66613B",
"}  c #3F4A4D",
"|  c #474747",
" . c #49575B",
".. c #595959",
"X. c #635D5C",
"o. c #6E6942",
"O. c #736D44",
"+. c #7A7347",
"@. c #58686D",
"#. c #686868",
"$. c #777777",
"%. c #840B00",
"&. c #8D0C00",
"*. c #950C00",
"=. c #9B0D00",
"-. c #941B11",
";. c #A40E00",
":. c #AD0F00",
">. c #B00F00",
",. c #855429",
"<. c #8D592C",
"1. c #925C2E",
"2. c #955F30",
"3. c #9C6332",
"4. c #9E6738",
"5. c #84723E",
"6. c #8E703E",
"7. c #806F3C",
"8. c #A46835",
"9. c #B6743C",
"0. c #B9763D",
"q. c #BB783F",
"w. c #B67237",
"e. c #A24F48",
"r. c #8A7842",
"t. c #967944",
"y. c #BC7A41",
"u. c #B8746F",
"i. c #958146",
"p. c #9D884A",
"a. c #9B844B",
"s. c #8C8452",
"d. c #958C57",
"f. c #9E955C",
"g. c #A28C4E",
"h. c #A1854B",
"j. c #A7914E",
"k. c #AB9452",
"l. c #A9985B",
"z. c #B39B54",
"x. c #B59C57",
"c. c #A48E53",
"v. c #BCA358",
"b. c #A79E62",
"n. c #AAA165",
"m. c #B9A967",
"M. c #BBB06E",
"N. c #C9AE5E",
"B. c #C4AA5C",
"V. c #CFB361",
"C. c #CDB86C",
"Z. c #D6B964",
"A. c #D4B763",
"S. c #C4B872",
"D. c #C9B46C",
"F. c #CEC279",
"G. c #D4C67A",
"H. c #E3C46A",
"J. c #ECCB6F",
"K. c #E7C86D",
"L. c #EECE70",
"P. c #E1C771",
"I. c #F0CF71",
"U. c #EFD174",
"Y. c #F2D272",
"T. c #F2D579",
"R. c #F4DA7E",
"E. c #7D949B",
"W. c #7F8183",
"Q. c #8C8D8D",
"!. c #858687",
"~. c #969798",
"^. c #819AA2",
"/. c #93AEB8",
"(. c #9AB6BF",
"). c #96B2BC",
"_. c #A5A7A7",
"`. c #BABCBD",
"'. c #A8B1B4",
"]. c #CAB5B4",
"[. c #EEDD89",
"{. c #E6D886",
"}. c #F6DE82",
"|. c #F5E58E",
" X c #FAE58A",
".X c #FFEF95",
"XX c #F5E790",
"oX c #FFF196",
"OX c #FFF498",
"+X c #EEE08B",
"@X c #9EBBC4",
"#X c #A5C3CD",
"$X c #BCC5C8",
"%X c #B3D4DE",
"&X c #B6D7E2",
"*X c #DCDCDC",
"=X c #D1D1D1",
"-X c #C2C2C3",
";X c #D9EAF0",
":X c #E5E5E5",
">X c white",
/* pixels */
"                                                                                                                                ",
"                                                                                                                                ",
"                                                                                                                                ",
"                                                        o < @ O < + :                                                           ",
"                                                  O o O             : @ @ O o @                                                 ",
"                                              + +     y.y.y.w.w.0.y.y.y.        +                                               ",
"                                          o @     0.9.9.9.9.9.9.9.9.9.9.9.0.0.y.  + o                                           ",
"                                        + @   y.9.9.9.9.9.9.9.9.9.9.9.9.9.9.9.9.y.  o O                                         ",
"                                      O o   0.9.9.9.9.9.9.9.9.9.9.9.9.9.9.9.9.9.9.y.4.0 O                                       ",
"                                    O     9.9.9.9.9.9.9.9.9.9.9.9.9.9.9.9.9.9.9.9.9.9.4.p <                                     ",
"                                  o     9.9.9.9.9.9.9.9.9.9.9.9.9.9.9.9.9.9.9.9.9.9.9.9.3.9                                     ",
"                                  o   0.9.9.9.9.9.9.9.9.9.9.9.9.9.9.9.9.9.9.9.9.9.9.9.9.0._ @                                   ",
"                                :   q.9.9.9.9.9.9.9.9.9.9.9.9.9.9.9.9.9.9.9.9.9.9.9.9.9.9.,.-                                   ",
"                                .   q.0.9.0.9.w.9.0.0.9.9.0.0.9.9.9.9.9.9.9.9.9.9.9.9.9.9.,.0                                   ",
"                                @ ! 8.3.3.1.1.<.<.<.1.2.3.3.8.e.8.w.9.9.9.9.9.9.9.9.9.9.9.,.a o                                 ",
"                                & K R H t r r 0 r r r y r p a H P _ 3.9.9.9.9.9.9.9.9.9.9.,.G <                                 ",
"                                o r a u ^ { [ O.O.O.O.O.O.o.^ Y i 7 P ) 3.9.9.9.9.9.9.9.9.) G @                                 ",
"                                  # o n.oXoXOXOXoXoXoXoXoXoX.XXX{.O.- P P ,.9.9.9.9.9.w.8.R a .                                 ",
"                                    @ M.oX.X.X.X.X.X.XoX.X.X.X.XoX+XW * - G <.w.9.9.w.1.R I a .                                 ",
"                                    ; F.OX.X.XoXoX.X.X.X.XoXoXoXOXoX{.p.5.- H 3.w.4.) I I I r .                                 ",
"                                    e m.k.t.h.[.oX.X.X.X.XB.a.h.m.[..XT.J.6.- P ) I I I I I r .                                 ",
"                                    u l.p.l.C.XXoX.X.X.X.XC.l.c.6.x..XT.J.J.' 0 L I I I I I r #                                 ",
"                                    x {.n.~ XXoX.X.X.X.X.XoX+.s.XX|..XT.J.I.7.0 I I I I I I p :                                 ",
"                                    n [.d.u {.oX.X.X.X.X.X.X/ ~ .XoX.XR.J.I.[ o 0 a L I L R 0                                   ",
"                                    x {.{.S.XX.X.X.XoX.X.XoXS.F.oX.X.XR.J.J.z.5.r.y G I I L 7                                   ",
"                                    u {.oXOXoXoX.X.X.X.XoX.XOXOXoX.X.XR.J.J.L.L.Y.5.9 I I P =                                   ",
"                                    , G.oX.X.XoX.X.X.X.X.X.X.X.X.X.X.XT.J.J.J.J.I.h.- L L 0 o                                   ",
"                                    = M.OX.X.X.X.X.X.XoX.XoX.X.X.X.X XU.J.L.L.L.Z.Q q I q @                                     ",
"                                    o d.OXOX.X.XoX.X.X.X.X.X.X.X.X.XR.J.J.g.' ! s 9 J 0 @                                       ",
"                                      ^ XXoX.X.X.X.XoX.XoX.XoXoX X XU.J.J.Y 7 t G G 7 #                                         ",
"                                      = l.XXoX.X.X.X.X.X.X.X X}.T.J.J.L.V.y 7 t 0 *                                             ",
"                                        , r.P.}.}.}.R.T.T.L.L.L.J.J.U.J.[ + < :                                                 ",
"                                          o s r.v.Z.H.H.K.K.K.K.K.Z.v.[ 3 % .                                                   ",
"                                            . 1 8 y f E Q Q Q Q J y 7 5 m 6 X +                                                 ",
"                                            $ S D X ; r.h.i.h.[ # X M 5 1 6 6 5 % :                                             ",
"                                          . o -.N 2 5 J A.Y.B.s 6 6 X 1 *.;.%.S C 1                                             ",
"                                        O 2 8 ].X.5 Z 5 f 7.y 6 Z 5 , N :.:.B C S B o                                           ",
"                                        % V 8 u.e.1 M S 1 . M S m 3 T m :.:.*.%.S S 1                                           ",
"                                        X 6 1 *.:.D % M % $ B 6 1 %.F 2 ;.>.:.;.S V $                                           ",
"                                        = - $ *.:.:.V $ B C $ 5 &.>.=.1 &.>.=.S 6 7 ;                                           ",
"                                      @ ] g.3 *.:.:.:.&.:.;.%.;.:.:.:.M 6 M w U ] v.g.=                                         ",
"                                      , B.B.7 =.>.:.:.:.:.:.>.:.:.:.:.F $ z S.|.}.U.P.J                                         ",
"                                      E J.x.3 =.:.:.:.:.:.:.:.:.:.:.:.*.m / .X.X XJ.U.i.@                                       ",
"                                    O 5.Y.z.1 &.>.:.:.:.:.:.:.:.:.:.:.*.V s {.OX XU.J.V.d                                       ",
"                                    = z.Y.k.3 %.:.:.:.:.:.:.:.:.:.:.*.A M 4 F.OXoXT.J.J.`                                       ",
"                                    y V.Y.k.1 S =.>.>.>.>.>.>.>.:.C 8 & X @ M.OX.X XJ.I.r.o                                     ",
"                                    f H.U.j.* 6 m V Z Z D D Z D M j Q.$.j < b.OX.X XJ.L.k.:                                     ",
"                                    E K.L.t.. . < : : : : : = # , ~.$X$.e < s.OX.X XU.L.z.=                                     ",
"                                    ! L.J.E < + g k k k l k k : ..`.`._.| < +.OX.X.XU.U.r.@                                     ",
"                                    s Z.H.d : @ . > > g g > > o | !.!.W.b + ^ .XOX XL.v.u                                       ",
"                                    o ! N.` = E Q f s f f = l v : W ^ ^ W Y s +.l.a.` 9 .                                       ",
"                                      # i f J Z.Z.V.N.N.v.f !.=Xn b.C.F.C.V.j.; . . O                                           ",
"                                          . @ x z z z z n : Q.*Xh n b U b z z =                                                 ",
"                                            h E././././.@X .$.*Xv -X:X:X$X).@X}                                                 ",
"                                            c #X%X%X%X%X&X@.$.:Xv *X>X>X;X%X&X@.                                                ",
"                                            c @X#X#X@X(./. .$.:X| `.*X=X'.E.E.} @                                               ",
"                                            @ c c j h > > O #.*Xj j b j : : : o :                                               ",
"                                          . c Q.v > > j j : ..~.@ #.Q.c j j k , @                                               ",
"                                          @ #._.v k k k k : k k j ~.!.j k k k , :                                               ",
"                                        @ @ ..X.> > > > > @ . O c Q...> g j g < :                                               ",
"                                          @ . < < < @ . . . < @ o , & @ @ @ O @                                                 ",
"                                                                                                                                ",
"                                                                                                                                ",
"                                                                                                                                "
};
