/* XPM */
static char *_09fabf477674556959cb89bb26de7b7qdOoh8pkkomdf0cg[] = {
/* columns rows colors chars-per-pixel */
"64 64 37 1 ",
"  c #121619",
". c #161A1C",
"X c #181C1F",
"o c #1A1E21",
"O c #1D2225",
"+ c #1F2528",
"@ c #1F282B",
"# c #202527",
"$ c #212629",
"% c #242A2D",
"& c #262D31",
"* c #282F32",
"= c #273133",
"- c #2B3235",
"; c #2E3539",
": c #2F383B",
"> c #30373B",
", c #323A3D",
"< c #353D41",
"1 c #383F44",
"2 c #364144",
"3 c #394346",
"4 c #3C4549",
"5 c #3C494B",
"6 c #40474D",
"7 c #414A4E",
"8 c #444D52",
"9 c #465155",
"0 c #495257",
"q c #4C555A",
"w c #4F595D",
"e c #505A5F",
"r c #525C61",
"t c #566066",
"y c #5A6469",
"u c #5E686E",
"i c #606B71",
/* pixels */
"<<<33613311,1,11<><<<,11#***:==:==-==*=;*;;,8<113344335;54333331",
"<<<1472233311111<<>>,,1>#*--==========*=;*%*81111133445,4334432<",
"<<1,>7333611,3111<<<,>1-#>--=:======******#*0<<1<<23344>13133321",
"<<3>=544331161,1<<<1>>1-o;**========*=**&*%*0<>><<<2311*<112121<",
"111>%3346111,6,111<*<<1&#<$&=&==&&&=&=*=*;$&7<:::<<<<<<&,<,11111",
"1,1>$33416111,,,;-*><<4;o4+$@@@@@=@&%&*=*;*#33::::>,<>1$*,<1<11<",
"1176#68111,>;*%%&;-<<<8<o6>%&@@@&@%%%&*=>:*O;;=-;><:><4$&<,,,<1<",
">>>1#,%##OooXoo#o+oo%&<;X-&#+O++O@%%+$$%$+oo+oO++$&$##$o$*$%%O%*",
",:,:>>%**;,,,>>.&<;<<-=-;>>-;**<:=O%=&=%$%=%====%$$$&OOOoOooO>>,",
"9099qwwq0000qte>0t59555565688090wrO2ueq99qqeewweerw85<;=**;*1r09",
"5533333,>>,,>qe6q5<<3444444544447q@,q555553322:2<1<2<,:=&&&>4712",
"5355732,,,,,,,86542234555558568880=,925555555222<<<<2232;&%&;325",
"3525411,,,,,,18644<223444565458897*38455552522222<<<22232,>*&,33",
"555511,,,,,,,,81<<<43<4455554808,;%333535255252222<<2222222;&>25",
"2222,,,,>,,1,,6><<--33<45554580-%2=;61552222525223222322332-%,25",
"5222,,,>,,,,11,*-;;;;<<14645594@,4=&6325252522223<<22222222;$,12",
"222,,:22;***<<$$<1<<><<<344550&;16-%6865353335333113222<243,$44<",
"%=::233-%$$+$+$o<1<*$%oo@@@=<<@<11o%-%;;:,;,2,:;-;;;<<<<;&%OO=*$",
"%%=-#OX.ooo+oo$$;**$+o&$=====-<<;%$*-*%$$.O#OOOXo++oo+O.O%+$$%%&",
"79qete0qq<8rq0168066<<rrqqq5595qrrrrrrr0r:=52332131+:<:o<i937776",
">,,15777w1wr1<<1<11<>-q022:2<<<1,;,<<<<19<=1;&*&&-%;2<2=5e4332,>",
">,,,,:,>1<<-&&<11131<-0622<2<<2<-;>><:<<4,>;%&&&=&=<<=:=8934342>",
">>>,<1,,1<+164<<1311-*6622<<<<<=-;;:::,<3,>;&&&=-%1<=-::4844361>",
">>,,<,1,1*<r81<13311-&61:<:<=@=---;;;>,<<>;;&&&-=%<<:-:=,34343,>",
">>>,<<<11%<84<<1133<&&1<-<-=--=-;;-:;:<<,;*-&&&-%-::;;>*>2344<,>",
",,,,,<>>1%*6<<<1333<&%<<<*-=**--::::;:<<>&&*&&*%&2--;>**%<3331,>",
">,<,<,1,6$$6<<11434<&$-<<&==*--;;;:<<<<<>#$;&&*$::-->;$#$<3<<,<,",
",,<>>><16*$64114585&*+<1*<-<;:<11133844<-%$,**%*:->,3$##%431,>>>",
"**%%***%>*o6<$$$&=&@=+<-%=&&%&&&&&&&%&;<%O ooX.O@@$=%XO.X#o##OO#",
">>>%XX%**%*<**%%&%&&==*&+oo+%%%&----*;*-,,>,,2,*+$%%*->--->OO&**",
"6qqw>%6><><1116645411111<@rrreeeewqww0qweeeeeeqr87r0q88qwww1*167",
">,>66>6******-*----<-&%-<*r55411<<<1<1<<,,,2,,20>8w2,,>>,111--,,",
"1,,22:,=:==:-::---;-%%%%&-q2331,<<<11<<<,22,2,18-97,,1><<,111,>>",
",,,,,2,-=:::-----=&&%%%%#=7,<,13<<;;;<:;,,,:,,,7-88,<,>,,,,,1<><",
",,,,:,:-:::=--====&&%&%%%O&;>,>,<<::<><>,,:::::3-13,,,,,1,,1<<<<",
",1,2-=:-:=--==&&=&&%&%%%%#;%%%#*<:::;;<<::::,,;,*-1,,,,1,,,,>><<",
"1111:#:-::==-==&&&&%%%%%$O38366$*,,>:>>>:::::;;;#*,,,,,,<<<><>11",
"1311:#=-==:=-==&&$%%&%%%%O<46678>=,,:;;;:;;:;-;;##>,>>,,>>>><111",
"3417-o%==::=====%%%&&%$%*X;1,3137;%,>>,>:::;---,##,,,,,,1<<<<111",
"*->>=X==%=@@$O#$$@%%$$$&&.$&**;;--X$;;==&%$$+@+-*#-******%***>>*",
"%%#########$++O..+#%***oOOO$%*%&$$%$#.. XXXOOO+%####%%==#$$*%*%*",
"0qeeettttttrw08.7utree07777784100eeet3#22--*-::,25##yeqq00qw0q00",
"133457775575559&0t42224667689-707753ew;43=--=&=%%3%-e22211613111",
"311,22232234559<98;,33266680;1w357358w-<,=-==&&&#=-:9:3316164661",
"2222233,2223559,07>,23266884;e8077552q<:,=====&&###:7:3225553332",
"22332,1,2223337,93*::1235661;r55755225,:-======%%##=2:2222223322",
"22322,,12,22355>73->,,,14654&q55355223=======&%$###&2---55223322",
"22222-11,223337-33::,,,21454&154552222#&=%%&&%%$##&#:-=%-5255322",
"3222223,1,13333%<<;;;<<<<<11&<44553<<;+=*&@&@&%%%###:-=&$#%23222",
"22222231333333-#<11<<<1111<<*<31<<,>:2O::&&@&@@$#=%O=:-==&$%2222",
"::::,,,1,,113-##*6<&&**-**&;*<<*%%&&=<O<1&&&@&$$@O&O%==-%%%+-,::",
"#####X#X#.X##XXX$ooooooo+oooooooO+Ooo+oOooooooOO.OX.OOOOO$$%#%%%",
"2,235qe3.3981,-%&%<<<11133186$1rwrq95552<444453X8q77575777777855",
"222359yt;yt777731<<118065860r<1y973324555555777=e825535553,,::,2",
"22255299,w923111<<<<11<<1<<<w*4r;<23455555553<<;w,:,533322,,,:,2",
"22335399-w93521><<<<<<<<11<<0<8r><232355535531,$9<,,2332222,,:,,",
"1,233377-07532:,>>,>>-<<<1<<8>6w><113454554522>%3<<-;<<<2,1,,,>,",
",,,<5373*7852::,,61>->;<<<1<6-14;<<1344544332<=%<;;<;:;:,,,,,,,1",
"1,,<3531%75,2:2:,>**--<;<<116><<*<<<24444411<<&O&-<*-;::,:,:>,,,",
"1,135376#47:::2:#%*-;;;<<<146>;<*<<1244241<<<:*o&*&----;:;>:>,,,",
",<334736X37>::2#%-***<<<<<1<1-&<;<113444111<11*o=1<-;*;;;>>>,>;>",
"#####oXoX*%##%#X$#%%%$$+Ooooooooo$o@@@@&&%%$ooooo@&o##O%##&&%$##",
",1,#.13111133222<16<<<1>$<***-**--*-&&&---$o11111114331#&3333>,>",
"1331,y857533333566666666;1*<--<-*<;-;;;<;><<r0858895879&0e777763"
};
